<?xml version="1.0" standalone="no"?>
<!DOCTYPE svg PUBLIC "-//W3C//DTD SVG 1.1//EN" "http://www.w3.org/Graphics/SVG/1.1/DTD/svg11.dtd" >
<svg>
<metadata>
Created by FontForge 20110222 at Thu Sep 11 16:39:50 2014
 By Orthosie Webhosting
Typeface (c) (your company). 2013. All Rights Reserved
</metadata>
<defs>
<font id="LondonFontRegular" horiz-adv-x="1127" >
  <font-face 
    font-family="LondonFontRegular"
    font-weight="400"
    font-stretch="normal"
    units-per-em="2048"
    panose-1="2 0 5 0 0 0 0 0 0 0"
    ascent="1638"
    descent="-410"
    x-height="998"
    cap-height="1399"
    bbox="100 -401 1699 1616"
    underline-thickness="150"
    underline-position="-142"
    unicode-range="U+0020-007E"
  />
<missing-glyph horiz-adv-x="1024" 
 />
    <glyph glyph-name=".notdef" horiz-adv-x="1024" 
 />
    <glyph glyph-name=".null" horiz-adv-x="0" 
 />
    <glyph glyph-name="nonmarkingreturn" horiz-adv-x="508" 
 />
    <glyph glyph-name="space" unicode=" " horiz-adv-x="600" 
 />
    <glyph glyph-name="space" unicode="&#xa0;" horiz-adv-x="600" 
 />
    <glyph glyph-name="exclam" unicode="!" horiz-adv-x="326" 
d="M271.5 971.5q29.5 -29.5 29.5 -70.5t-29.5 -70.5t-70.5 -29.5q-42 0 -71 29.5t-29 70.5t29 70.5t71 29.5q41 0 70.5 -29.5zM271 772q29 -29 29 -71q0 -41 -29 -70.5t-71 -29.5q-41 0 -70.5 29.5t-29.5 70.5q0 42 29.5 71t70.5 29q42 0 71 -29zM271 572.5
q29 -29.5 29 -70.5q0 -42 -29 -71t-71 -29q-41 0 -70.5 29t-29.5 71q0 41 29.5 70.5t70.5 29.5q42 0 71 -29.5zM270.5 172q29.5 -29 29.5 -71q0 -41 -29.5 -70.5t-70.5 -29.5t-70.5 29.5t-29.5 70.5q0 42 29.5 71t70.5 29t70.5 -29zM271 1171q29 -29 29 -71q0 -41 -29 -70.5
t-71 -29.5q-41 0 -70.5 29.5t-29.5 70.5q0 42 29.5 71t70.5 29q42 0 71 -29zM271.5 1369.5q29.5 -29.5 29.5 -70.5q0 -42 -29.5 -71t-70.5 -29q-42 0 -71 29t-29 71q0 41 29 70.5t71 29.5q41 0 70.5 -29.5z" />
    <glyph glyph-name="quotedbl" unicode="&#x22;" horiz-adv-x="663" 
d="M371 1271q29 -29 29 -71q0 -41 -29 -70.5t-71 -29.5q-41 0 -70.5 29.5t-29.5 70.5q0 42 29.5 71t70.5 29q42 0 71 -29zM371.5 1469.5q29.5 -29.5 29.5 -70.5q0 -42 -29.5 -71t-70.5 -29q-42 0 -71 29t-29 71q0 41 29 70.5t71 29.5q41 0 70.5 -29.5zM609 1469.5
q29 -29.5 29 -70.5q0 -42 -29 -71t-71 -29q-41 0 -70.5 29t-29.5 71q0 41 29.5 70.5t70.5 29.5q42 0 71 -29.5zM608.5 1270.5q29.5 -29.5 29.5 -70.5t-29.5 -70.5t-70.5 -29.5q-42 0 -71 29.5t-29 70.5t29 70.5t71 29.5q41 0 70.5 -29.5zM270.5 1072q29.5 -29 29.5 -71
q0 -41 -29.5 -70.5t-70.5 -29.5t-70.5 29.5t-29.5 70.5q0 42 29.5 71t70.5 29t70.5 -29zM504 1072q29 -29 29 -71q0 -41 -29 -70.5t-71 -29.5q-41 0 -70.5 29.5t-29.5 70.5q0 42 29.5 71t70.5 29q42 0 71 -29z" />
    <glyph glyph-name="numbersign" unicode="#" horiz-adv-x="1427" 
d="M203 -3q-42 0 -71 29.5t-29 70.5q0 42 29 71t71 29q41 0 70.5 -29t29.5 -71q0 -41 -29.5 -70.5t-70.5 -29.5zM303 199q-41 0 -70.5 29.5t-29.5 70.5q0 42 29.5 71t70.5 29q42 0 71 -29t29 -71q0 -41 -29 -70.5t-71 -29.5zM402 401q-41 0 -70.5 29.5t-29.5 70.5
q0 42 29.5 71t70.5 29q42 0 71 -29t29 -71q0 -41 -29 -70.5t-71 -29.5zM502 600q-42 0 -71 29t-29 71q0 41 29 70.5t71 29.5q41 0 70.5 -29.5t29.5 -70.5q0 -42 -29.5 -71t-70.5 -29zM602 800q-42 0 -71 29.5t-29 70.5q0 42 29 71t71 29q41 0 70.5 -29t29.5 -71
q0 -41 -29.5 -70.5t-70.5 -29.5zM701 1000q-41 0 -70.5 29t-29.5 71q0 41 29.5 70.5t70.5 29.5q42 0 71 -29.5t29 -70.5q0 -42 -29 -71t-71 -29zM801 1198q-41 0 -70.5 29t-29.5 71q0 41 29.5 70.5t70.5 29.5t70.5 -29.5t29.5 -70.5q0 -42 -29.5 -71t-70.5 -29zM701 -2
q-41 0 -70.5 29t-29.5 71q0 41 29.5 70.5t70.5 29.5q42 0 71 -29.5t29 -70.5q0 -42 -29 -71t-71 -29zM802 200q-42 0 -71 29t-29 71q0 41 29 70.5t71 29.5q41 0 70.5 -29.5t29.5 -70.5q0 -42 -29.5 -71t-70.5 -29zM901 402q-42 0 -71 29t-29 71q0 41 29 70.5t71 29.5
q41 0 70.5 -29.5t29.5 -70.5q0 -42 -29.5 -71t-70.5 -29zM1000 600q-41 0 -70.5 29.5t-29.5 70.5q0 42 29.5 71t70.5 29q42 0 71 -29t29 -71q0 -41 -29 -70.5t-71 -29.5zM1100 801q-41 0 -70.5 29t-29.5 71q0 41 29.5 70.5t70.5 29.5q42 0 71 -29.5t29 -70.5q0 -42 -29 -71
t-71 -29zM1200 1000q-42 0 -71 29.5t-29 70.5t29 70.5t71 29.5q41 0 70.5 -29.5t29.5 -70.5t-29.5 -70.5t-70.5 -29.5zM1299 1198q-41 0 -70.5 29.5t-29.5 70.5q0 42 29.5 71t70.5 29q42 0 71 -29t29 -71q0 -41 -29 -70.5t-71 -29.5zM652 402q-42 0 -71 29.5t-29 70.5
t29 70.5t71 29.5q41 0 70.5 -29.5t29.5 -70.5t-29.5 -70.5t-70.5 -29.5zM851 801q-41 0 -70.5 29.5t-29.5 70.5q0 42 29.5 71t70.5 29q42 0 71 -29t29 -71q0 -41 -29 -70.5t-71 -29.5zM1302 801q-42 0 -71 29t-29 71q0 41 29 70.5t71 29.5q41 0 70.5 -29.5t29.5 -70.5
q0 -42 -29.5 -71t-70.5 -29zM1102 401q-41 0 -70.5 29.5t-29.5 70.5q0 42 29.5 71t70.5 29t70.5 -29t29.5 -71q0 -41 -29.5 -70.5t-70.5 -29.5zM400 801q-42 0 -71 29t-29 71q0 41 29 70.5t71 29.5q41 0 70.5 -29.5t29.5 -70.5q0 -42 -29.5 -71t-70.5 -29zM200 402
q-41 0 -70.5 29t-29.5 71q0 41 29.5 70.5t70.5 29.5t70.5 -29.5t29.5 -70.5q0 -42 -29.5 -71t-70.5 -29z" />
    <glyph glyph-name="dollar" unicode="$" horiz-adv-x="1126" 
d="M271 971.5q29 -29.5 29 -70.5t-29 -70.5t-71 -29.5q-41 0 -70.5 29.5t-29.5 70.5t29.5 70.5t70.5 29.5q42 0 71 -29.5zM270.5 1171q29.5 -29 29.5 -71q0 -41 -29.5 -70.5t-70.5 -29.5t-70.5 29.5t-29.5 70.5q0 42 29.5 71t70.5 29t70.5 -29zM469.5 1369.5
q29.5 -29.5 29.5 -70.5q0 -42 -29.5 -71t-70.5 -29q-42 0 -71 29t-29 71q0 41 29 70.5t71 29.5q41 0 70.5 -29.5zM671.5 1370q29.5 -29 29.5 -71q0 -41 -29.5 -70.5t-70.5 -29.5q-42 0 -71 29.5t-29 70.5q0 42 29 71t71 29q41 0 70.5 -29zM870 1369.5q29 -29.5 29 -70.5
q0 -42 -29 -71t-71 -29q-41 0 -70.5 29t-29.5 71q0 41 29.5 70.5t70.5 29.5q42 0 71 -29.5zM1071 1170.5q29 -29.5 29 -70.5t-29 -70.5t-71 -29.5q-41 0 -70.5 29.5t-29.5 70.5t29.5 70.5t70.5 29.5q42 0 71 -29.5zM930.5 429.5q-29.5 29.5 -29.5 70.5q0 42 29.5 71t70.5 29
t70.5 -29t29.5 -71q0 -41 -29.5 -70.5t-70.5 -29.5t-70.5 29.5zM729.5 629.5q-29.5 29.5 -29.5 70.5q0 42 29.5 71t70.5 29q42 0 71 -29t29 -71q0 -41 -29 -70.5t-71 -29.5q-41 0 -70.5 29.5zM930.5 230.5q-29.5 29.5 -29.5 70.5t29.5 70.5t70.5 29.5q42 0 71 -29.5
t29 -70.5t-29 -70.5t-71 -29.5q-41 0 -70.5 29.5zM732 31.5q-29 29.5 -29 70.5q0 42 29 71t71 29q41 0 70.5 -29t29.5 -71q0 -41 -29.5 -70.5t-70.5 -29.5q-42 0 -71 29.5zM529.5 31.5q-29.5 29.5 -29.5 70.5q0 42 29.5 71t70.5 29q42 0 71 -29t29 -71q0 -41 -29 -70.5
t-71 -29.5q-41 0 -70.5 29.5zM331.5 32q-29.5 29 -29.5 71q0 41 29.5 70.5t70.5 29.5q42 0 71 -29.5t29 -70.5q0 -42 -29 -71t-71 -29q-41 0 -70.5 29zM130.5 230.5q-29.5 29.5 -29.5 70.5q0 42 29.5 71t70.5 29q42 0 71 -29t29 -71q0 -41 -29 -70.5t-71 -29.5
q-41 0 -70.5 29.5zM531 629.5q-29 29.5 -29 70.5q0 42 29 71t71 29q41 0 70.5 -29t29.5 -71q0 -41 -29.5 -70.5t-70.5 -29.5q-42 0 -71 29.5zM329 629.5q-29 29.5 -29 70.5q0 42 29 71t71 29q41 0 70.5 -29t29.5 -71q0 -41 -29.5 -70.5t-70.5 -29.5q-42 0 -71 29.5z
M672 1571.5q29 -29.5 29 -70.5q0 -42 -29 -71t-71 -29q-41 0 -70.5 29t-29.5 71q0 41 29.5 70.5t70.5 29.5q42 0 71 -29.5zM530 -170q-29 29 -29 71q0 41 29 70.5t71 29.5q41 0 70.5 -29.5t29.5 -70.5q0 -42 -29.5 -71t-70.5 -29q-42 0 -71 29z" />
    <glyph glyph-name="percent" unicode="%" horiz-adv-x="1724" 
d="M301 -3q-41 0 -70.5 29.5t-29.5 70.5q0 42 29.5 71t70.5 29q42 0 71 -29t29 -71q0 -41 -29 -70.5t-71 -29.5zM801 1200q42 0 71 -29t29 -71q0 -41 -29 -70.5t-71 -29.5q-41 0 -70.5 29.5t-29.5 70.5q0 42 29.5 71t70.5 29zM401 1399q41 0 70.5 -29.5t29.5 -70.5
q0 -42 -29.5 -71t-70.5 -29t-70.5 29t-29.5 71q0 41 29.5 70.5t70.5 29.5zM200 1200q41 0 70.5 -29.5t29.5 -70.5t-29.5 -70.5t-70.5 -29.5t-70.5 29.5t-29.5 70.5t29.5 70.5t70.5 29.5zM400 799q-41 0 -70.5 29.5t-29.5 70.5q0 42 29.5 71t70.5 29q42 0 71 -29t29 -71
q0 -41 -29 -70.5t-71 -29.5zM1202 598q41 0 70.5 -29.5t29.5 -70.5q0 -42 -29.5 -71t-70.5 -29q-42 0 -71 29t-29 71q0 41 29 70.5t71 29.5zM1001 399q41 0 70.5 -29t29.5 -71q0 -41 -29.5 -70.5t-70.5 -29.5q-42 0 -71 29.5t-29 70.5q0 42 29 71t71 29zM1201 -1
q-41 0 -70.5 29t-29.5 71q0 41 29.5 70.5t70.5 29.5t70.5 -29.5t29.5 -70.5q0 -42 -29.5 -71t-70.5 -29zM1599 399q41 0 70.5 -29t29.5 -71q0 -41 -29.5 -70.5t-70.5 -29.5t-70.5 29.5t-29.5 70.5q0 42 29.5 71t70.5 29zM499 199q-41 0 -70.5 29.5t-29.5 70.5q0 42 29.5 71
t70.5 29q42 0 71 -29t29 -71q0 -41 -29 -70.5t-71 -29.5zM701 401q-41 0 -70.5 29.5t-29.5 70.5q0 42 29.5 71t70.5 29q42 0 71 -29t29 -71q0 -41 -29 -70.5t-71 -29.5zM900 600q-41 0 -70.5 29t-29.5 71q0 41 29.5 70.5t70.5 29.5q42 0 71 -29.5t29 -70.5q0 -42 -29 -71
t-71 -29zM1102 800q-41 0 -70.5 29.5t-29.5 70.5q0 42 29.5 71t70.5 29t70.5 -29t29.5 -71q0 -41 -29.5 -70.5t-70.5 -29.5zM1300 1000q-41 0 -70.5 29t-29.5 71q0 41 29.5 70.5t70.5 29.5q42 0 71 -29.5t29 -70.5q0 -42 -29 -71t-71 -29zM1499 1198q-41 0 -70.5 29
t-29.5 71q0 41 29.5 70.5t70.5 29.5q42 0 71 -29.5t29 -70.5q0 -42 -29 -71t-71 -29zM600 1399q42 0 71 -29.5t29 -70.5q0 -42 -29 -71t-71 -29q-41 0 -70.5 29t-29.5 71q0 41 29.5 70.5t70.5 29.5zM599 800q-41 0 -70.5 29t-29.5 71q0 41 29.5 70.5t70.5 29.5
q42 0 71 -29.5t29 -70.5q0 -42 -29 -71t-71 -29zM1401 598q41 0 70.5 -29.5t29.5 -70.5t-29.5 -70.5t-70.5 -29.5q-42 0 -71 29.5t-29 70.5t29 70.5t71 29.5zM1400 -1q-41 0 -70.5 29t-29.5 71q0 41 29.5 70.5t70.5 29.5t70.5 -29.5t29.5 -70.5q0 -42 -29.5 -71t-70.5 -29z
" />
    <glyph glyph-name="ampersand" unicode="&#x26;" horiz-adv-x="1125" 
d="M801 1001q42 0 71 -29.5t29 -70.5t-29 -70.5t-71 -29.5q-41 0 -70.5 29.5t-29.5 70.5t29.5 70.5t70.5 29.5zM802 1399q41 0 70.5 -29.5t29.5 -70.5q0 -42 -29.5 -71t-70.5 -29q-42 0 -71 29t-29 71q0 41 29 70.5t71 29.5zM600 1399q41 0 70.5 -29t29.5 -71
q0 -41 -29.5 -70.5t-70.5 -29.5q-42 0 -71 29.5t-29 70.5q0 42 29 71t71 29zM401 1399q42 0 71 -29.5t29 -70.5q0 -42 -29 -71t-71 -29q-41 0 -70.5 29t-29.5 71q0 41 29.5 70.5t70.5 29.5zM200 1200q42 0 71 -29.5t29 -70.5t-29 -70.5t-71 -29.5q-41 0 -70.5 29.5
t-29.5 70.5t29.5 70.5t70.5 29.5zM599 600q-42 0 -71 29.5t-29 70.5q0 42 29 71t71 29q41 0 70.5 -29t29.5 -71q0 -41 -29.5 -70.5t-70.5 -29.5zM801 600q-41 0 -70.5 29.5t-29.5 70.5q0 42 29.5 71t70.5 29t70.5 -29t29.5 -71q0 -41 -29.5 -70.5t-70.5 -29.5zM731 29.5
q-29 29.5 -29 70.5q0 42 29 71t71 29q41 0 70.5 -29t29.5 -71q0 -41 -29.5 -70.5t-70.5 -29.5q-42 0 -71 29.5zM529 29.5q-29 29.5 -29 70.5t29 70.5t71 29.5q41 0 70.5 -29.5t29.5 -70.5t-29.5 -70.5t-70.5 -29.5q-42 0 -71 29.5zM330.5 30q-29.5 29 -29.5 71
q0 41 29.5 70.5t70.5 29.5q42 0 71 -29.5t29 -70.5q0 -42 -29 -71t-71 -29q-41 0 -70.5 29zM129.5 228.5q-29.5 29.5 -29.5 70.5q0 42 29.5 71t70.5 29q42 0 71 -29t29 -71q0 -41 -29 -70.5t-71 -29.5q-41 0 -70.5 29.5zM401 600q-42 0 -71 29.5t-29 70.5q0 42 29 71t71 29
q41 0 70.5 -29t29.5 -71q0 -41 -29.5 -70.5t-70.5 -29.5zM200 1001q41 0 70.5 -29.5t29.5 -70.5q0 -42 -29.5 -71t-70.5 -29t-70.5 29t-29.5 71q0 41 29.5 70.5t70.5 29.5zM130 430q-29 29 -29 71q0 41 29 70.5t71 29.5q41 0 70.5 -29.5t29.5 -70.5q0 -42 -29.5 -71
t-70.5 -29q-42 0 -71 29zM1000 600q-41 0 -70.5 29.5t-29.5 70.5q0 42 29.5 71t70.5 29t70.5 -29t29.5 -71q0 -41 -29.5 -70.5t-70.5 -29.5zM731 228q-29 29 -29 71q0 41 29 70.5t71 29.5q41 0 70.5 -29.5t29.5 -70.5q0 -42 -29.5 -71t-70.5 -29q-42 0 -71 29zM730.5 429.5
q-29.5 29.5 -29.5 70.5q0 42 29.5 71t70.5 29q42 0 71 -29t29 -71q0 -41 -29 -70.5t-71 -29.5q-41 0 -70.5 29.5z" />
    <glyph glyph-name="quotesingle" unicode="'" horiz-adv-x="426" 
d="M371 1271q29 -29 29 -71q0 -41 -29 -70.5t-71 -29.5q-41 0 -70.5 29.5t-29.5 70.5q0 42 29.5 71t70.5 29q42 0 71 -29zM371.5 1469.5q29.5 -29.5 29.5 -70.5q0 -42 -29.5 -71t-70.5 -29q-42 0 -71 29t-29 71q0 41 29 70.5t71 29.5q41 0 70.5 -29.5zM270.5 1072
q29.5 -29 29.5 -71q0 -41 -29.5 -70.5t-70.5 -29.5t-70.5 29.5t-29.5 70.5q0 42 29.5 71t70.5 29t70.5 -29z" />
    <glyph glyph-name="parenleft" unicode="(" horiz-adv-x="523" 
d="M398 1401q-42 0 -71 29.5t-29 70.5q0 42 29 71t71 29q41 0 70.5 -29t29.5 -71q0 -41 -29.5 -70.5t-70.5 -29.5zM398 -201q-41 0 -70.5 29t-29.5 71q0 41 29.5 70.5t70.5 29.5q42 0 71 -29.5t29 -70.5q0 -42 -29 -71t-71 -29zM200 0q-41 0 -70.5 29.5t-29.5 70.5
q0 42 29.5 71t70.5 29t70.5 -29t29.5 -71q0 -41 -29.5 -70.5t-70.5 -29.5zM200 199q-41 0 -70.5 29.5t-29.5 70.5q0 42 29.5 71t70.5 29q42 0 71 -29t29 -71q0 -41 -29 -70.5t-71 -29.5zM201 401q-42 0 -71 29t-29 71q0 41 29 70.5t71 29.5q41 0 70.5 -29.5t29.5 -70.5
q0 -42 -29.5 -71t-70.5 -29zM201 600q-41 0 -70.5 29t-29.5 71q0 41 29.5 70.5t70.5 29.5q42 0 71 -29.5t29 -70.5q0 -42 -29 -71t-71 -29zM202 798q-42 0 -71 29t-29 71q0 41 29 70.5t71 29.5q41 0 70.5 -29.5t29.5 -70.5q0 -42 -29.5 -71t-70.5 -29zM202 1000
q-41 0 -70.5 29t-29.5 71q0 41 29.5 70.5t70.5 29.5q42 0 71 -29.5t29 -70.5q0 -42 -29 -71t-71 -29zM202 1198q-42 0 -71 29.5t-29 70.5q0 42 29 71t71 29q41 0 70.5 -29t29.5 -71q0 -41 -29.5 -70.5t-70.5 -29.5z" />
    <glyph glyph-name="parenright" unicode=")" horiz-adv-x="523" 
d="M129.5 1430.5q-29.5 29.5 -29.5 70.5q0 42 29.5 71t70.5 29q42 0 71 -29t29 -71q0 -41 -29 -70.5t-71 -29.5q-41 0 -70.5 29.5zM129.5 -172q-29.5 29 -29.5 71q0 41 29.5 70.5t70.5 29.5t70.5 -29.5t29.5 -70.5q0 -42 -29.5 -71t-70.5 -29t-70.5 29zM327.5 29.5
q-29.5 29.5 -29.5 70.5q0 42 29.5 71t70.5 29q42 0 71 -29t29 -71q0 -41 -29 -70.5t-71 -29.5q-41 0 -70.5 29.5zM327 228.5q-29 29.5 -29 70.5q0 42 29 71t71 29q41 0 70.5 -29t29.5 -71q0 -41 -29.5 -70.5t-70.5 -29.5q-42 0 -71 29.5zM326.5 430q-29.5 29 -29.5 71
q0 41 29.5 70.5t70.5 29.5q42 0 71 -29.5t29 -70.5q0 -42 -29 -71t-71 -29q-41 0 -70.5 29zM326 629q-29 29 -29 71q0 41 29 70.5t71 29.5q41 0 70.5 -29.5t29.5 -70.5q0 -42 -29.5 -71t-70.5 -29q-42 0 -71 29zM325.5 827q-29.5 29 -29.5 71q0 41 29.5 70.5t70.5 29.5
q42 0 71 -29.5t29 -70.5q0 -42 -29 -71t-71 -29q-41 0 -70.5 29zM325.5 1029q-29.5 29 -29.5 71q0 41 29.5 70.5t70.5 29.5t70.5 -29.5t29.5 -70.5q0 -42 -29.5 -71t-70.5 -29t-70.5 29zM325.5 1227.5q-29.5 29.5 -29.5 70.5q0 42 29.5 71t70.5 29q42 0 71 -29t29 -71
q0 -41 -29 -70.5t-71 -29.5q-41 0 -70.5 29.5z" />
    <glyph glyph-name="asterisk" unicode="*" horiz-adv-x="722" 
d="M469.5 1322.5q29.5 -29.5 29.5 -70.5q0 -42 -29.5 -71t-70.5 -29q-42 0 -71 29t-29 71q0 41 29 70.5t71 29.5q41 0 70.5 -29.5zM668 1451q29 -29 29 -71q0 -41 -29 -70.5t-71 -29.5q-41 0 -70.5 29.5t-29.5 70.5q0 42 29.5 71t70.5 29q42 0 71 -29zM271 1450.5
q29 -29.5 29 -70.5t-29 -70.5t-71 -29.5q-41 0 -70.5 29.5t-29.5 70.5t29.5 70.5t70.5 29.5q42 0 71 -29.5zM667.5 1202q29.5 -29 29.5 -71q0 -41 -29.5 -70.5t-70.5 -29.5t-70.5 29.5t-29.5 70.5q0 42 29.5 71t70.5 29t70.5 -29zM270.5 1201.5q29.5 -29.5 29.5 -70.5
q0 -42 -29.5 -71t-70.5 -29t-70.5 29t-29.5 71q0 41 29.5 70.5t70.5 29.5t70.5 -29.5zM469.5 1587q29.5 -29 29.5 -71q0 -41 -29.5 -70.5t-70.5 -29.5q-42 0 -71 29.5t-29 70.5q0 42 29 71t71 29q41 0 70.5 -29zM469.5 1070.5q29.5 -29.5 29.5 -70.5q0 -42 -29.5 -71
t-70.5 -29q-42 0 -71 29t-29 71q0 41 29 70.5t71 29.5q41 0 70.5 -29.5z" />
    <glyph glyph-name="plus" unicode="+" horiz-adv-x="1126" 
d="M270.5 673q29.5 -29 29.5 -71q0 -41 -29.5 -70.5t-70.5 -29.5t-70.5 29.5t-29.5 70.5q0 42 29.5 71t70.5 29t70.5 -29zM870 672q29 -29 29 -71q0 -41 -29 -70.5t-71 -29.5q-41 0 -70.5 29.5t-29.5 70.5q0 42 29.5 71t70.5 29q42 0 71 -29zM469.5 672.5
q29.5 -29.5 29.5 -70.5q0 -42 -29.5 -71t-70.5 -29q-42 0 -71 29t-29 71q0 41 29 70.5t71 29.5q41 0 70.5 -29.5zM671.5 672.5q29.5 -29.5 29.5 -70.5q0 -42 -29.5 -71t-70.5 -29q-42 0 -71 29t-29 71q0 41 29 70.5t71 29.5q41 0 70.5 -29.5zM1071.5 672q29.5 -29 29.5 -71
q0 -41 -29.5 -70.5t-70.5 -29.5q-42 0 -71 29.5t-29 70.5q0 42 29 71t71 29q41 0 70.5 -29zM671.5 871.5q29.5 -29.5 29.5 -70.5q0 -42 -29.5 -71t-70.5 -29q-42 0 -71 29t-29 71q0 41 29 70.5t71 29.5q41 0 70.5 -29.5zM671.5 1070q29.5 -29 29.5 -71q0 -41 -29.5 -70.5
t-70.5 -29.5t-70.5 29.5t-29.5 70.5q0 42 29.5 71t70.5 29t70.5 -29zM671.5 471q29.5 -29 29.5 -71q0 -41 -29.5 -70.5t-70.5 -29.5t-70.5 29.5t-29.5 70.5q0 42 29.5 71t70.5 29t70.5 -29zM671.5 272q29.5 -29 29.5 -71q0 -41 -29.5 -70.5t-70.5 -29.5q-42 0 -71 29.5
t-29 70.5q0 42 29 71t71 29q41 0 70.5 -29z" />
    <glyph glyph-name="comma" unicode="," horiz-adv-x="426" 
d="M371 170q29 -29 29 -71q0 -41 -29 -70.5t-71 -29.5q-41 0 -70.5 29.5t-29.5 70.5q0 42 29.5 71t70.5 29q42 0 71 -29zM371.5 368.5q29.5 -29.5 29.5 -70.5q0 -42 -29.5 -71t-70.5 -29q-42 0 -71 29t-29 71q0 41 29 70.5t71 29.5q41 0 70.5 -29.5zM270.5 -29
q29.5 -29 29.5 -71q0 -41 -29.5 -70.5t-70.5 -29.5t-70.5 29.5t-29.5 70.5q0 42 29.5 71t70.5 29t70.5 -29z" />
    <glyph glyph-name="hyphen" unicode="-" horiz-adv-x="924" 
d="M270.5 673q29.5 -29 29.5 -71q0 -41 -29.5 -70.5t-70.5 -29.5t-70.5 29.5t-29.5 70.5q0 42 29.5 71t70.5 29t70.5 -29zM870 672q29 -29 29 -71q0 -41 -29 -70.5t-71 -29.5q-41 0 -70.5 29.5t-29.5 70.5q0 42 29.5 71t70.5 29q42 0 71 -29zM469.5 672.5
q29.5 -29.5 29.5 -70.5q0 -42 -29.5 -71t-70.5 -29q-42 0 -71 29t-29 71q0 41 29 70.5t71 29.5q41 0 70.5 -29.5zM671.5 672.5q29.5 -29.5 29.5 -70.5q0 -42 -29.5 -71t-70.5 -29q-42 0 -71 29t-29 71q0 41 29 70.5t71 29.5q41 0 70.5 -29.5z" />
    <glyph glyph-name="hyphen" unicode="&#xad;" horiz-adv-x="924" 
d="M270.5 673q29.5 -29 29.5 -71q0 -41 -29.5 -70.5t-70.5 -29.5t-70.5 29.5t-29.5 70.5q0 42 29.5 71t70.5 29t70.5 -29zM870 672q29 -29 29 -71q0 -41 -29 -70.5t-71 -29.5q-41 0 -70.5 29.5t-29.5 70.5q0 42 29.5 71t70.5 29q42 0 71 -29zM469.5 672.5
q29.5 -29.5 29.5 -70.5q0 -42 -29.5 -71t-70.5 -29q-42 0 -71 29t-29 71q0 41 29 70.5t71 29.5q41 0 70.5 -29.5zM671.5 672.5q29.5 -29.5 29.5 -70.5q0 -42 -29.5 -71t-70.5 -29q-42 0 -71 29t-29 71q0 41 29 70.5t71 29.5q41 0 70.5 -29.5z" />
    <glyph glyph-name="period" unicode="." horiz-adv-x="325" 
d="M270.5 170q29.5 -29 29.5 -71q0 -41 -29.5 -70.5t-70.5 -29.5t-70.5 29.5t-29.5 70.5q0 42 29.5 71t70.5 29t70.5 -29zM271 368.5q29 -29.5 29 -70.5q0 -42 -29 -71t-71 -29q-41 0 -70.5 29t-29.5 71q0 41 29.5 70.5t70.5 29.5q42 0 71 -29.5z" />
    <glyph glyph-name="slash" unicode="/" horiz-adv-x="925" 
d="M200 -202q-41 0 -70.5 29.5t-29.5 70.5q0 42 29.5 71t70.5 29t70.5 -29t29.5 -71q0 -41 -29.5 -70.5t-70.5 -29.5zM200 -3q-41 0 -70.5 29.5t-29.5 70.5q0 42 29.5 71t70.5 29q42 0 71 -29t29 -71q0 -41 -29 -70.5t-71 -29.5zM399 398q-42 0 -71 29t-29 71q0 41 29 70.5
t71 29.5q41 0 70.5 -29.5t29.5 -70.5q0 -42 -29.5 -71t-70.5 -29zM398 199q-41 0 -70.5 29t-29.5 71q0 41 29.5 70.5t70.5 29.5q42 0 71 -29.5t29 -70.5q0 -42 -29 -71t-71 -29zM598 600q-42 0 -71 29t-29 71q0 41 29 70.5t71 29.5q41 0 70.5 -29.5t29.5 -70.5
q0 -42 -29.5 -71t-70.5 -29zM598 798q-41 0 -70.5 29.5t-29.5 70.5q0 42 29.5 71t70.5 29q42 0 71 -29t29 -71q0 -41 -29 -70.5t-71 -29.5zM800 1199q-41 0 -70.5 29.5t-29.5 70.5q0 42 29.5 71t70.5 29q42 0 71 -29t29 -71q0 -41 -29 -70.5t-71 -29.5zM800 1000
q-42 0 -71 29.5t-29 70.5q0 42 29 71t71 29q41 0 70.5 -29t29.5 -71q0 -41 -29.5 -70.5t-70.5 -29.5z" />
    <glyph glyph-name="zero" unicode="0" 
d="M271 971.5q29 -29.5 29 -70.5t-29 -70.5t-71 -29.5q-41 0 -70.5 29.5t-29.5 70.5t29.5 70.5t70.5 29.5q42 0 71 -29.5zM271 772q29 -29 29 -71q0 -41 -29 -70.5t-71 -29.5q-41 0 -70.5 29.5t-29.5 70.5q0 42 29.5 71t70.5 29q42 0 71 -29zM271 572.5q29 -29.5 29 -70.5
q0 -42 -29 -71t-71 -29q-41 0 -70.5 29t-29.5 71q0 41 29.5 70.5t70.5 29.5q42 0 71 -29.5zM270.5 372.5q29.5 -29.5 29.5 -70.5q0 -42 -29.5 -71t-70.5 -29t-70.5 29t-29.5 71q0 41 29.5 70.5t70.5 29.5t70.5 -29.5zM270.5 1171q29.5 -29 29.5 -71q0 -41 -29.5 -70.5
t-70.5 -29.5t-70.5 29.5t-29.5 70.5q0 42 29.5 71t70.5 29t70.5 -29zM469.5 1369.5q29.5 -29.5 29.5 -70.5q0 -42 -29.5 -71t-70.5 -29q-42 0 -71 29t-29 71q0 41 29 70.5t71 29.5q41 0 70.5 -29.5zM671.5 1370q29.5 -29 29.5 -71q0 -41 -29.5 -70.5t-70.5 -29.5t-70.5 29.5
t-29.5 70.5q0 42 29.5 71t70.5 29t70.5 -29zM870 1369.5q29 -29.5 29 -70.5q0 -42 -29 -71t-71 -29q-41 0 -70.5 29t-29.5 71q0 41 29.5 70.5t70.5 29.5q42 0 71 -29.5zM1071 1170.5q29 -29.5 29 -70.5t-29 -70.5t-71 -29.5q-41 0 -70.5 29.5t-29.5 70.5t29.5 70.5
t70.5 29.5q42 0 71 -29.5zM1072 571.5q29 -29.5 29 -70.5t-29 -70.5t-71 -29.5q-41 0 -70.5 29.5t-29.5 70.5t29.5 70.5t70.5 29.5q42 0 71 -29.5zM1072 373.5q29 -29.5 29 -70.5q0 -42 -29 -71t-71 -29q-41 0 -70.5 29t-29.5 71q0 41 29.5 70.5t70.5 29.5q42 0 71 -29.5z
M870 171q29 -29 29 -71q0 -41 -29 -70.5t-71 -29.5q-41 0 -70.5 29.5t-29.5 70.5q0 42 29.5 71t70.5 29q42 0 71 -29zM469.5 171.5q29.5 -29.5 29.5 -70.5q0 -42 -29.5 -71t-70.5 -29q-42 0 -71 29t-29 71q0 41 29 70.5t71 29.5q41 0 70.5 -29.5zM671.5 171.5
q29.5 -29.5 29.5 -70.5q0 -42 -29.5 -71t-70.5 -29q-42 0 -71 29t-29 71q0 41 29 70.5t71 29.5q41 0 70.5 -29.5zM1072.5 770.5q29.5 -29.5 29.5 -70.5q0 -42 -29.5 -71t-70.5 -29q-42 0 -71 29t-29 71q0 41 29 70.5t71 29.5q41 0 70.5 -29.5zM1072 969.5q29 -29.5 29 -70.5
t-29 -70.5t-71 -29.5q-41 0 -70.5 29.5t-29.5 70.5t29.5 70.5t70.5 29.5q42 0 71 -29.5zM869.5 972q29.5 -29 29.5 -71q0 -41 -29.5 -70.5t-70.5 -29.5q-42 0 -71 29.5t-29 70.5q0 42 29 71t71 29q41 0 70.5 -29zM670.5 770.5q29.5 -29.5 29.5 -70.5q0 -42 -29.5 -71
t-70.5 -29q-42 0 -71 29t-29 71q0 41 29 70.5t71 29.5q41 0 70.5 -29.5zM471.5 571.5q29.5 -29.5 29.5 -70.5t-29.5 -70.5t-70.5 -29.5q-42 0 -71 29.5t-29 70.5t29 70.5t71 29.5q41 0 70.5 -29.5z" />
    <glyph glyph-name="one" unicode="1" horiz-adv-x="1124" 
d="M671.5 971.5q29.5 -29.5 29.5 -70.5t-29.5 -70.5t-70.5 -29.5q-42 0 -71 29.5t-29 70.5t29 70.5t71 29.5q41 0 70.5 -29.5zM671.5 772q29.5 -29 29.5 -71q0 -41 -29.5 -70.5t-70.5 -29.5q-42 0 -71 29.5t-29 70.5q0 42 29 71t71 29q41 0 70.5 -29zM671.5 572.5
q29.5 -29.5 29.5 -70.5q0 -42 -29.5 -71t-70.5 -29q-42 0 -71 29t-29 71q0 41 29 70.5t71 29.5q41 0 70.5 -29.5zM671 372.5q29 -29.5 29 -70.5q0 -42 -29 -71t-71 -29q-41 0 -70.5 29t-29.5 71q0 41 29.5 70.5t70.5 29.5q42 0 71 -29.5zM671 172q29 -29 29 -71
q0 -41 -29 -70.5t-71 -29.5q-41 0 -70.5 29.5t-29.5 70.5q0 42 29.5 71t70.5 29q42 0 71 -29zM671 1171q29 -29 29 -71q0 -41 -29 -70.5t-71 -29.5q-41 0 -70.5 29.5t-29.5 70.5q0 42 29.5 71t70.5 29q42 0 71 -29zM671.5 1369.5q29.5 -29.5 29.5 -70.5q0 -42 -29.5 -71
t-70.5 -29q-42 0 -71 29t-29 71q0 41 29 70.5t71 29.5q41 0 70.5 -29.5zM469.5 1172q29.5 -29 29.5 -71q0 -41 -29.5 -70.5t-70.5 -29.5t-70.5 29.5t-29.5 70.5q0 42 29.5 71t70.5 29t70.5 -29zM470 172q29 -29 29 -71q0 -41 -29 -70.5t-71 -29.5q-41 0 -70.5 29.5
t-29.5 70.5q0 42 29.5 71t70.5 29q42 0 71 -29zM871 171.5q29 -29.5 29 -70.5t-29 -70.5t-71 -29.5q-41 0 -70.5 29.5t-29.5 70.5t29.5 70.5t70.5 29.5q42 0 71 -29.5zM270.5 970q29.5 -29 29.5 -71q0 -41 -29.5 -70.5t-70.5 -29.5t-70.5 29.5t-29.5 70.5q0 42 29.5 71
t70.5 29t70.5 -29zM1070 171.5q29 -29.5 29 -70.5q0 -42 -29 -71t-71 -29q-41 0 -70.5 29t-29.5 71q0 41 29.5 70.5t70.5 29.5q42 0 71 -29.5zM271.5 172q29.5 -29 29.5 -71q0 -41 -29.5 -70.5t-70.5 -29.5q-42 0 -71 29.5t-29 70.5q0 42 29 71t71 29q41 0 70.5 -29z" />
    <glyph glyph-name="two" unicode="2" 
d="M1001 1001q42 0 71 -29.5t29 -70.5t-29 -70.5t-71 -29.5q-41 0 -70.5 29.5t-29.5 70.5t29.5 70.5t70.5 29.5zM1002 1200q41 0 70.5 -29t29.5 -71q0 -41 -29.5 -70.5t-70.5 -29.5q-42 0 -71 29.5t-29 70.5q0 42 29 71t71 29zM803 1399q41 0 70.5 -29.5t29.5 -70.5
q0 -42 -29.5 -71t-70.5 -29q-42 0 -71 29t-29 71q0 41 29 70.5t71 29.5zM601 1399q41 0 70.5 -29t29.5 -71q0 -41 -29.5 -70.5t-70.5 -29.5q-42 0 -71 29.5t-29 70.5q0 42 29 71t71 29zM402 1399q42 0 71 -29.5t29 -70.5q0 -42 -29 -71t-71 -29q-41 0 -70.5 29t-29.5 71
q0 41 29.5 70.5t70.5 29.5zM201 1200q42 0 71 -29.5t29 -70.5t-29 -70.5t-71 -29.5q-41 0 -70.5 29.5t-29.5 70.5t29.5 70.5t70.5 29.5zM201 400q-42 0 -71 29.5t-29 70.5q0 42 29 71t71 29q41 0 70.5 -29t29.5 -71q0 -41 -29.5 -70.5t-70.5 -29.5zM401 600
q-41 0 -70.5 29.5t-29.5 70.5q0 42 29.5 71t70.5 29q42 0 71 -29t29 -71q0 -41 -29 -70.5t-71 -29.5zM200 201q-41 0 -70.5 29.5t-29.5 70.5t29.5 70.5t70.5 29.5q42 0 71 -29.5t29 -70.5t-29 -70.5t-71 -29.5zM399 2q-41 0 -70.5 29.5t-29.5 70.5q0 42 29.5 71t70.5 29
t70.5 -29t29.5 -71q0 -41 -29.5 -70.5t-70.5 -29.5zM601 2q-41 0 -70.5 29.5t-29.5 70.5q0 42 29.5 71t70.5 29t70.5 -29t29.5 -71q0 -41 -29.5 -70.5t-70.5 -29.5zM799 3q-41 0 -70.5 29t-29.5 71q0 41 29.5 70.5t70.5 29.5q42 0 71 -29.5t29 -70.5q0 -42 -29 -71t-71 -29z
M1000 -1q-41 0 -70.5 29.5t-29.5 70.5q0 42 29.5 71t70.5 29q42 0 71 -29t29 -71q0 -41 -29 -70.5t-71 -29.5zM600 600q-42 0 -71 29.5t-29 70.5q0 42 29 71t71 29q41 0 70.5 -29t29.5 -71q0 -41 -29.5 -70.5t-70.5 -29.5zM802 600q-41 0 -70.5 29.5t-29.5 70.5
q0 42 29.5 71t70.5 29t70.5 -29t29.5 -71q0 -41 -29.5 -70.5t-70.5 -29.5zM200 2q-41 0 -70.5 29.5t-29.5 70.5q0 42 29.5 71t70.5 29t70.5 -29t29.5 -71q0 -41 -29.5 -70.5t-70.5 -29.5z" />
    <glyph glyph-name="three" unicode="3" horiz-adv-x="1125" 
d="M1000 1001q41 0 70.5 -29.5t29.5 -70.5t-29.5 -70.5t-70.5 -29.5q-42 0 -71 29.5t-29 70.5t29 70.5t71 29.5zM1000 1200q42 0 71 -29t29 -71q0 -41 -29 -70.5t-71 -29.5q-41 0 -70.5 29.5t-29.5 70.5q0 42 29.5 71t70.5 29zM801 1399q42 0 71 -29.5t29 -70.5
q0 -42 -29 -71t-71 -29q-41 0 -70.5 29t-29.5 71q0 41 29.5 70.5t70.5 29.5zM599 1399q42 0 71 -29t29 -71q0 -41 -29 -70.5t-71 -29.5q-41 0 -70.5 29.5t-29.5 70.5q0 42 29.5 71t70.5 29zM401 1399q41 0 70.5 -29.5t29.5 -70.5q0 -42 -29.5 -71t-70.5 -29t-70.5 29
t-29.5 71q0 41 29.5 70.5t70.5 29.5zM200 1200q41 0 70.5 -29.5t29.5 -70.5t-29.5 -70.5t-70.5 -29.5t-70.5 29.5t-29.5 70.5t29.5 70.5t70.5 29.5zM599 600q-42 0 -71 29.5t-29 70.5q0 42 29 71t71 29q41 0 70.5 -29t29.5 -71q0 -41 -29.5 -70.5t-70.5 -29.5zM801 600
q-42 0 -71 29.5t-29 70.5q0 42 29 71t71 29q41 0 70.5 -29t29.5 -71q0 -41 -29.5 -70.5t-70.5 -29.5zM929 427.5q-29 29.5 -29 70.5q0 42 29 71t71 29q41 0 70.5 -29t29.5 -71q0 -41 -29.5 -70.5t-70.5 -29.5q-42 0 -71 29.5zM929.5 228q-29.5 29 -29.5 71q0 41 29.5 70.5
t70.5 29.5q42 0 71 -29.5t29 -70.5q0 -42 -29 -71t-71 -29q-41 0 -70.5 29zM730.5 29.5q-29.5 29.5 -29.5 70.5q0 42 29.5 71t70.5 29q42 0 71 -29t29 -71q0 -41 -29 -70.5t-71 -29.5q-41 0 -70.5 29.5zM528.5 29.5q-29.5 29.5 -29.5 70.5t29.5 70.5t70.5 29.5
q42 0 71 -29.5t29 -70.5t-29 -70.5t-71 -29.5q-41 0 -70.5 29.5zM330.5 30q-29.5 29 -29.5 71q0 41 29.5 70.5t70.5 29.5t70.5 -29.5t29.5 -70.5q0 -42 -29.5 -71t-70.5 -29t-70.5 29zM129.5 228.5q-29.5 29.5 -29.5 70.5q0 42 29.5 71t70.5 29t70.5 -29t29.5 -71
q0 -41 -29.5 -70.5t-70.5 -29.5t-70.5 29.5z" />
    <glyph glyph-name="four" unicode="4" horiz-adv-x="1124" 
d="M870 971.5q29 -29.5 29 -70.5t-29 -70.5t-71 -29.5q-41 0 -70.5 29.5t-29.5 70.5t29.5 70.5t70.5 29.5q42 0 71 -29.5zM869.5 772q29.5 -29 29.5 -71q0 -41 -29.5 -70.5t-70.5 -29.5q-42 0 -71 29.5t-29 70.5q0 42 29 71t71 29q41 0 70.5 -29zM869.5 572.5
q29.5 -29.5 29.5 -70.5q0 -42 -29.5 -71t-70.5 -29q-42 0 -71 29t-29 71q0 41 29 70.5t71 29.5q41 0 70.5 -29.5zM869.5 372.5q29.5 -29.5 29.5 -70.5q0 -42 -29.5 -71t-70.5 -29q-42 0 -71 29t-29 71q0 41 29 70.5t71 29.5q41 0 70.5 -29.5zM869.5 172q29.5 -29 29.5 -71
q0 -41 -29.5 -70.5t-70.5 -29.5q-42 0 -71 29.5t-29 70.5q0 42 29 71t71 29q41 0 70.5 -29zM869.5 1171q29.5 -29 29.5 -71q0 -41 -29.5 -70.5t-70.5 -29.5q-42 0 -71 29.5t-29 70.5q0 42 29 71t71 29q41 0 70.5 -29zM870 1369.5q29 -29.5 29 -70.5q0 -42 -29 -71t-71 -29
q-41 0 -70.5 29t-29.5 71q0 41 29.5 70.5t70.5 29.5q42 0 71 -29.5zM668 1172q29 -29 29 -71q0 -41 -29 -70.5t-71 -29.5q-41 0 -70.5 29.5t-29.5 70.5q0 42 29.5 71t70.5 29q42 0 71 -29zM1069.5 570.5q29.5 -29.5 29.5 -70.5t-29.5 -70.5t-70.5 -29.5q-42 0 -71 29.5
t-29 70.5t29 70.5t71 29.5q41 0 70.5 -29.5zM469 970q29 -29 29 -71q0 -41 -29 -70.5t-71 -29.5q-41 0 -70.5 29.5t-29.5 70.5q0 42 29.5 71t70.5 29q42 0 71 -29zM668 573q29 -29 29 -71q0 -41 -29 -70.5t-71 -29.5q-41 0 -70.5 29.5t-29.5 70.5q0 42 29.5 71t70.5 29
q42 0 71 -29zM469.5 572.5q29.5 -29.5 29.5 -70.5q0 -42 -29.5 -71t-70.5 -29q-42 0 -71 29t-29 71q0 41 29 70.5t71 29.5q41 0 70.5 -29.5zM271 572.5q29 -29.5 29 -70.5t-29 -70.5t-71 -29.5q-41 0 -70.5 29.5t-29.5 70.5t29.5 70.5t70.5 29.5q42 0 71 -29.5zM270.5 771
q29.5 -29 29.5 -71q0 -41 -29.5 -70.5t-70.5 -29.5t-70.5 29.5t-29.5 70.5q0 42 29.5 71t70.5 29t70.5 -29z" />
    <glyph glyph-name="five" unicode="5" 
d="M930.5 426.5q-29.5 29.5 -29.5 70.5q0 42 29.5 71t70.5 29q42 0 71 -29t29 -71q0 -41 -29 -70.5t-71 -29.5q-41 0 -70.5 29.5zM931 227.5q-29 29.5 -29 70.5t29 70.5t71 29.5q41 0 70.5 -29.5t29.5 -70.5t-29.5 -70.5t-70.5 -29.5q-42 0 -71 29.5zM732 28.5
q-29 29.5 -29 70.5q0 42 29 71t71 29q41 0 70.5 -29t29.5 -71q0 -41 -29.5 -70.5t-70.5 -29.5q-42 0 -71 29.5zM530 28.5q-29 29.5 -29 70.5q0 42 29 71t71 29q41 0 70.5 -29t29.5 -71q0 -41 -29.5 -70.5t-70.5 -29.5q-42 0 -71 29.5zM331.5 29q-29.5 29 -29.5 71
q0 41 29.5 70.5t70.5 29.5q42 0 71 -29.5t29 -70.5q0 -42 -29 -71t-71 -29q-41 0 -70.5 29zM130.5 227.5q-29.5 29.5 -29.5 70.5q0 42 29.5 71t70.5 29q42 0 71 -29t29 -71q0 -41 -29 -70.5t-71 -29.5q-41 0 -70.5 29.5zM271.5 969q29.5 -29 29.5 -71q0 -41 -29.5 -70.5
t-70.5 -29.5q-42 0 -71 29.5t-29 70.5q0 42 29 71t71 29q41 0 70.5 -29zM472 971q29 -29 29 -71q0 -41 -29 -70.5t-71 -29.5q-41 0 -70.5 29.5t-29.5 70.5q0 42 29.5 71t70.5 29q42 0 71 -29zM271 1168q29 -29 29 -71q0 -41 -29 -70.5t-71 -29.5q-41 0 -70.5 29.5
t-29.5 70.5q0 42 29.5 71t70.5 29q42 0 71 -29zM469.5 1366.5q29.5 -29.5 29.5 -70.5q0 -42 -29.5 -71t-70.5 -29t-70.5 29t-29.5 71q0 41 29.5 70.5t70.5 29.5t70.5 -29.5zM671.5 1367q29.5 -29 29.5 -71q0 -41 -29.5 -70.5t-70.5 -29.5t-70.5 29.5t-29.5 70.5
q0 42 29.5 71t70.5 29t70.5 -29zM870 1366.5q29 -29.5 29 -70.5q0 -42 -29 -71t-71 -29q-41 0 -70.5 29t-29.5 71q0 41 29.5 70.5t70.5 29.5q42 0 71 -29.5zM1071 1370q29 -29 29 -71q0 -41 -29 -70.5t-71 -29.5q-41 0 -70.5 29.5t-29.5 70.5q0 42 29.5 71t70.5 29
q42 0 71 -29zM670.5 971q29.5 -29 29.5 -71q0 -41 -29.5 -70.5t-70.5 -29.5q-42 0 -71 29.5t-29 70.5q0 42 29 71t71 29q41 0 70.5 -29zM872.5 970.5q29.5 -29.5 29.5 -70.5q0 -42 -29.5 -71t-70.5 -29t-70.5 29t-29.5 71q0 41 29.5 70.5t70.5 29.5t70.5 -29.5zM270.5 1367
q29.5 -29 29.5 -71q0 -41 -29.5 -70.5t-70.5 -29.5t-70.5 29.5t-29.5 70.5q0 42 29.5 71t70.5 29t70.5 -29zM930 628q-29 29 -29 71q0 41 29 70.5t71 29.5q41 0 70.5 -29.5t29.5 -70.5q0 -42 -29.5 -71t-70.5 -29q-42 0 -71 29z" />
    <glyph glyph-name="six" unicode="6" 
d="M931 426.5q-29 29.5 -29 70.5q0 42 29 71t71 29q41 0 70.5 -29t29.5 -71q0 -41 -29.5 -70.5t-70.5 -29.5q-42 0 -71 29.5zM931.5 227.5q-29.5 29.5 -29.5 70.5t29.5 70.5t70.5 29.5q42 0 71 -29.5t29 -70.5t-29 -70.5t-71 -29.5q-41 0 -70.5 29.5zM732.5 28.5
q-29.5 29.5 -29.5 70.5q0 42 29.5 71t70.5 29q42 0 71 -29t29 -71q0 -41 -29 -70.5t-71 -29.5q-41 0 -70.5 29.5zM530.5 28.5q-29.5 29.5 -29.5 70.5q0 42 29.5 71t70.5 29q42 0 71 -29t29 -71q0 -41 -29 -70.5t-71 -29.5q-41 0 -70.5 29.5zM332 29q-29 29 -29 71
q0 41 29 70.5t71 29.5q41 0 70.5 -29.5t29.5 -70.5q0 -42 -29.5 -71t-70.5 -29q-42 0 -71 29zM131 227.5q-29 29.5 -29 70.5q0 42 29 71t71 29q41 0 70.5 -29t29.5 -71q0 -41 -29.5 -70.5t-70.5 -29.5q-42 0 -71 29.5zM272 969q29 -29 29 -71q0 -41 -29 -70.5t-71 -29.5
q-41 0 -70.5 29.5t-29.5 70.5q0 42 29.5 71t70.5 29q42 0 71 -29zM472.5 772q29.5 -29 29.5 -71q0 -41 -29.5 -70.5t-70.5 -29.5q-42 0 -71 29.5t-29 70.5q0 42 29 71t71 29q41 0 70.5 -29zM271.5 1168q29.5 -29 29.5 -71q0 -41 -29.5 -70.5t-70.5 -29.5q-42 0 -71 29.5
t-29 70.5q0 42 29 71t71 29q41 0 70.5 -29zM470.5 1366.5q29.5 -29.5 29.5 -70.5q0 -42 -29.5 -71t-70.5 -29q-42 0 -71 29t-29 71q0 41 29 70.5t71 29.5q41 0 70.5 -29.5zM672.5 1367q29.5 -29 29.5 -71q0 -41 -29.5 -70.5t-70.5 -29.5q-42 0 -71 29.5t-29 70.5q0 42 29 71
t71 29q41 0 70.5 -29zM870.5 1366.5q29.5 -29.5 29.5 -70.5q0 -42 -29.5 -71t-70.5 -29t-70.5 29t-29.5 71q0 41 29.5 70.5t70.5 29.5t70.5 -29.5zM1071.5 1171q29.5 -29 29.5 -71q0 -41 -29.5 -70.5t-70.5 -29.5t-70.5 29.5t-29.5 70.5q0 42 29.5 71t70.5 29t70.5 -29z
M671 772q29 -29 29 -71q0 -41 -29 -70.5t-71 -29.5q-41 0 -70.5 29.5t-29.5 70.5q0 42 29.5 71t70.5 29q42 0 71 -29zM873.5 771.5q29.5 -29.5 29.5 -70.5q0 -42 -29.5 -71t-70.5 -29q-42 0 -71 29t-29 71q0 41 29 70.5t71 29.5q41 0 70.5 -29.5zM271 570q29 -29 29 -71
q0 -41 -29 -70.5t-71 -29.5q-41 0 -70.5 29.5t-29.5 70.5q0 42 29.5 71t70.5 29q42 0 71 -29zM270.5 772q29.5 -29 29.5 -71q0 -41 -29.5 -70.5t-70.5 -29.5t-70.5 29.5t-29.5 70.5q0 42 29.5 71t70.5 29t70.5 -29z" />
    <glyph glyph-name="seven" unicode="7" horiz-adv-x="1126" 
d="M802 1399q42 0 71 -29.5t29 -70.5q0 -42 -29 -71t-71 -29q-41 0 -70.5 29t-29.5 71q0 41 29.5 70.5t70.5 29.5zM600 1399q42 0 71 -29t29 -71q0 -41 -29 -70.5t-71 -29.5q-41 0 -70.5 29.5t-29.5 70.5q0 42 29.5 71t70.5 29zM402 1399q41 0 70.5 -29.5t29.5 -70.5
q0 -42 -29.5 -71t-70.5 -29q-42 0 -71 29t-29 71q0 41 29 70.5t71 29.5zM200 1398q41 0 70.5 -29t29.5 -71q0 -41 -29.5 -70.5t-70.5 -29.5t-70.5 29.5t-29.5 70.5q0 42 29.5 71t70.5 29zM1001 1398q42 0 71 -29t29 -71q0 -41 -29 -70.5t-71 -29.5q-41 0 -70.5 29.5
t-29.5 70.5q0 42 29.5 71t70.5 29zM1001 1200q41 0 70.5 -29t29.5 -71q0 -41 -29.5 -70.5t-70.5 -29.5q-42 0 -71 29.5t-29 70.5q0 42 29 71t71 29zM602 799q42 0 71 -29.5t29 -70.5q0 -42 -29 -71t-71 -29q-41 0 -70.5 29t-29.5 71q0 41 29.5 70.5t70.5 29.5zM401 401
q41 0 70.5 -29t29.5 -71q0 -41 -29.5 -70.5t-70.5 -29.5q-42 0 -71 29.5t-29 70.5q0 42 29 71t71 29zM400 199q42 0 71 -29t29 -71q0 -41 -29 -70.5t-71 -29.5q-41 0 -70.5 29.5t-29.5 70.5q0 42 29.5 71t70.5 29zM400 600q42 0 71 -29.5t29 -70.5t-29 -70.5t-71 -29.5
q-41 0 -70.5 29.5t-29.5 70.5t29.5 70.5t70.5 29.5zM801 1001q41 0 70.5 -29t29.5 -71q0 -41 -29.5 -70.5t-70.5 -29.5q-42 0 -71 29.5t-29 70.5q0 42 29 71t71 29z" />
    <glyph glyph-name="eight" unicode="8" horiz-adv-x="1126" 
d="M1000 1001q42 0 71 -29.5t29 -70.5t-29 -70.5t-71 -29.5q-41 0 -70.5 29.5t-29.5 70.5t29.5 70.5t70.5 29.5zM1001 1200q41 0 70.5 -29t29.5 -71q0 -41 -29.5 -70.5t-70.5 -29.5q-42 0 -71 29.5t-29 70.5q0 42 29 71t71 29zM802 1399q41 0 70.5 -29.5t29.5 -70.5
q0 -42 -29.5 -71t-70.5 -29q-42 0 -71 29t-29 71q0 41 29 70.5t71 29.5zM600 1399q41 0 70.5 -29t29.5 -71q0 -41 -29.5 -70.5t-70.5 -29.5q-42 0 -71 29.5t-29 70.5q0 42 29 71t71 29zM401 1399q42 0 71 -29.5t29 -70.5q0 -42 -29 -71t-71 -29q-41 0 -70.5 29t-29.5 71
q0 41 29.5 70.5t70.5 29.5zM200 1200q42 0 71 -29.5t29 -70.5t-29 -70.5t-71 -29.5q-41 0 -70.5 29.5t-29.5 70.5t29.5 70.5t70.5 29.5zM599 600q-42 0 -71 29.5t-29 70.5q0 42 29 71t71 29q41 0 70.5 -29t29.5 -71q0 -41 -29.5 -70.5t-70.5 -29.5zM801 600
q-41 0 -70.5 29.5t-29.5 70.5q0 42 29.5 71t70.5 29t70.5 -29t29.5 -71q0 -41 -29.5 -70.5t-70.5 -29.5zM929.5 427.5q-29.5 29.5 -29.5 70.5q0 42 29.5 71t70.5 29q42 0 71 -29t29 -71q0 -41 -29 -70.5t-71 -29.5q-41 0 -70.5 29.5zM930 228q-29 29 -29 71q0 41 29 70.5
t71 29.5q41 0 70.5 -29.5t29.5 -70.5q0 -42 -29.5 -71t-70.5 -29q-42 0 -71 29zM731 29.5q-29 29.5 -29 70.5q0 42 29 71t71 29q41 0 70.5 -29t29.5 -71q0 -41 -29.5 -70.5t-70.5 -29.5q-42 0 -71 29.5zM529 29.5q-29 29.5 -29 70.5t29 70.5t71 29.5q41 0 70.5 -29.5
t29.5 -70.5t-29.5 -70.5t-70.5 -29.5q-42 0 -71 29.5zM330.5 30q-29.5 29 -29.5 71q0 41 29.5 70.5t70.5 29.5q42 0 71 -29.5t29 -70.5q0 -42 -29 -71t-71 -29q-41 0 -70.5 29zM129.5 228.5q-29.5 29.5 -29.5 70.5q0 42 29.5 71t70.5 29q42 0 71 -29t29 -71q0 -41 -29 -70.5
t-71 -29.5q-41 0 -70.5 29.5zM401 600q-42 0 -71 29.5t-29 70.5q0 42 29 71t71 29q41 0 70.5 -29t29.5 -71q0 -41 -29.5 -70.5t-70.5 -29.5zM200 1001q41 0 70.5 -29.5t29.5 -70.5q0 -42 -29.5 -71t-70.5 -29t-70.5 29t-29.5 71q0 41 29.5 70.5t70.5 29.5zM130 430
q-29 29 -29 71q0 41 29 70.5t71 29.5q41 0 70.5 -29.5t29.5 -70.5q0 -42 -29.5 -71t-70.5 -29q-42 0 -71 29z" />
    <glyph glyph-name="nine" unicode="9" 
d="M271 969q29 -29 29 -71q0 -41 -29 -70.5t-71 -29.5q-41 0 -70.5 29.5t-29.5 70.5q0 42 29.5 71t70.5 29q42 0 71 -29zM270.5 1168q29.5 -29 29.5 -71q0 -41 -29.5 -70.5t-70.5 -29.5t-70.5 29.5t-29.5 70.5q0 42 29.5 71t70.5 29t70.5 -29zM469.5 1366.5
q29.5 -29.5 29.5 -70.5q0 -42 -29.5 -71t-70.5 -29q-42 0 -71 29t-29 71q0 41 29 70.5t71 29.5q41 0 70.5 -29.5zM671.5 1367q29.5 -29 29.5 -71q0 -41 -29.5 -70.5t-70.5 -29.5q-42 0 -71 29.5t-29 70.5q0 42 29 71t71 29q41 0 70.5 -29zM870 1366.5q29 -29.5 29 -70.5
q0 -42 -29 -71t-71 -29q-41 0 -70.5 29t-29.5 71q0 41 29.5 70.5t70.5 29.5q42 0 71 -29.5zM1071 1168q29 -29 29 -71q0 -41 -29 -70.5t-71 -29.5q-41 0 -70.5 29.5t-29.5 70.5q0 42 29.5 71t70.5 29q42 0 71 -29zM930.5 426.5q-29.5 29.5 -29.5 70.5q0 42 29.5 71t70.5 29
t70.5 -29t29.5 -71q0 -41 -29.5 -70.5t-70.5 -29.5t-70.5 29.5zM729.5 623.5q-29.5 29.5 -29.5 70.5q0 42 29.5 71t70.5 29q42 0 71 -29t29 -71q0 -41 -29 -70.5t-71 -29.5q-41 0 -70.5 29.5zM930.5 227.5q-29.5 29.5 -29.5 70.5t29.5 70.5t70.5 29.5q42 0 71 -29.5
t29 -70.5t-29 -70.5t-71 -29.5q-41 0 -70.5 29.5zM732 28.5q-29 29.5 -29 70.5q0 42 29 71t71 29q41 0 70.5 -29t29.5 -71q0 -41 -29.5 -70.5t-70.5 -29.5q-42 0 -71 29.5zM529.5 28.5q-29.5 29.5 -29.5 70.5q0 42 29.5 71t70.5 29q42 0 71 -29t29 -71q0 -41 -29 -70.5
t-71 -29.5q-41 0 -70.5 29.5zM331.5 29q-29.5 29 -29.5 71q0 41 29.5 70.5t70.5 29.5q42 0 71 -29.5t29 -70.5q0 -42 -29 -71t-71 -29q-41 0 -70.5 29zM130.5 224.5q-29.5 29.5 -29.5 70.5q0 42 29.5 71t70.5 29q42 0 71 -29t29 -71q0 -41 -29 -70.5t-71 -29.5
q-41 0 -70.5 29.5zM531 623.5q-29 29.5 -29 70.5q0 42 29 71t71 29q41 0 70.5 -29t29.5 -71q0 -41 -29.5 -70.5t-70.5 -29.5q-42 0 -71 29.5zM329 624q-29 29 -29 71q0 41 29 70.5t71 29.5q41 0 70.5 -29.5t29.5 -70.5q0 -42 -29.5 -71t-70.5 -29q-42 0 -71 29zM931 825.5
q-29 29.5 -29 70.5t29 70.5t71 29.5q41 0 70.5 -29.5t29.5 -70.5t-29.5 -70.5t-70.5 -29.5q-42 0 -71 29.5zM931.5 623q-29.5 29 -29.5 71q0 41 29.5 70.5t70.5 29.5q42 0 71 -29.5t29 -70.5q0 -42 -29 -71t-71 -29q-41 0 -70.5 29z" />
    <glyph glyph-name="colon" unicode=":" horiz-adv-x="326" 
d="M271 372q29 -29 29 -71q0 -41 -29 -70.5t-71 -29.5q-41 0 -70.5 29.5t-29.5 70.5q0 42 29.5 71t70.5 29q42 0 71 -29zM271.5 570.5q29.5 -29.5 29.5 -70.5q0 -42 -29.5 -71t-70.5 -29q-42 0 -71 29t-29 71q0 41 29 70.5t71 29.5q41 0 70.5 -29.5zM270.5 971
q29.5 -29 29.5 -71q0 -41 -29.5 -70.5t-70.5 -29.5t-70.5 29.5t-29.5 70.5q0 42 29.5 71t70.5 29t70.5 -29zM271 1169.5q29 -29.5 29 -70.5q0 -42 -29 -71t-71 -29q-41 0 -70.5 29t-29.5 71q0 41 29.5 70.5t70.5 29.5q42 0 71 -29.5z" />
    <glyph glyph-name="semicolon" unicode=";" horiz-adv-x="426" 
d="M371 372q29 -29 29 -71q0 -41 -29 -70.5t-71 -29.5q-41 0 -70.5 29.5t-29.5 70.5q0 42 29.5 71t70.5 29q42 0 71 -29zM371.5 570.5q29.5 -29.5 29.5 -70.5q0 -42 -29.5 -71t-70.5 -29q-42 0 -71 29t-29 71q0 41 29 70.5t71 29.5q41 0 70.5 -29.5zM270.5 173
q29.5 -29 29.5 -71q0 -41 -29.5 -70.5t-70.5 -29.5t-70.5 29.5t-29.5 70.5q0 42 29.5 71t70.5 29t70.5 -29zM370.5 971q29.5 -29 29.5 -71q0 -41 -29.5 -70.5t-70.5 -29.5t-70.5 29.5t-29.5 70.5q0 42 29.5 71t70.5 29t70.5 -29zM371 1169.5q29 -29.5 29 -70.5
q0 -42 -29 -71t-71 -29q-41 0 -70.5 29t-29.5 71q0 41 29.5 70.5t70.5 29.5q42 0 71 -29.5z" />
    <glyph glyph-name="semicolon" unicode="&#x37e;" horiz-adv-x="426" 
d="M371 372q29 -29 29 -71q0 -41 -29 -70.5t-71 -29.5q-41 0 -70.5 29.5t-29.5 70.5q0 42 29.5 71t70.5 29q42 0 71 -29zM371.5 570.5q29.5 -29.5 29.5 -70.5q0 -42 -29.5 -71t-70.5 -29q-42 0 -71 29t-29 71q0 41 29 70.5t71 29.5q41 0 70.5 -29.5zM270.5 173
q29.5 -29 29.5 -71q0 -41 -29.5 -70.5t-70.5 -29.5t-70.5 29.5t-29.5 70.5q0 42 29.5 71t70.5 29t70.5 -29zM370.5 971q29.5 -29 29.5 -71q0 -41 -29.5 -70.5t-70.5 -29.5t-70.5 29.5t-29.5 70.5q0 42 29.5 71t70.5 29t70.5 -29zM371 1169.5q29 -29.5 29 -70.5
q0 -42 -29 -71t-71 -29q-41 0 -70.5 29t-29.5 71q0 41 29.5 70.5t70.5 29.5q42 0 71 -29.5z" />
    <glyph glyph-name="less" unicode="&#x3c;" horiz-adv-x="687" 
d="M270.5 772q29.5 -29 29.5 -71q0 -41 -29.5 -70.5t-70.5 -29.5t-70.5 29.5t-29.5 70.5q0 42 29.5 71t70.5 29t70.5 -29zM430.5 970.5q29.5 -29.5 29.5 -70.5t-29.5 -70.5t-70.5 -29.5q-42 0 -71 29.5t-29 70.5t29 70.5t71 29.5q41 0 70.5 -29.5zM629 1169.5
q29 -29.5 29 -70.5q0 -42 -29 -71t-71 -29q-41 0 -70.5 29t-29.5 71q0 41 29.5 70.5t70.5 29.5q42 0 71 -29.5zM562 398q41 0 70.5 -29.5t29.5 -70.5q0 -42 -29.5 -71t-70.5 -29q-42 0 -71 29t-29 71q0 41 29 70.5t71 29.5zM360 599q41 0 70.5 -29t29.5 -71
q0 -41 -29.5 -70.5t-70.5 -29.5q-42 0 -71 29.5t-29 70.5q0 42 29 71t71 29z" />
    <glyph glyph-name="equal" unicode="=" horiz-adv-x="925" 
d="M271 772q29 -29 29 -71q0 -41 -29 -70.5t-71 -29.5q-41 0 -70.5 29.5t-29.5 70.5q0 42 29.5 71t70.5 29q42 0 71 -29zM870.5 771q29.5 -29 29.5 -71q0 -41 -29.5 -70.5t-70.5 -29.5q-42 0 -71 29.5t-29 70.5q0 42 29 71t71 29q41 0 70.5 -29zM470 771.5
q29 -29.5 29 -70.5q0 -42 -29 -71t-71 -29q-41 0 -70.5 29t-29.5 71q0 41 29.5 70.5t70.5 29.5q42 0 71 -29.5zM672 771.5q29 -29.5 29 -70.5q0 -42 -29 -71t-71 -29q-41 0 -70.5 29t-29.5 71q0 41 29.5 70.5t70.5 29.5q42 0 71 -29.5zM270.5 472.5q29.5 -29.5 29.5 -70.5
q0 -42 -29.5 -71t-70.5 -29t-70.5 29t-29.5 71q0 41 29.5 70.5t70.5 29.5t70.5 -29.5zM870 471.5q29 -29.5 29 -70.5q0 -42 -29 -71t-71 -29q-41 0 -70.5 29t-29.5 71q0 41 29.5 70.5t70.5 29.5q42 0 71 -29.5zM469.5 472q29.5 -29 29.5 -71q0 -41 -29.5 -70.5t-70.5 -29.5
q-42 0 -71 29.5t-29 70.5q0 42 29 71t71 29q41 0 70.5 -29zM671.5 472q29.5 -29 29.5 -71q0 -41 -29.5 -70.5t-70.5 -29.5q-42 0 -71 29.5t-29 70.5q0 42 29 71t71 29q41 0 70.5 -29z" />
    <glyph glyph-name="greater" unicode="&#x3e;" horiz-adv-x="687" 
d="M562 801q41 0 70.5 -29t29.5 -71q0 -41 -29.5 -70.5t-70.5 -29.5q-42 0 -71 29.5t-29 70.5q0 42 29 71t71 29zM402 1000q41 0 70.5 -29.5t29.5 -70.5t-29.5 -70.5t-70.5 -29.5q-42 0 -71 29.5t-29 70.5t29 70.5t71 29.5zM203 1199q42 0 71 -29.5t29 -70.5q0 -42 -29 -71
t-71 -29q-41 0 -70.5 29t-29.5 71q0 41 29.5 70.5t70.5 29.5zM270.5 368.5q29.5 -29.5 29.5 -70.5q0 -42 -29.5 -71t-70.5 -29t-70.5 29t-29.5 71q0 41 29.5 70.5t70.5 29.5t70.5 -29.5zM472.5 570q29.5 -29 29.5 -71q0 -41 -29.5 -70.5t-70.5 -29.5q-42 0 -71 29.5
t-29 70.5q0 42 29 71t71 29q41 0 70.5 -29z" />
    <glyph glyph-name="question" unicode="?" horiz-adv-x="1125" 
d="M1000 1001q41 0 70.5 -29.5t29.5 -70.5t-29.5 -70.5t-70.5 -29.5q-42 0 -71 29.5t-29 70.5t29 70.5t71 29.5zM1000 1200q42 0 71 -29t29 -71q0 -41 -29 -70.5t-71 -29.5q-41 0 -70.5 29.5t-29.5 70.5q0 42 29.5 71t70.5 29zM801 1399q42 0 71 -29.5t29 -70.5
q0 -42 -29 -71t-71 -29q-41 0 -70.5 29t-29.5 71q0 41 29.5 70.5t70.5 29.5zM599 1399q42 0 71 -29t29 -71q0 -41 -29 -70.5t-71 -29.5q-41 0 -70.5 29.5t-29.5 70.5q0 42 29.5 71t70.5 29zM401 1399q41 0 70.5 -29.5t29.5 -70.5q0 -42 -29.5 -71t-70.5 -29t-70.5 29
t-29.5 71q0 41 29.5 70.5t70.5 29.5zM200 1200q41 0 70.5 -29.5t29.5 -70.5t-29.5 -70.5t-70.5 -29.5t-70.5 29.5t-29.5 70.5t29.5 70.5t70.5 29.5zM599 600q-42 0 -71 29.5t-29 70.5q0 42 29 71t71 29q41 0 70.5 -29t29.5 -71q0 -41 -29.5 -70.5t-70.5 -29.5zM801 600
q-42 0 -71 29.5t-29 70.5q0 42 29 71t71 29q41 0 70.5 -29t29.5 -71q0 -41 -29.5 -70.5t-70.5 -29.5zM599 199q-42 0 -71 29.5t-29 70.5q0 42 29 71t71 29q41 0 70.5 -29t29.5 -71q0 -41 -29.5 -70.5t-70.5 -29.5zM599 0q-42 0 -71 29.5t-29 70.5q0 42 29 71t71 29
q41 0 70.5 -29t29.5 -71q0 -41 -29.5 -70.5t-70.5 -29.5z" />
    <glyph glyph-name="at" unicode="@" horiz-adv-x="1326" 
d="M1200 802q42 0 71 -29t29 -71q0 -41 -29 -70.5t-71 -29.5q-41 0 -70.5 29.5t-29.5 70.5q0 42 29.5 71t70.5 29zM1200 603q42 0 71 -29.5t29 -70.5q0 -42 -29 -71t-71 -29q-41 0 -70.5 29t-29.5 71q0 41 29.5 70.5t70.5 29.5zM999 798q41 0 70.5 -29.5t29.5 -70.5
t-29.5 -70.5t-70.5 -29.5q-42 0 -71 29.5t-29 70.5t29 70.5t71 29.5zM800 798q42 0 71 -29.5t29 -70.5q0 -42 -29 -71t-71 -29q-41 0 -70.5 29t-29.5 71q0 41 29.5 70.5t70.5 29.5zM599 599q42 0 71 -29.5t29 -70.5t-29 -70.5t-71 -29.5q-41 0 -70.5 29.5t-29.5 70.5
t29.5 70.5t70.5 29.5zM800 199q42 0 71 -29t29 -71q0 -41 -29 -70.5t-71 -29.5q-41 0 -70.5 29.5t-29.5 70.5q0 42 29.5 71t70.5 29zM999 200q41 0 70.5 -29.5t29.5 -70.5q0 -42 -29.5 -71t-70.5 -29q-42 0 -71 29t-29 71q0 41 29 70.5t71 29.5zM1200 1001q41 0 70.5 -29.5
t29.5 -70.5q0 -42 -29.5 -71t-70.5 -29t-70.5 29t-29.5 71q0 41 29.5 70.5t70.5 29.5zM1200 1199q41 0 70.5 -29t29.5 -71q0 -41 -29.5 -70.5t-70.5 -29.5q-42 0 -71 29.5t-29 70.5q0 42 29 71t71 29zM998 1199q42 0 71 -29.5t29 -70.5t-29 -70.5t-71 -29.5
q-41 0 -70.5 29.5t-29.5 70.5t29.5 70.5t70.5 29.5zM800 1199q41 0 70.5 -29t29.5 -71q0 -41 -29.5 -70.5t-70.5 -29.5q-42 0 -71 29.5t-29 70.5q0 42 29 71t71 29zM601 1199q41 0 70.5 -29.5t29.5 -70.5t-29.5 -70.5t-70.5 -29.5q-42 0 -71 29.5t-29 70.5t29 70.5t71 29.5z
M399 1199q41 0 70.5 -29.5t29.5 -70.5q0 -42 -29.5 -71t-70.5 -29q-42 0 -71 29t-29 71q0 41 29 70.5t71 29.5zM200 1198q42 0 71 -29t29 -71q0 -41 -29 -70.5t-71 -29.5q-41 0 -70.5 29.5t-29.5 70.5q0 42 29.5 71t70.5 29zM200 1002q42 0 71 -29.5t29 -70.5t-29 -70.5
t-71 -29.5q-41 0 -70.5 29.5t-29.5 70.5t29.5 70.5t70.5 29.5zM200 800q41 0 70.5 -29.5t29.5 -70.5t-29.5 -70.5t-70.5 -29.5t-70.5 29.5t-29.5 70.5t29.5 70.5t70.5 29.5zM200 601q41 0 70.5 -29t29.5 -71q0 -41 -29.5 -70.5t-70.5 -29.5t-70.5 29.5t-29.5 70.5
q0 42 29.5 71t70.5 29zM200 403q41 0 70.5 -29.5t29.5 -70.5t-29.5 -70.5t-70.5 -29.5t-70.5 29.5t-29.5 70.5t29.5 70.5t70.5 29.5zM200 201q42 0 71 -29.5t29 -70.5t-29 -70.5t-71 -29.5q-41 0 -70.5 29.5t-29.5 70.5t29.5 70.5t70.5 29.5zM599 400q42 0 71 -29.5
t29 -70.5q0 -42 -29 -71t-71 -29q-41 0 -70.5 29t-29.5 71q0 41 29.5 70.5t70.5 29.5zM1201 401q41 0 70.5 -29.5t29.5 -70.5q0 -42 -29.5 -71t-70.5 -29t-70.5 29t-29.5 71q0 41 29.5 70.5t70.5 29.5zM1201 199q42 0 71 -29.5t29 -70.5q0 -42 -29 -71t-71 -29
q-41 0 -70.5 29t-29.5 71q0 41 29.5 70.5t70.5 29.5zM399 201q41 0 70.5 -29t29.5 -71q0 -41 -29.5 -70.5t-70.5 -29.5q-42 0 -71 29.5t-29 70.5q0 42 29 71t71 29z" />
    <glyph glyph-name="A" unicode="A" horiz-adv-x="1125" 
d="M671 1371.5q29 -29.5 29 -70.5t-29 -70.5t-71 -29.5q-41 0 -70.5 29.5t-29.5 70.5t29.5 70.5t70.5 29.5q42 0 71 -29.5zM871.5 1171.5q29.5 -29.5 29.5 -70.5q0 -42 -29.5 -71t-70.5 -29q-42 0 -71 29t-29 71q0 41 29 70.5t71 29.5q41 0 70.5 -29.5zM471 1171
q29 -29 29 -71q0 -41 -29 -70.5t-71 -29.5q-41 0 -70.5 29.5t-29.5 70.5q0 42 29.5 71t70.5 29q42 0 71 -29zM1071 971.5q29 -29.5 29 -70.5q0 -42 -29 -71t-71 -29q-41 0 -70.5 29t-29.5 71q0 41 29.5 70.5t70.5 29.5q42 0 71 -29.5zM271.5 971.5q29.5 -29.5 29.5 -70.5
t-29.5 -70.5t-70.5 -29.5q-42 0 -71 29.5t-29 70.5t29 70.5t71 29.5q41 0 70.5 -29.5zM271 772q29 -29 29 -71q0 -41 -29 -70.5t-71 -29.5q-41 0 -70.5 29.5t-29.5 70.5q0 42 29.5 71t70.5 29q42 0 71 -29zM1071 771.5q29 -29.5 29 -70.5t-29 -70.5t-71 -29.5
q-41 0 -70.5 29.5t-29.5 70.5t29.5 70.5t70.5 29.5q42 0 71 -29.5zM1071 572q29 -29 29 -71q0 -41 -29 -70.5t-71 -29.5q-41 0 -70.5 29.5t-29.5 70.5q0 42 29.5 71t70.5 29q42 0 71 -29zM271 572.5q29 -29.5 29 -70.5q0 -42 -29 -71t-71 -29q-41 0 -70.5 29t-29.5 71
q0 41 29.5 70.5t70.5 29.5q42 0 71 -29.5zM271 372.5q29 -29.5 29 -70.5q0 -42 -29 -71t-71 -29q-41 0 -70.5 29t-29.5 71q0 41 29.5 70.5t70.5 29.5q42 0 71 -29.5zM1070.5 372.5q29.5 -29.5 29.5 -70.5q0 -42 -29.5 -71t-70.5 -29t-70.5 29t-29.5 71q0 41 29.5 70.5
t70.5 29.5t70.5 -29.5zM1070.5 171.5q29.5 -29.5 29.5 -70.5t-29.5 -70.5t-70.5 -29.5q-42 0 -71 29.5t-29 70.5t29 70.5t71 29.5q41 0 70.5 -29.5zM270.5 172q29.5 -29 29.5 -71q0 -41 -29.5 -70.5t-70.5 -29.5t-70.5 29.5t-29.5 70.5q0 42 29.5 71t70.5 29t70.5 -29z
M871 771.5q29 -29.5 29 -70.5q0 -42 -29 -71t-71 -29q-41 0 -70.5 29t-29.5 71q0 41 29.5 70.5t70.5 29.5q42 0 71 -29.5zM671 771.5q29 -29.5 29 -70.5q0 -42 -29 -71t-71 -29q-41 0 -70.5 29t-29.5 71q0 41 29.5 70.5t70.5 29.5q42 0 71 -29.5zM471 771.5
q29 -29.5 29 -70.5q0 -42 -29 -71t-71 -29q-41 0 -70.5 29t-29.5 71q0 41 29.5 70.5t70.5 29.5q42 0 71 -29.5z" />
    <glyph glyph-name="B" unicode="B" horiz-adv-x="1125" 
d="M271.5 971.5q29.5 -29.5 29.5 -70.5t-29.5 -70.5t-70.5 -29.5q-42 0 -71 29.5t-29 70.5t29 70.5t71 29.5q41 0 70.5 -29.5zM271 772q29 -29 29 -71q0 -41 -29 -70.5t-71 -29.5q-41 0 -70.5 29.5t-29.5 70.5q0 42 29.5 71t70.5 29q42 0 71 -29zM271 572.5
q29 -29.5 29 -70.5q0 -42 -29 -71t-71 -29q-41 0 -70.5 29t-29.5 71q0 41 29.5 70.5t70.5 29.5q42 0 71 -29.5zM271 372.5q29 -29.5 29 -70.5q0 -42 -29 -71t-71 -29q-41 0 -70.5 29t-29.5 71q0 41 29.5 70.5t70.5 29.5q42 0 71 -29.5zM270.5 172q29.5 -29 29.5 -71
q0 -41 -29.5 -70.5t-70.5 -29.5t-70.5 29.5t-29.5 70.5q0 42 29.5 71t70.5 29t70.5 -29zM271 1171q29 -29 29 -71q0 -41 -29 -70.5t-71 -29.5q-41 0 -70.5 29.5t-29.5 70.5q0 42 29.5 71t70.5 29q42 0 71 -29zM271.5 1369.5q29.5 -29.5 29.5 -70.5q0 -42 -29.5 -71
t-70.5 -29q-42 0 -71 29t-29 71q0 41 29 70.5t71 29.5q41 0 70.5 -29.5zM469.5 1369.5q29.5 -29.5 29.5 -70.5q0 -42 -29.5 -71t-70.5 -29t-70.5 29t-29.5 71q0 41 29.5 70.5t70.5 29.5t70.5 -29.5zM671.5 1370q29.5 -29 29.5 -71q0 -41 -29.5 -70.5t-70.5 -29.5t-70.5 29.5
t-29.5 70.5q0 42 29.5 71t70.5 29t70.5 -29zM870 1369.5q29 -29.5 29 -70.5q0 -42 -29 -71t-71 -29q-41 0 -70.5 29t-29.5 71q0 41 29.5 70.5t70.5 29.5q42 0 71 -29.5zM1071 1170.5q29 -29.5 29 -70.5t-29 -70.5t-71 -29.5q-41 0 -70.5 29.5t-29.5 70.5t29.5 70.5
t70.5 29.5q42 0 71 -29.5zM1071 972.5q29 -29.5 29 -70.5q0 -42 -29 -71t-71 -29q-41 0 -70.5 29t-29.5 71q0 41 29.5 70.5t70.5 29.5q42 0 71 -29.5zM469.5 770.5q29.5 -29.5 29.5 -70.5q0 -42 -29.5 -71t-70.5 -29q-42 0 -71 29t-29 71q0 41 29 70.5t71 29.5
q41 0 70.5 -29.5zM671.5 770.5q29.5 -29.5 29.5 -70.5t-29.5 -70.5t-70.5 -29.5t-70.5 29.5t-29.5 70.5t29.5 70.5t70.5 29.5t70.5 -29.5zM870 770.5q29 -29.5 29 -70.5q0 -42 -29 -71t-71 -29q-41 0 -70.5 29t-29.5 71q0 41 29.5 70.5t70.5 29.5q42 0 71 -29.5zM1071 571.5
q29 -29.5 29 -70.5t-29 -70.5t-71 -29.5q-41 0 -70.5 29.5t-29.5 70.5t29.5 70.5t70.5 29.5q42 0 71 -29.5zM1071 373.5q29 -29.5 29 -70.5q0 -42 -29 -71t-71 -29q-41 0 -70.5 29t-29.5 71q0 41 29.5 70.5t70.5 29.5q42 0 71 -29.5zM870 171q29 -29 29 -71q0 -41 -29 -70.5
t-71 -29.5q-41 0 -70.5 29.5t-29.5 70.5q0 42 29.5 71t70.5 29q42 0 71 -29zM469.5 171.5q29.5 -29.5 29.5 -70.5q0 -42 -29.5 -71t-70.5 -29q-42 0 -71 29t-29 71q0 41 29 70.5t71 29.5q41 0 70.5 -29.5zM671.5 171.5q29.5 -29.5 29.5 -70.5q0 -42 -29.5 -71t-70.5 -29
q-42 0 -71 29t-29 71q0 41 29 70.5t71 29.5q41 0 70.5 -29.5z" />
    <glyph glyph-name="C" unicode="C" horiz-adv-x="1126" 
d="M271 971.5q29 -29.5 29 -70.5t-29 -70.5t-71 -29.5q-41 0 -70.5 29.5t-29.5 70.5t29.5 70.5t70.5 29.5q42 0 71 -29.5zM271 772q29 -29 29 -71q0 -41 -29 -70.5t-71 -29.5q-41 0 -70.5 29.5t-29.5 70.5q0 42 29.5 71t70.5 29q42 0 71 -29zM271 572.5q29 -29.5 29 -70.5
q0 -42 -29 -71t-71 -29q-41 0 -70.5 29t-29.5 71q0 41 29.5 70.5t70.5 29.5q42 0 71 -29.5zM270.5 372.5q29.5 -29.5 29.5 -70.5q0 -42 -29.5 -71t-70.5 -29t-70.5 29t-29.5 71q0 41 29.5 70.5t70.5 29.5t70.5 -29.5zM270.5 1171q29.5 -29 29.5 -71q0 -41 -29.5 -70.5
t-70.5 -29.5t-70.5 29.5t-29.5 70.5q0 42 29.5 71t70.5 29t70.5 -29zM469.5 1369.5q29.5 -29.5 29.5 -70.5q0 -42 -29.5 -71t-70.5 -29q-42 0 -71 29t-29 71q0 41 29 70.5t71 29.5q41 0 70.5 -29.5zM671.5 1370q29.5 -29 29.5 -71q0 -41 -29.5 -70.5t-70.5 -29.5t-70.5 29.5
t-29.5 70.5q0 42 29.5 71t70.5 29t70.5 -29zM870 1369.5q29 -29.5 29 -70.5q0 -42 -29 -71t-71 -29q-41 0 -70.5 29t-29.5 71q0 41 29.5 70.5t70.5 29.5q42 0 71 -29.5zM1071 1170.5q29 -29.5 29 -70.5t-29 -70.5t-71 -29.5q-41 0 -70.5 29.5t-29.5 70.5t29.5 70.5
t70.5 29.5q42 0 71 -29.5zM1072 373.5q29 -29.5 29 -70.5q0 -42 -29 -71t-71 -29q-41 0 -70.5 29t-29.5 71q0 41 29.5 70.5t70.5 29.5q42 0 71 -29.5zM870 171q29 -29 29 -71q0 -41 -29 -70.5t-71 -29.5q-41 0 -70.5 29.5t-29.5 70.5q0 42 29.5 71t70.5 29q42 0 71 -29z
M469.5 171.5q29.5 -29.5 29.5 -70.5q0 -42 -29.5 -71t-70.5 -29q-42 0 -71 29t-29 71q0 41 29 70.5t71 29.5q41 0 70.5 -29.5zM671.5 171.5q29.5 -29.5 29.5 -70.5q0 -42 -29.5 -71t-70.5 -29q-42 0 -71 29t-29 71q0 41 29 70.5t71 29.5q41 0 70.5 -29.5z" />
    <glyph glyph-name="D" unicode="D" horiz-adv-x="1126" 
d="M271.5 971.5q29.5 -29.5 29.5 -70.5t-29.5 -70.5t-70.5 -29.5q-42 0 -71 29.5t-29 70.5t29 70.5t71 29.5q41 0 70.5 -29.5zM271 772q29 -29 29 -71q0 -41 -29 -70.5t-71 -29.5q-41 0 -70.5 29.5t-29.5 70.5q0 42 29.5 71t70.5 29q42 0 71 -29zM271 572.5
q29 -29.5 29 -70.5q0 -42 -29 -71t-71 -29q-41 0 -70.5 29t-29.5 71q0 41 29.5 70.5t70.5 29.5q42 0 71 -29.5zM271 372.5q29 -29.5 29 -70.5q0 -42 -29 -71t-71 -29q-41 0 -70.5 29t-29.5 71q0 41 29.5 70.5t70.5 29.5q42 0 71 -29.5zM270.5 172q29.5 -29 29.5 -71
q0 -41 -29.5 -70.5t-70.5 -29.5t-70.5 29.5t-29.5 70.5q0 42 29.5 71t70.5 29t70.5 -29zM271 1171q29 -29 29 -71q0 -41 -29 -70.5t-71 -29.5q-41 0 -70.5 29.5t-29.5 70.5q0 42 29.5 71t70.5 29q42 0 71 -29zM271.5 1369.5q29.5 -29.5 29.5 -70.5q0 -42 -29.5 -71
t-70.5 -29q-42 0 -71 29t-29 71q0 41 29 70.5t71 29.5q41 0 70.5 -29.5zM469.5 1369.5q29.5 -29.5 29.5 -70.5q0 -42 -29.5 -71t-70.5 -29t-70.5 29t-29.5 71q0 41 29.5 70.5t70.5 29.5t70.5 -29.5zM671.5 1370q29.5 -29 29.5 -71q0 -41 -29.5 -70.5t-70.5 -29.5t-70.5 29.5
t-29.5 70.5q0 42 29.5 71t70.5 29t70.5 -29zM870 1369.5q29 -29.5 29 -70.5q0 -42 -29 -71t-71 -29q-41 0 -70.5 29t-29.5 71q0 41 29.5 70.5t70.5 29.5q42 0 71 -29.5zM1071 1170.5q29 -29.5 29 -70.5t-29 -70.5t-71 -29.5q-41 0 -70.5 29.5t-29.5 70.5t29.5 70.5
t70.5 29.5q42 0 71 -29.5zM1071 972.5q29 -29.5 29 -70.5q0 -42 -29 -71t-71 -29q-41 0 -70.5 29t-29.5 71q0 41 29.5 70.5t70.5 29.5q42 0 71 -29.5zM1072 770.5q29 -29.5 29 -70.5q0 -42 -29 -71t-71 -29q-41 0 -70.5 29t-29.5 71q0 41 29.5 70.5t70.5 29.5q42 0 71 -29.5
zM1071 571.5q29 -29.5 29 -70.5t-29 -70.5t-71 -29.5q-41 0 -70.5 29.5t-29.5 70.5t29.5 70.5t70.5 29.5q42 0 71 -29.5zM1071 373.5q29 -29.5 29 -70.5q0 -42 -29 -71t-71 -29q-41 0 -70.5 29t-29.5 71q0 41 29.5 70.5t70.5 29.5q42 0 71 -29.5zM870 171q29 -29 29 -71
q0 -41 -29 -70.5t-71 -29.5q-41 0 -70.5 29.5t-29.5 70.5q0 42 29.5 71t70.5 29q42 0 71 -29zM469.5 171.5q29.5 -29.5 29.5 -70.5q0 -42 -29.5 -71t-70.5 -29q-42 0 -71 29t-29 71q0 41 29 70.5t71 29.5q41 0 70.5 -29.5zM671.5 171.5q29.5 -29.5 29.5 -70.5
q0 -42 -29.5 -71t-70.5 -29q-42 0 -71 29t-29 71q0 41 29 70.5t71 29.5q41 0 70.5 -29.5z" />
    <glyph glyph-name="E" unicode="E" 
d="M271.5 971.5q29.5 -29.5 29.5 -70.5t-29.5 -70.5t-70.5 -29.5q-42 0 -71 29.5t-29 70.5t29 70.5t71 29.5q41 0 70.5 -29.5zM271 772q29 -29 29 -71q0 -41 -29 -70.5t-71 -29.5q-41 0 -70.5 29.5t-29.5 70.5q0 42 29.5 71t70.5 29q42 0 71 -29zM271 572.5
q29 -29.5 29 -70.5q0 -42 -29 -71t-71 -29q-41 0 -70.5 29t-29.5 71q0 41 29.5 70.5t70.5 29.5q42 0 71 -29.5zM271 372.5q29 -29.5 29 -70.5q0 -42 -29 -71t-71 -29q-41 0 -70.5 29t-29.5 71q0 41 29.5 70.5t70.5 29.5q42 0 71 -29.5zM270.5 172q29.5 -29 29.5 -71
q0 -41 -29.5 -70.5t-70.5 -29.5t-70.5 29.5t-29.5 70.5q0 42 29.5 71t70.5 29t70.5 -29zM271 1171q29 -29 29 -71q0 -41 -29 -70.5t-71 -29.5q-41 0 -70.5 29.5t-29.5 70.5q0 42 29.5 71t70.5 29q42 0 71 -29zM271.5 1369.5q29.5 -29.5 29.5 -70.5q0 -42 -29.5 -71
t-70.5 -29q-42 0 -71 29t-29 71q0 41 29 70.5t71 29.5q41 0 70.5 -29.5zM469.5 1369.5q29.5 -29.5 29.5 -70.5q0 -42 -29.5 -71t-70.5 -29t-70.5 29t-29.5 71q0 41 29.5 70.5t70.5 29.5t70.5 -29.5zM671.5 1370q29.5 -29 29.5 -71q0 -41 -29.5 -70.5t-70.5 -29.5t-70.5 29.5
t-29.5 70.5q0 42 29.5 71t70.5 29t70.5 -29zM870 1369.5q29 -29.5 29 -70.5q0 -42 -29 -71t-71 -29q-41 0 -70.5 29t-29.5 71q0 41 29.5 70.5t70.5 29.5q42 0 71 -29.5zM870 171q29 -29 29 -71q0 -41 -29 -70.5t-71 -29.5q-41 0 -70.5 29.5t-29.5 70.5q0 42 29.5 71t70.5 29
q42 0 71 -29zM469.5 171.5q29.5 -29.5 29.5 -70.5q0 -42 -29.5 -71t-70.5 -29q-42 0 -71 29t-29 71q0 41 29 70.5t71 29.5q41 0 70.5 -29.5zM671.5 171.5q29.5 -29.5 29.5 -70.5q0 -42 -29.5 -71t-70.5 -29q-42 0 -71 29t-29 71q0 41 29 70.5t71 29.5q41 0 70.5 -29.5z
M1072.5 1369q29.5 -29 29.5 -71q0 -41 -29.5 -70.5t-70.5 -29.5q-42 0 -71 29.5t-29 70.5q0 42 29 71t71 29q41 0 70.5 -29zM1072 170.5q29 -29.5 29 -70.5t-29 -70.5t-71 -29.5q-41 0 -70.5 29.5t-29.5 70.5t29.5 70.5t70.5 29.5q42 0 71 -29.5zM469.5 771
q29.5 -29 29.5 -71q0 -41 -29.5 -70.5t-70.5 -29.5q-42 0 -71 29.5t-29 70.5q0 42 29 71t71 29q41 0 70.5 -29zM671.5 771q29.5 -29 29.5 -71q0 -41 -29.5 -70.5t-70.5 -29.5q-42 0 -71 29.5t-29 70.5q0 42 29 71t71 29q41 0 70.5 -29zM869.5 770.5q29.5 -29.5 29.5 -70.5
t-29.5 -70.5t-70.5 -29.5t-70.5 29.5t-29.5 70.5t29.5 70.5t70.5 29.5t70.5 -29.5z" />
    <glyph glyph-name="F" unicode="F" 
d="M271.5 971.5q29.5 -29.5 29.5 -70.5t-29.5 -70.5t-70.5 -29.5q-42 0 -71 29.5t-29 70.5t29 70.5t71 29.5q41 0 70.5 -29.5zM271 772q29 -29 29 -71q0 -41 -29 -70.5t-71 -29.5q-41 0 -70.5 29.5t-29.5 70.5q0 42 29.5 71t70.5 29q42 0 71 -29zM271 572.5
q29 -29.5 29 -70.5q0 -42 -29 -71t-71 -29q-41 0 -70.5 29t-29.5 71q0 41 29.5 70.5t70.5 29.5q42 0 71 -29.5zM271 372.5q29 -29.5 29 -70.5q0 -42 -29 -71t-71 -29q-41 0 -70.5 29t-29.5 71q0 41 29.5 70.5t70.5 29.5q42 0 71 -29.5zM270.5 172q29.5 -29 29.5 -71
q0 -41 -29.5 -70.5t-70.5 -29.5t-70.5 29.5t-29.5 70.5q0 42 29.5 71t70.5 29t70.5 -29zM271 1171q29 -29 29 -71q0 -41 -29 -70.5t-71 -29.5q-41 0 -70.5 29.5t-29.5 70.5q0 42 29.5 71t70.5 29q42 0 71 -29zM271.5 1369.5q29.5 -29.5 29.5 -70.5q0 -42 -29.5 -71
t-70.5 -29q-42 0 -71 29t-29 71q0 41 29 70.5t71 29.5q41 0 70.5 -29.5zM469.5 1369.5q29.5 -29.5 29.5 -70.5q0 -42 -29.5 -71t-70.5 -29t-70.5 29t-29.5 71q0 41 29.5 70.5t70.5 29.5t70.5 -29.5zM671.5 1370q29.5 -29 29.5 -71q0 -41 -29.5 -70.5t-70.5 -29.5t-70.5 29.5
t-29.5 70.5q0 42 29.5 71t70.5 29t70.5 -29zM870 1369.5q29 -29.5 29 -70.5q0 -42 -29 -71t-71 -29q-41 0 -70.5 29t-29.5 71q0 41 29.5 70.5t70.5 29.5q42 0 71 -29.5zM1072.5 1369q29.5 -29 29.5 -71q0 -41 -29.5 -70.5t-70.5 -29.5q-42 0 -71 29.5t-29 70.5q0 42 29 71
t71 29q41 0 70.5 -29zM469.5 771q29.5 -29 29.5 -71q0 -41 -29.5 -70.5t-70.5 -29.5q-42 0 -71 29.5t-29 70.5q0 42 29 71t71 29q41 0 70.5 -29zM671.5 771q29.5 -29 29.5 -71q0 -41 -29.5 -70.5t-70.5 -29.5q-42 0 -71 29.5t-29 70.5q0 42 29 71t71 29q41 0 70.5 -29z
M869.5 770.5q29.5 -29.5 29.5 -70.5t-29.5 -70.5t-70.5 -29.5t-70.5 29.5t-29.5 70.5t29.5 70.5t70.5 29.5t70.5 -29.5z" />
    <glyph glyph-name="G" unicode="G" 
d="M271 971.5q29 -29.5 29 -70.5t-29 -70.5t-71 -29.5q-41 0 -70.5 29.5t-29.5 70.5t29.5 70.5t70.5 29.5q42 0 71 -29.5zM271 772q29 -29 29 -71q0 -41 -29 -70.5t-71 -29.5q-41 0 -70.5 29.5t-29.5 70.5q0 42 29.5 71t70.5 29q42 0 71 -29zM271 572.5q29 -29.5 29 -70.5
q0 -42 -29 -71t-71 -29q-41 0 -70.5 29t-29.5 71q0 41 29.5 70.5t70.5 29.5q42 0 71 -29.5zM270.5 372.5q29.5 -29.5 29.5 -70.5q0 -42 -29.5 -71t-70.5 -29t-70.5 29t-29.5 71q0 41 29.5 70.5t70.5 29.5t70.5 -29.5zM270.5 1171q29.5 -29 29.5 -71q0 -41 -29.5 -70.5
t-70.5 -29.5t-70.5 29.5t-29.5 70.5q0 42 29.5 71t70.5 29t70.5 -29zM469.5 1369.5q29.5 -29.5 29.5 -70.5q0 -42 -29.5 -71t-70.5 -29q-42 0 -71 29t-29 71q0 41 29 70.5t71 29.5q41 0 70.5 -29.5zM671.5 1370q29.5 -29 29.5 -71q0 -41 -29.5 -70.5t-70.5 -29.5t-70.5 29.5
t-29.5 70.5q0 42 29.5 71t70.5 29t70.5 -29zM870 1369.5q29 -29.5 29 -70.5q0 -42 -29 -71t-71 -29q-41 0 -70.5 29t-29.5 71q0 41 29.5 70.5t70.5 29.5q42 0 71 -29.5zM1071 1170.5q29 -29.5 29 -70.5t-29 -70.5t-71 -29.5q-41 0 -70.5 29.5t-29.5 70.5t29.5 70.5
t70.5 29.5q42 0 71 -29.5zM1072 571.5q29 -29.5 29 -70.5t-29 -70.5t-71 -29.5q-41 0 -70.5 29.5t-29.5 70.5t29.5 70.5t70.5 29.5q42 0 71 -29.5zM1072 373.5q29 -29.5 29 -70.5q0 -42 -29 -71t-71 -29q-41 0 -70.5 29t-29.5 71q0 41 29.5 70.5t70.5 29.5q42 0 71 -29.5z
M870 171q29 -29 29 -71q0 -41 -29 -70.5t-71 -29.5q-41 0 -70.5 29.5t-29.5 70.5q0 42 29.5 71t70.5 29q42 0 71 -29zM469.5 171.5q29.5 -29.5 29.5 -70.5q0 -42 -29.5 -71t-70.5 -29q-42 0 -71 29t-29 71q0 41 29 70.5t71 29.5q41 0 70.5 -29.5zM671.5 171.5
q29.5 -29.5 29.5 -70.5q0 -42 -29.5 -71t-70.5 -29q-42 0 -71 29t-29 71q0 41 29 70.5t71 29.5q41 0 70.5 -29.5zM870 770q29 -29 29 -71q0 -41 -29 -70.5t-71 -29.5q-41 0 -70.5 29.5t-29.5 70.5q0 42 29.5 71t70.5 29q42 0 71 -29zM671 770q29 -29 29 -71q0 -41 -29 -70.5
t-71 -29.5q-41 0 -70.5 29.5t-29.5 70.5q0 42 29.5 71t70.5 29q42 0 71 -29zM1072.5 770.5q29.5 -29.5 29.5 -70.5q0 -42 -29.5 -71t-70.5 -29q-42 0 -71 29t-29 71q0 41 29 70.5t71 29.5q41 0 70.5 -29.5z" />
    <glyph glyph-name="H" unicode="H" horiz-adv-x="1123" 
d="M271.5 971.5q29.5 -29.5 29.5 -70.5t-29.5 -70.5t-70.5 -29.5q-42 0 -71 29.5t-29 70.5t29 70.5t71 29.5q41 0 70.5 -29.5zM271 772q29 -29 29 -71q0 -41 -29 -70.5t-71 -29.5q-41 0 -70.5 29.5t-29.5 70.5q0 42 29.5 71t70.5 29q42 0 71 -29zM271 572.5
q29 -29.5 29 -70.5q0 -42 -29 -71t-71 -29q-41 0 -70.5 29t-29.5 71q0 41 29.5 70.5t70.5 29.5q42 0 71 -29.5zM271 372.5q29 -29.5 29 -70.5q0 -42 -29 -71t-71 -29q-41 0 -70.5 29t-29.5 71q0 41 29.5 70.5t70.5 29.5q42 0 71 -29.5zM270.5 172q29.5 -29 29.5 -71
q0 -41 -29.5 -70.5t-70.5 -29.5t-70.5 29.5t-29.5 70.5q0 42 29.5 71t70.5 29t70.5 -29zM271 1171q29 -29 29 -71q0 -41 -29 -70.5t-71 -29.5q-41 0 -70.5 29.5t-29.5 70.5q0 42 29.5 71t70.5 29q42 0 71 -29zM271.5 1369.5q29.5 -29.5 29.5 -70.5q0 -42 -29.5 -71
t-70.5 -29q-42 0 -71 29t-29 71q0 41 29 70.5t71 29.5q41 0 70.5 -29.5zM469.5 771q29.5 -29 29.5 -71q0 -41 -29.5 -70.5t-70.5 -29.5q-42 0 -71 29.5t-29 70.5q0 42 29 71t71 29q41 0 70.5 -29zM671.5 771q29.5 -29 29.5 -71q0 -41 -29.5 -70.5t-70.5 -29.5
q-42 0 -71 29.5t-29 70.5q0 42 29 71t71 29q41 0 70.5 -29zM869.5 770.5q29.5 -29.5 29.5 -70.5t-29.5 -70.5t-70.5 -29.5t-70.5 29.5t-29.5 70.5t29.5 70.5t70.5 29.5t70.5 -29.5zM1068.5 972q29.5 -29 29.5 -71q0 -41 -29.5 -70.5t-70.5 -29.5t-70.5 29.5t-29.5 70.5
q0 42 29.5 71t70.5 29t70.5 -29zM1068.5 772q29.5 -29 29.5 -71q0 -41 -29.5 -70.5t-70.5 -29.5q-42 0 -71 29.5t-29 70.5q0 42 29 71t71 29q41 0 70.5 -29zM1068.5 572.5q29.5 -29.5 29.5 -70.5q0 -42 -29.5 -71t-70.5 -29q-42 0 -71 29t-29 71q0 41 29 70.5t71 29.5
q41 0 70.5 -29.5zM1068.5 372.5q29.5 -29.5 29.5 -70.5q0 -42 -29.5 -71t-70.5 -29q-42 0 -71 29t-29 71q0 41 29 70.5t71 29.5q41 0 70.5 -29.5zM1068.5 172q29.5 -29 29.5 -71q0 -41 -29.5 -70.5t-70.5 -29.5q-42 0 -71 29.5t-29 70.5q0 42 29 71t71 29q41 0 70.5 -29z
M1068.5 1171q29.5 -29 29.5 -71q0 -41 -29.5 -70.5t-70.5 -29.5q-42 0 -71 29.5t-29 70.5q0 42 29 71t71 29q41 0 70.5 -29zM1069 1369.5q29 -29.5 29 -70.5t-29 -70.5t-71 -29.5q-41 0 -70.5 29.5t-29.5 70.5t29.5 70.5t70.5 29.5q42 0 71 -29.5z" />
    <glyph glyph-name="I" unicode="I" horiz-adv-x="726" 
d="M472.5 971.5q29.5 -29.5 29.5 -70.5t-29.5 -70.5t-70.5 -29.5q-42 0 -71 29.5t-29 70.5t29 70.5t71 29.5q41 0 70.5 -29.5zM472.5 772q29.5 -29 29.5 -71q0 -41 -29.5 -70.5t-70.5 -29.5q-42 0 -71 29.5t-29 70.5q0 42 29 71t71 29q41 0 70.5 -29zM472 572.5
q29 -29.5 29 -70.5q0 -42 -29 -71t-71 -29q-41 0 -70.5 29t-29.5 71q0 41 29.5 70.5t70.5 29.5q42 0 71 -29.5zM472 372.5q29 -29.5 29 -70.5q0 -42 -29 -71t-71 -29q-41 0 -70.5 29t-29.5 71q0 41 29.5 70.5t70.5 29.5q42 0 71 -29.5zM472 172q29 -29 29 -71
q0 -41 -29 -70.5t-71 -29.5q-41 0 -70.5 29.5t-29.5 70.5q0 42 29.5 71t70.5 29q42 0 71 -29zM472 1171q29 -29 29 -71q0 -41 -29 -70.5t-71 -29.5q-41 0 -70.5 29.5t-29.5 70.5q0 42 29.5 71t70.5 29q42 0 71 -29zM472.5 1369.5q29.5 -29.5 29.5 -70.5q0 -42 -29.5 -71
t-70.5 -29q-42 0 -71 29t-29 71q0 41 29 70.5t71 29.5q41 0 70.5 -29.5zM671.5 1369.5q29.5 -29.5 29.5 -70.5t-29.5 -70.5t-70.5 -29.5q-42 0 -71 29.5t-29 70.5t29 70.5t71 29.5q41 0 70.5 -29.5zM270.5 1370q29.5 -29 29.5 -71q0 -41 -29.5 -70.5t-70.5 -29.5t-70.5 29.5
t-29.5 70.5q0 42 29.5 71t70.5 29t70.5 -29zM271 172q29 -29 29 -71q0 -41 -29 -70.5t-71 -29.5q-41 0 -70.5 29.5t-29.5 70.5q0 42 29.5 71t70.5 29q42 0 71 -29zM672 171.5q29 -29.5 29 -70.5t-29 -70.5t-71 -29.5q-41 0 -70.5 29.5t-29.5 70.5t29.5 70.5t70.5 29.5
q42 0 71 -29.5z" />
    <glyph glyph-name="J" unicode="J" 
d="M1072.5 971.5q29.5 -29.5 29.5 -70.5t-29.5 -70.5t-70.5 -29.5q-42 0 -71 29.5t-29 70.5t29 70.5t71 29.5q41 0 70.5 -29.5zM1072 772q29 -29 29 -71q0 -41 -29 -70.5t-71 -29.5q-41 0 -70.5 29.5t-29.5 70.5q0 42 29.5 71t70.5 29q42 0 71 -29zM1072 572.5
q29 -29.5 29 -70.5q0 -42 -29 -71t-71 -29q-41 0 -70.5 29t-29.5 71q0 41 29.5 70.5t70.5 29.5q42 0 71 -29.5zM1071.5 372.5q29.5 -29.5 29.5 -70.5q0 -42 -29.5 -71t-70.5 -29t-70.5 29t-29.5 71q0 41 29.5 70.5t70.5 29.5t70.5 -29.5zM670.5 172q29.5 -29 29.5 -71
q0 -41 -29.5 -70.5t-70.5 -29.5t-70.5 29.5t-29.5 70.5q0 42 29.5 71t70.5 29t70.5 -29zM1072 1171q29 -29 29 -71q0 -41 -29 -70.5t-71 -29.5q-41 0 -70.5 29.5t-29.5 70.5q0 42 29.5 71t70.5 29q42 0 71 -29zM1072.5 1369.5q29.5 -29.5 29.5 -70.5q0 -42 -29.5 -71
t-70.5 -29q-42 0 -71 29t-29 71q0 41 29 70.5t71 29.5q41 0 70.5 -29.5zM470 172q29 -29 29 -71q0 -41 -29 -70.5t-71 -29.5q-41 0 -70.5 29.5t-29.5 70.5q0 42 29.5 71t70.5 29q42 0 71 -29zM870.5 171.5q29.5 -29.5 29.5 -70.5t-29.5 -70.5t-70.5 -29.5t-70.5 29.5
t-29.5 70.5t29.5 70.5t70.5 29.5t70.5 -29.5zM270.5 371q29.5 -29 29.5 -71q0 -41 -29.5 -70.5t-70.5 -29.5t-70.5 29.5t-29.5 70.5q0 42 29.5 71t70.5 29t70.5 -29z" />
    <glyph glyph-name="K" unicode="K" horiz-adv-x="1126" 
d="M271.5 971.5q29.5 -29.5 29.5 -70.5t-29.5 -70.5t-70.5 -29.5q-42 0 -71 29.5t-29 70.5t29 70.5t71 29.5q41 0 70.5 -29.5zM271 772q29 -29 29 -71q0 -41 -29 -70.5t-71 -29.5q-41 0 -70.5 29.5t-29.5 70.5q0 42 29.5 71t70.5 29q42 0 71 -29zM271 572.5
q29 -29.5 29 -70.5q0 -42 -29 -71t-71 -29q-41 0 -70.5 29t-29.5 71q0 41 29.5 70.5t70.5 29.5q42 0 71 -29.5zM271 372.5q29 -29.5 29 -70.5q0 -42 -29 -71t-71 -29q-41 0 -70.5 29t-29.5 71q0 41 29.5 70.5t70.5 29.5q42 0 71 -29.5zM270.5 172q29.5 -29 29.5 -71
q0 -41 -29.5 -70.5t-70.5 -29.5t-70.5 29.5t-29.5 70.5q0 42 29.5 71t70.5 29t70.5 -29zM271 1171q29 -29 29 -71q0 -41 -29 -70.5t-71 -29.5q-41 0 -70.5 29.5t-29.5 70.5q0 42 29.5 71t70.5 29q42 0 71 -29zM271.5 1369.5q29.5 -29.5 29.5 -70.5q0 -42 -29.5 -71
t-70.5 -29q-42 0 -71 29t-29 71q0 41 29 70.5t71 29.5q41 0 70.5 -29.5zM512 772q29 -29 29 -71q0 -41 -29 -70.5t-71 -29.5q-41 0 -70.5 29.5t-29.5 70.5q0 42 29.5 71t70.5 29q42 0 71 -29zM671.5 970.5q29.5 -29.5 29.5 -70.5t-29.5 -70.5t-70.5 -29.5t-70.5 29.5
t-29.5 70.5t29.5 70.5t70.5 29.5t70.5 -29.5zM870.5 1169.5q29.5 -29.5 29.5 -70.5q0 -42 -29.5 -71t-70.5 -29q-42 0 -71 29t-29 71q0 41 29 70.5t71 29.5q41 0 70.5 -29.5zM1072 1371q29 -29 29 -71q0 -41 -29 -70.5t-71 -29.5q-41 0 -70.5 29.5t-29.5 70.5q0 42 29.5 71
t70.5 29q42 0 71 -29zM1001 199q42 0 71 -29.5t29 -70.5t-29 -70.5t-71 -29.5q-41 0 -70.5 29.5t-29.5 70.5t29.5 70.5t70.5 29.5zM803 398q41 0 70.5 -29.5t29.5 -70.5q0 -42 -29.5 -71t-70.5 -29q-42 0 -71 29t-29 71q0 41 29 70.5t71 29.5zM601 599q41 0 70.5 -29
t29.5 -71q0 -41 -29.5 -70.5t-70.5 -29.5t-70.5 29.5t-29.5 70.5q0 42 29.5 71t70.5 29z" />
    <glyph glyph-name="L" unicode="L" horiz-adv-x="1126" 
d="M271.5 971.5q29.5 -29.5 29.5 -70.5t-29.5 -70.5t-70.5 -29.5q-42 0 -71 29.5t-29 70.5t29 70.5t71 29.5q41 0 70.5 -29.5zM271 772q29 -29 29 -71q0 -41 -29 -70.5t-71 -29.5q-41 0 -70.5 29.5t-29.5 70.5q0 42 29.5 71t70.5 29q42 0 71 -29zM271 572.5
q29 -29.5 29 -70.5q0 -42 -29 -71t-71 -29q-41 0 -70.5 29t-29.5 71q0 41 29.5 70.5t70.5 29.5q42 0 71 -29.5zM271 372.5q29 -29.5 29 -70.5q0 -42 -29 -71t-71 -29q-41 0 -70.5 29t-29.5 71q0 41 29.5 70.5t70.5 29.5q42 0 71 -29.5zM270.5 172q29.5 -29 29.5 -71
q0 -41 -29.5 -70.5t-70.5 -29.5t-70.5 29.5t-29.5 70.5q0 42 29.5 71t70.5 29t70.5 -29zM271 1171q29 -29 29 -71q0 -41 -29 -70.5t-71 -29.5q-41 0 -70.5 29.5t-29.5 70.5q0 42 29.5 71t70.5 29q42 0 71 -29zM271.5 1369.5q29.5 -29.5 29.5 -70.5q0 -42 -29.5 -71
t-70.5 -29q-42 0 -71 29t-29 71q0 41 29 70.5t71 29.5q41 0 70.5 -29.5zM870 171q29 -29 29 -71q0 -41 -29 -70.5t-71 -29.5q-41 0 -70.5 29.5t-29.5 70.5q0 42 29.5 71t70.5 29q42 0 71 -29zM469.5 171.5q29.5 -29.5 29.5 -70.5q0 -42 -29.5 -71t-70.5 -29q-42 0 -71 29
t-29 71q0 41 29 70.5t71 29.5q41 0 70.5 -29.5zM671.5 171.5q29.5 -29.5 29.5 -70.5q0 -42 -29.5 -71t-70.5 -29q-42 0 -71 29t-29 71q0 41 29 70.5t71 29.5q41 0 70.5 -29.5zM1071.5 171q29.5 -29 29.5 -71q0 -41 -29.5 -70.5t-70.5 -29.5q-42 0 -71 29.5t-29 70.5
q0 42 29 71t71 29q41 0 70.5 -29z" />
    <glyph glyph-name="M" unicode="M" horiz-adv-x="1123" 
d="M271.5 971.5q29.5 -29.5 29.5 -70.5t-29.5 -70.5t-70.5 -29.5q-42 0 -71 29.5t-29 70.5t29 70.5t71 29.5q41 0 70.5 -29.5zM271 772q29 -29 29 -71q0 -41 -29 -70.5t-71 -29.5q-41 0 -70.5 29.5t-29.5 70.5q0 42 29.5 71t70.5 29q42 0 71 -29zM271 572.5
q29 -29.5 29 -70.5q0 -42 -29 -71t-71 -29q-41 0 -70.5 29t-29.5 71q0 41 29.5 70.5t70.5 29.5q42 0 71 -29.5zM271 372.5q29 -29.5 29 -70.5q0 -42 -29 -71t-71 -29q-41 0 -70.5 29t-29.5 71q0 41 29.5 70.5t70.5 29.5q42 0 71 -29.5zM270.5 172q29.5 -29 29.5 -71
q0 -41 -29.5 -70.5t-70.5 -29.5t-70.5 29.5t-29.5 70.5q0 42 29.5 71t70.5 29t70.5 -29zM271 1171q29 -29 29 -71q0 -41 -29 -70.5t-71 -29.5q-41 0 -70.5 29.5t-29.5 70.5q0 42 29.5 71t70.5 29q42 0 71 -29zM271.5 1369.5q29.5 -29.5 29.5 -70.5q0 -42 -29.5 -71
t-70.5 -29q-42 0 -71 29t-29 71q0 41 29 70.5t71 29.5q41 0 70.5 -29.5zM469.5 1172q29.5 -29 29.5 -71q0 -41 -29.5 -70.5t-70.5 -29.5q-42 0 -71 29.5t-29 70.5q0 42 29 71t71 29q41 0 70.5 -29zM671.5 771q29.5 -29 29.5 -71q0 -41 -29.5 -70.5t-70.5 -29.5
q-42 0 -71 29.5t-29 70.5q0 42 29 71t71 29q41 0 70.5 -29zM869.5 1171.5q29.5 -29.5 29.5 -70.5t-29.5 -70.5t-70.5 -29.5t-70.5 29.5t-29.5 70.5t29.5 70.5t70.5 29.5t70.5 -29.5zM1068.5 972q29.5 -29 29.5 -71q0 -41 -29.5 -70.5t-70.5 -29.5t-70.5 29.5t-29.5 70.5
q0 42 29.5 71t70.5 29t70.5 -29zM1068.5 772q29.5 -29 29.5 -71q0 -41 -29.5 -70.5t-70.5 -29.5q-42 0 -71 29.5t-29 70.5q0 42 29 71t71 29q41 0 70.5 -29zM1068.5 572.5q29.5 -29.5 29.5 -70.5q0 -42 -29.5 -71t-70.5 -29q-42 0 -71 29t-29 71q0 41 29 70.5t71 29.5
q41 0 70.5 -29.5zM1068.5 372.5q29.5 -29.5 29.5 -70.5q0 -42 -29.5 -71t-70.5 -29q-42 0 -71 29t-29 71q0 41 29 70.5t71 29.5q41 0 70.5 -29.5zM1068.5 172q29.5 -29 29.5 -71q0 -41 -29.5 -70.5t-70.5 -29.5q-42 0 -71 29.5t-29 70.5q0 42 29 71t71 29q41 0 70.5 -29z
M1068.5 1171q29.5 -29 29.5 -71q0 -41 -29.5 -70.5t-70.5 -29.5q-42 0 -71 29.5t-29 70.5q0 42 29 71t71 29q41 0 70.5 -29zM1069 1369.5q29 -29.5 29 -70.5t-29 -70.5t-71 -29.5q-41 0 -70.5 29.5t-29.5 70.5t29.5 70.5t70.5 29.5q42 0 71 -29.5zM671.5 969.5
q29.5 -29.5 29.5 -70.5q0 -42 -29.5 -71t-70.5 -29q-42 0 -71 29t-29 71q0 41 29 70.5t71 29.5q41 0 70.5 -29.5z" />
    <glyph glyph-name="N" unicode="N" horiz-adv-x="1123" 
d="M271.5 971.5q29.5 -29.5 29.5 -70.5t-29.5 -70.5t-70.5 -29.5q-42 0 -71 29.5t-29 70.5t29 70.5t71 29.5q41 0 70.5 -29.5zM271 772q29 -29 29 -71q0 -41 -29 -70.5t-71 -29.5q-41 0 -70.5 29.5t-29.5 70.5q0 42 29.5 71t70.5 29q42 0 71 -29zM271 572.5
q29 -29.5 29 -70.5q0 -42 -29 -71t-71 -29q-41 0 -70.5 29t-29.5 71q0 41 29.5 70.5t70.5 29.5q42 0 71 -29.5zM271 372.5q29 -29.5 29 -70.5q0 -42 -29 -71t-71 -29q-41 0 -70.5 29t-29.5 71q0 41 29.5 70.5t70.5 29.5q42 0 71 -29.5zM270.5 172q29.5 -29 29.5 -71
q0 -41 -29.5 -70.5t-70.5 -29.5t-70.5 29.5t-29.5 70.5q0 42 29.5 71t70.5 29t70.5 -29zM271 1171q29 -29 29 -71q0 -41 -29 -70.5t-71 -29.5q-41 0 -70.5 29.5t-29.5 70.5q0 42 29.5 71t70.5 29q42 0 71 -29zM271.5 1369.5q29.5 -29.5 29.5 -70.5q0 -42 -29.5 -71
t-70.5 -29q-42 0 -71 29t-29 71q0 41 29 70.5t71 29.5q41 0 70.5 -29.5zM469.5 970q29.5 -29 29.5 -71q0 -41 -29.5 -70.5t-70.5 -29.5q-42 0 -71 29.5t-29 70.5q0 42 29 71t71 29q41 0 70.5 -29zM671.5 771q29.5 -29 29.5 -71q0 -41 -29.5 -70.5t-70.5 -29.5
q-42 0 -71 29.5t-29 70.5q0 42 29 71t71 29q41 0 70.5 -29zM869.5 569.5q29.5 -29.5 29.5 -70.5t-29.5 -70.5t-70.5 -29.5t-70.5 29.5t-29.5 70.5t29.5 70.5t70.5 29.5t70.5 -29.5zM1068.5 972q29.5 -29 29.5 -71q0 -41 -29.5 -70.5t-70.5 -29.5t-70.5 29.5t-29.5 70.5
q0 42 29.5 71t70.5 29t70.5 -29zM1068.5 772q29.5 -29 29.5 -71q0 -41 -29.5 -70.5t-70.5 -29.5q-42 0 -71 29.5t-29 70.5q0 42 29 71t71 29q41 0 70.5 -29zM1068.5 572.5q29.5 -29.5 29.5 -70.5q0 -42 -29.5 -71t-70.5 -29q-42 0 -71 29t-29 71q0 41 29 70.5t71 29.5
q41 0 70.5 -29.5zM1068.5 372.5q29.5 -29.5 29.5 -70.5q0 -42 -29.5 -71t-70.5 -29q-42 0 -71 29t-29 71q0 41 29 70.5t71 29.5q41 0 70.5 -29.5zM1068.5 172q29.5 -29 29.5 -71q0 -41 -29.5 -70.5t-70.5 -29.5q-42 0 -71 29.5t-29 70.5q0 42 29 71t71 29q41 0 70.5 -29z
M1068.5 1171q29.5 -29 29.5 -71q0 -41 -29.5 -70.5t-70.5 -29.5q-42 0 -71 29.5t-29 70.5q0 42 29 71t71 29q41 0 70.5 -29zM1069 1369.5q29 -29.5 29 -70.5t-29 -70.5t-71 -29.5q-41 0 -70.5 29.5t-29.5 70.5t29.5 70.5t70.5 29.5q42 0 71 -29.5z" />
    <glyph glyph-name="O" unicode="O" 
d="M271 971.5q29 -29.5 29 -70.5t-29 -70.5t-71 -29.5q-41 0 -70.5 29.5t-29.5 70.5t29.5 70.5t70.5 29.5q42 0 71 -29.5zM271 772q29 -29 29 -71q0 -41 -29 -70.5t-71 -29.5q-41 0 -70.5 29.5t-29.5 70.5q0 42 29.5 71t70.5 29q42 0 71 -29zM271 572.5q29 -29.5 29 -70.5
q0 -42 -29 -71t-71 -29q-41 0 -70.5 29t-29.5 71q0 41 29.5 70.5t70.5 29.5q42 0 71 -29.5zM270.5 372.5q29.5 -29.5 29.5 -70.5q0 -42 -29.5 -71t-70.5 -29t-70.5 29t-29.5 71q0 41 29.5 70.5t70.5 29.5t70.5 -29.5zM270.5 1171q29.5 -29 29.5 -71q0 -41 -29.5 -70.5
t-70.5 -29.5t-70.5 29.5t-29.5 70.5q0 42 29.5 71t70.5 29t70.5 -29zM469.5 1369.5q29.5 -29.5 29.5 -70.5q0 -42 -29.5 -71t-70.5 -29q-42 0 -71 29t-29 71q0 41 29 70.5t71 29.5q41 0 70.5 -29.5zM671.5 1370q29.5 -29 29.5 -71q0 -41 -29.5 -70.5t-70.5 -29.5t-70.5 29.5
t-29.5 70.5q0 42 29.5 71t70.5 29t70.5 -29zM870 1369.5q29 -29.5 29 -70.5q0 -42 -29 -71t-71 -29q-41 0 -70.5 29t-29.5 71q0 41 29.5 70.5t70.5 29.5q42 0 71 -29.5zM1071 1170.5q29 -29.5 29 -70.5t-29 -70.5t-71 -29.5q-41 0 -70.5 29.5t-29.5 70.5t29.5 70.5
t70.5 29.5q42 0 71 -29.5zM1072 571.5q29 -29.5 29 -70.5t-29 -70.5t-71 -29.5q-41 0 -70.5 29.5t-29.5 70.5t29.5 70.5t70.5 29.5q42 0 71 -29.5zM1072 373.5q29 -29.5 29 -70.5q0 -42 -29 -71t-71 -29q-41 0 -70.5 29t-29.5 71q0 41 29.5 70.5t70.5 29.5q42 0 71 -29.5z
M870 171q29 -29 29 -71q0 -41 -29 -70.5t-71 -29.5q-41 0 -70.5 29.5t-29.5 70.5q0 42 29.5 71t70.5 29q42 0 71 -29zM469.5 171.5q29.5 -29.5 29.5 -70.5q0 -42 -29.5 -71t-70.5 -29q-42 0 -71 29t-29 71q0 41 29 70.5t71 29.5q41 0 70.5 -29.5zM671.5 171.5
q29.5 -29.5 29.5 -70.5q0 -42 -29.5 -71t-70.5 -29q-42 0 -71 29t-29 71q0 41 29 70.5t71 29.5q41 0 70.5 -29.5zM1072.5 770.5q29.5 -29.5 29.5 -70.5q0 -42 -29.5 -71t-70.5 -29q-42 0 -71 29t-29 71q0 41 29 70.5t71 29.5q41 0 70.5 -29.5zM1072 969.5q29 -29.5 29 -70.5
t-29 -70.5t-71 -29.5q-41 0 -70.5 29.5t-29.5 70.5t29.5 70.5t70.5 29.5q42 0 71 -29.5z" />
    <glyph glyph-name="P" unicode="P" 
d="M271.5 971.5q29.5 -29.5 29.5 -70.5t-29.5 -70.5t-70.5 -29.5q-42 0 -71 29.5t-29 70.5t29 70.5t71 29.5q41 0 70.5 -29.5zM271 772q29 -29 29 -71q0 -41 -29 -70.5t-71 -29.5q-41 0 -70.5 29.5t-29.5 70.5q0 42 29.5 71t70.5 29q42 0 71 -29zM271 572.5
q29 -29.5 29 -70.5q0 -42 -29 -71t-71 -29q-41 0 -70.5 29t-29.5 71q0 41 29.5 70.5t70.5 29.5q42 0 71 -29.5zM271 372.5q29 -29.5 29 -70.5q0 -42 -29 -71t-71 -29q-41 0 -70.5 29t-29.5 71q0 41 29.5 70.5t70.5 29.5q42 0 71 -29.5zM271 1171q29 -29 29 -71
q0 -41 -29 -70.5t-71 -29.5q-41 0 -70.5 29.5t-29.5 70.5q0 42 29.5 71t70.5 29q42 0 71 -29zM470 1369.5q29 -29.5 29 -70.5q0 -42 -29 -71t-71 -29q-41 0 -70.5 29t-29.5 71q0 41 29.5 70.5t70.5 29.5q42 0 71 -29.5zM672 1370q29 -29 29 -71q0 -41 -29 -70.5t-71 -29.5
q-41 0 -70.5 29.5t-29.5 70.5q0 42 29.5 71t70.5 29q42 0 71 -29zM870.5 1369.5q29.5 -29.5 29.5 -70.5q0 -42 -29.5 -71t-70.5 -29q-42 0 -71 29t-29 71q0 41 29 70.5t71 29.5q41 0 70.5 -29.5zM1071.5 1170.5q29.5 -29.5 29.5 -70.5t-29.5 -70.5t-70.5 -29.5
q-42 0 -71 29.5t-29 70.5t29 70.5t71 29.5q41 0 70.5 -29.5zM270.5 171.5q29.5 -29.5 29.5 -70.5q0 -42 -29.5 -71t-70.5 -29t-70.5 29t-29.5 71q0 41 29.5 70.5t70.5 29.5t70.5 -29.5zM1072.5 969.5q29.5 -29.5 29.5 -70.5t-29.5 -70.5t-70.5 -29.5q-42 0 -71 29.5
t-29 70.5t29 70.5t71 29.5q41 0 70.5 -29.5zM271 1370q29 -29 29 -71q0 -41 -29 -70.5t-71 -29.5q-41 0 -70.5 29.5t-29.5 70.5q0 42 29.5 71t70.5 29q42 0 71 -29zM870.5 770.5q29.5 -29.5 29.5 -70.5t-29.5 -70.5t-70.5 -29.5q-42 0 -71 29.5t-29 70.5t29 70.5t71 29.5
q41 0 70.5 -29.5zM672 771q29 -29 29 -71q0 -41 -29 -70.5t-71 -29.5q-41 0 -70.5 29.5t-29.5 70.5q0 42 29.5 71t70.5 29q42 0 71 -29zM470 771q29 -29 29 -71q0 -41 -29 -70.5t-71 -29.5q-41 0 -70.5 29.5t-29.5 70.5q0 42 29.5 71t70.5 29q42 0 71 -29z" />
    <glyph glyph-name="Q" unicode="Q" 
d="M271 971.5q29 -29.5 29 -70.5t-29 -70.5t-71 -29.5q-41 0 -70.5 29.5t-29.5 70.5t29.5 70.5t70.5 29.5q42 0 71 -29.5zM271 772q29 -29 29 -71q0 -41 -29 -70.5t-71 -29.5q-41 0 -70.5 29.5t-29.5 70.5q0 42 29.5 71t70.5 29q42 0 71 -29zM271 572.5q29 -29.5 29 -70.5
q0 -42 -29 -71t-71 -29q-41 0 -70.5 29t-29.5 71q0 41 29.5 70.5t70.5 29.5q42 0 71 -29.5zM270.5 372.5q29.5 -29.5 29.5 -70.5q0 -42 -29.5 -71t-70.5 -29t-70.5 29t-29.5 71q0 41 29.5 70.5t70.5 29.5t70.5 -29.5zM270.5 1171q29.5 -29 29.5 -71q0 -41 -29.5 -70.5
t-70.5 -29.5t-70.5 29.5t-29.5 70.5q0 42 29.5 71t70.5 29t70.5 -29zM469.5 1369.5q29.5 -29.5 29.5 -70.5q0 -42 -29.5 -71t-70.5 -29q-42 0 -71 29t-29 71q0 41 29 70.5t71 29.5q41 0 70.5 -29.5zM671.5 1370q29.5 -29 29.5 -71q0 -41 -29.5 -70.5t-70.5 -29.5t-70.5 29.5
t-29.5 70.5q0 42 29.5 71t70.5 29t70.5 -29zM870 1369.5q29 -29.5 29 -70.5q0 -42 -29 -71t-71 -29q-41 0 -70.5 29t-29.5 71q0 41 29.5 70.5t70.5 29.5q42 0 71 -29.5zM1071 1170.5q29 -29.5 29 -70.5t-29 -70.5t-71 -29.5q-41 0 -70.5 29.5t-29.5 70.5t29.5 70.5
t70.5 29.5q42 0 71 -29.5zM1072 571.5q29 -29.5 29 -70.5t-29 -70.5t-71 -29.5q-41 0 -70.5 29.5t-29.5 70.5t29.5 70.5t70.5 29.5q42 0 71 -29.5zM1072 373.5q29 -29.5 29 -70.5q0 -42 -29 -71t-71 -29q-41 0 -70.5 29t-29.5 71q0 41 29.5 70.5t70.5 29.5q42 0 71 -29.5z
M870 171q29 -29 29 -71q0 -41 -29 -70.5t-71 -29.5q-41 0 -70.5 29.5t-29.5 70.5q0 42 29.5 71t70.5 29q42 0 71 -29zM469.5 171.5q29.5 -29.5 29.5 -70.5q0 -42 -29.5 -71t-70.5 -29q-42 0 -71 29t-29 71q0 41 29 70.5t71 29.5q41 0 70.5 -29.5zM671.5 171.5
q29.5 -29.5 29.5 -70.5q0 -42 -29.5 -71t-70.5 -29q-42 0 -71 29t-29 71q0 41 29 70.5t71 29.5q41 0 70.5 -29.5zM1072.5 770.5q29.5 -29.5 29.5 -70.5q0 -42 -29.5 -71t-70.5 -29q-42 0 -71 29t-29 71q0 41 29 70.5t71 29.5q41 0 70.5 -29.5zM1072 969.5q29 -29.5 29 -70.5
t-29 -70.5t-71 -29.5q-41 0 -70.5 29.5t-29.5 70.5t29.5 70.5t70.5 29.5q42 0 71 -29.5zM671 370q29 -29 29 -71q0 -41 -29 -70.5t-71 -29.5q-41 0 -70.5 29.5t-29.5 70.5q0 42 29.5 71t70.5 29q42 0 71 -29zM671.5 -30.5q29.5 -29.5 29.5 -70.5q0 -42 -29.5 -71t-70.5 -29
q-42 0 -71 29t-29 71q0 41 29 70.5t71 29.5q41 0 70.5 -29.5z" />
    <glyph glyph-name="R" unicode="R" 
d="M271.5 971.5q29.5 -29.5 29.5 -70.5t-29.5 -70.5t-70.5 -29.5q-42 0 -71 29.5t-29 70.5t29 70.5t71 29.5q41 0 70.5 -29.5zM271 772q29 -29 29 -71q0 -41 -29 -70.5t-71 -29.5q-41 0 -70.5 29.5t-29.5 70.5q0 42 29.5 71t70.5 29q42 0 71 -29zM271 572.5
q29 -29.5 29 -70.5q0 -42 -29 -71t-71 -29q-41 0 -70.5 29t-29.5 71q0 41 29.5 70.5t70.5 29.5q42 0 71 -29.5zM271 372.5q29 -29.5 29 -70.5q0 -42 -29 -71t-71 -29q-41 0 -70.5 29t-29.5 71q0 41 29.5 70.5t70.5 29.5q42 0 71 -29.5zM271 1171q29 -29 29 -71
q0 -41 -29 -70.5t-71 -29.5q-41 0 -70.5 29.5t-29.5 70.5q0 42 29.5 71t70.5 29q42 0 71 -29zM470 1369.5q29 -29.5 29 -70.5q0 -42 -29 -71t-71 -29q-41 0 -70.5 29t-29.5 71q0 41 29.5 70.5t70.5 29.5q42 0 71 -29.5zM672 1370q29 -29 29 -71q0 -41 -29 -70.5t-71 -29.5
q-41 0 -70.5 29.5t-29.5 70.5q0 42 29.5 71t70.5 29q42 0 71 -29zM870.5 1369.5q29.5 -29.5 29.5 -70.5q0 -42 -29.5 -71t-70.5 -29q-42 0 -71 29t-29 71q0 41 29 70.5t71 29.5q41 0 70.5 -29.5zM1071.5 1170.5q29.5 -29.5 29.5 -70.5t-29.5 -70.5t-70.5 -29.5
q-42 0 -71 29.5t-29 70.5t29 70.5t71 29.5q41 0 70.5 -29.5zM270.5 171.5q29.5 -29.5 29.5 -70.5q0 -42 -29.5 -71t-70.5 -29t-70.5 29t-29.5 71q0 41 29.5 70.5t70.5 29.5t70.5 -29.5zM1072.5 969.5q29.5 -29.5 29.5 -70.5t-29.5 -70.5t-70.5 -29.5q-42 0 -71 29.5
t-29 70.5t29 70.5t71 29.5q41 0 70.5 -29.5zM271 1370q29 -29 29 -71q0 -41 -29 -70.5t-71 -29.5q-41 0 -70.5 29.5t-29.5 70.5q0 42 29.5 71t70.5 29q42 0 71 -29zM870.5 770.5q29.5 -29.5 29.5 -70.5t-29.5 -70.5t-70.5 -29.5q-42 0 -71 29.5t-29 70.5t29 70.5t71 29.5
q41 0 70.5 -29.5zM672 771q29 -29 29 -71q0 -41 -29 -70.5t-71 -29.5q-41 0 -70.5 29.5t-29.5 70.5q0 42 29.5 71t70.5 29q42 0 71 -29zM470 771q29 -29 29 -71q0 -41 -29 -70.5t-71 -29.5q-41 0 -70.5 29.5t-29.5 70.5q0 42 29.5 71t70.5 29q42 0 71 -29zM671.5 572.5
q29.5 -29.5 29.5 -70.5q0 -42 -29.5 -71t-70.5 -29q-42 0 -71 29t-29 71q0 41 29 70.5t71 29.5q41 0 70.5 -29.5zM870 370.5q29 -29.5 29 -70.5q0 -42 -29 -71t-71 -29q-41 0 -70.5 29t-29.5 71q0 41 29.5 70.5t70.5 29.5q42 0 71 -29.5zM1071.5 171q29.5 -29 29.5 -71
q0 -41 -29.5 -70.5t-70.5 -29.5q-42 0 -71 29.5t-29 70.5q0 42 29 71t71 29q41 0 70.5 -29z" />
    <glyph glyph-name="S" unicode="S" horiz-adv-x="1126" 
d="M271 971.5q29 -29.5 29 -70.5t-29 -70.5t-71 -29.5q-41 0 -70.5 29.5t-29.5 70.5t29.5 70.5t70.5 29.5q42 0 71 -29.5zM270.5 1171q29.5 -29 29.5 -71q0 -41 -29.5 -70.5t-70.5 -29.5t-70.5 29.5t-29.5 70.5q0 42 29.5 71t70.5 29t70.5 -29zM469.5 1369.5
q29.5 -29.5 29.5 -70.5q0 -42 -29.5 -71t-70.5 -29q-42 0 -71 29t-29 71q0 41 29 70.5t71 29.5q41 0 70.5 -29.5zM671.5 1370q29.5 -29 29.5 -71q0 -41 -29.5 -70.5t-70.5 -29.5q-42 0 -71 29.5t-29 70.5q0 42 29 71t71 29q41 0 70.5 -29zM870 1369.5q29 -29.5 29 -70.5
q0 -42 -29 -71t-71 -29q-41 0 -70.5 29t-29.5 71q0 41 29.5 70.5t70.5 29.5q42 0 71 -29.5zM1071 1170.5q29 -29.5 29 -70.5t-29 -70.5t-71 -29.5q-41 0 -70.5 29.5t-29.5 70.5t29.5 70.5t70.5 29.5q42 0 71 -29.5zM930.5 429.5q-29.5 29.5 -29.5 70.5q0 42 29.5 71t70.5 29
t70.5 -29t29.5 -71q0 -41 -29.5 -70.5t-70.5 -29.5t-70.5 29.5zM729.5 629.5q-29.5 29.5 -29.5 70.5q0 42 29.5 71t70.5 29q42 0 71 -29t29 -71q0 -41 -29 -70.5t-71 -29.5q-41 0 -70.5 29.5zM930.5 230.5q-29.5 29.5 -29.5 70.5t29.5 70.5t70.5 29.5q42 0 71 -29.5
t29 -70.5t-29 -70.5t-71 -29.5q-41 0 -70.5 29.5zM732 31.5q-29 29.5 -29 70.5q0 42 29 71t71 29q41 0 70.5 -29t29.5 -71q0 -41 -29.5 -70.5t-70.5 -29.5q-42 0 -71 29.5zM529.5 31.5q-29.5 29.5 -29.5 70.5q0 42 29.5 71t70.5 29q42 0 71 -29t29 -71q0 -41 -29 -70.5
t-71 -29.5q-41 0 -70.5 29.5zM331.5 32q-29.5 29 -29.5 71q0 41 29.5 70.5t70.5 29.5q42 0 71 -29.5t29 -70.5q0 -42 -29 -71t-71 -29q-41 0 -70.5 29zM130.5 230.5q-29.5 29.5 -29.5 70.5q0 42 29.5 71t70.5 29q42 0 71 -29t29 -71q0 -41 -29 -70.5t-71 -29.5
q-41 0 -70.5 29.5zM531 629.5q-29 29.5 -29 70.5q0 42 29 71t71 29q41 0 70.5 -29t29.5 -71q0 -41 -29.5 -70.5t-70.5 -29.5q-42 0 -71 29.5zM329 629.5q-29 29.5 -29 70.5q0 42 29 71t71 29q41 0 70.5 -29t29.5 -71q0 -41 -29.5 -70.5t-70.5 -29.5q-42 0 -71 29.5z" />
    <glyph glyph-name="T" unicode="T" horiz-adv-x="1123" 
d="M671 971.5q29 -29.5 29 -70.5t-29 -70.5t-71 -29.5q-41 0 -70.5 29.5t-29.5 70.5t29.5 70.5t70.5 29.5q42 0 71 -29.5zM670.5 772q29.5 -29 29.5 -71q0 -41 -29.5 -70.5t-70.5 -29.5t-70.5 29.5t-29.5 70.5q0 42 29.5 71t70.5 29t70.5 -29zM670.5 572.5
q29.5 -29.5 29.5 -70.5q0 -42 -29.5 -71t-70.5 -29q-42 0 -71 29t-29 71q0 41 29 70.5t71 29.5q41 0 70.5 -29.5zM670.5 372.5q29.5 -29.5 29.5 -70.5q0 -42 -29.5 -71t-70.5 -29q-42 0 -71 29t-29 71q0 41 29 70.5t71 29.5q41 0 70.5 -29.5zM670.5 172q29.5 -29 29.5 -71
q0 -41 -29.5 -70.5t-70.5 -29.5q-42 0 -71 29.5t-29 70.5q0 42 29 71t71 29q41 0 70.5 -29zM670.5 1171q29.5 -29 29.5 -71q0 -41 -29.5 -70.5t-70.5 -29.5q-42 0 -71 29.5t-29 70.5q0 42 29 71t71 29q41 0 70.5 -29zM671 1369.5q29 -29.5 29 -70.5q0 -42 -29 -71t-71 -29
q-41 0 -70.5 29t-29.5 71q0 41 29.5 70.5t70.5 29.5q42 0 71 -29.5zM870 1369.5q29 -29.5 29 -70.5t-29 -70.5t-71 -29.5q-41 0 -70.5 29.5t-29.5 70.5t29.5 70.5t70.5 29.5q42 0 71 -29.5zM469 1370q29 -29 29 -71q0 -41 -29 -70.5t-71 -29.5q-41 0 -70.5 29.5t-29.5 70.5
q0 42 29.5 71t70.5 29q42 0 71 -29zM1069 1370q29 -29 29 -71q0 -41 -29 -70.5t-71 -29.5q-41 0 -70.5 29.5t-29.5 70.5q0 42 29.5 71t70.5 29q42 0 71 -29zM270.5 1370q29.5 -29 29.5 -71q0 -41 -29.5 -70.5t-70.5 -29.5t-70.5 29.5t-29.5 70.5q0 42 29.5 71t70.5 29
t70.5 -29z" />
    <glyph glyph-name="U" unicode="U" 
d="M271.5 971.5q29.5 -29.5 29.5 -70.5t-29.5 -70.5t-70.5 -29.5q-42 0 -71 29.5t-29 70.5t29 70.5t71 29.5q41 0 70.5 -29.5zM271 772q29 -29 29 -71q0 -41 -29 -70.5t-71 -29.5q-41 0 -70.5 29.5t-29.5 70.5q0 42 29.5 71t70.5 29q42 0 71 -29zM271 572.5
q29 -29.5 29 -70.5q0 -42 -29 -71t-71 -29q-41 0 -70.5 29t-29.5 71q0 41 29.5 70.5t70.5 29.5q42 0 71 -29.5zM270.5 372.5q29.5 -29.5 29.5 -70.5q0 -42 -29.5 -71t-70.5 -29t-70.5 29t-29.5 71q0 41 29.5 70.5t70.5 29.5t70.5 -29.5zM271 1171q29 -29 29 -71
q0 -41 -29 -70.5t-71 -29.5q-41 0 -70.5 29.5t-29.5 70.5q0 42 29.5 71t70.5 29q42 0 71 -29zM1071 1170.5q29 -29.5 29 -70.5t-29 -70.5t-71 -29.5q-41 0 -70.5 29.5t-29.5 70.5t29.5 70.5t70.5 29.5q42 0 71 -29.5zM1072 571.5q29 -29.5 29 -70.5t-29 -70.5t-71 -29.5
q-41 0 -70.5 29.5t-29.5 70.5t29.5 70.5t70.5 29.5q42 0 71 -29.5zM1072 373.5q29 -29.5 29 -70.5q0 -42 -29 -71t-71 -29q-41 0 -70.5 29t-29.5 71q0 41 29.5 70.5t70.5 29.5q42 0 71 -29.5zM870 171q29 -29 29 -71q0 -41 -29 -70.5t-71 -29.5q-41 0 -70.5 29.5t-29.5 70.5
q0 42 29.5 71t70.5 29q42 0 71 -29zM469.5 171.5q29.5 -29.5 29.5 -70.5q0 -42 -29.5 -71t-70.5 -29q-42 0 -71 29t-29 71q0 41 29 70.5t71 29.5q41 0 70.5 -29.5zM671.5 171.5q29.5 -29.5 29.5 -70.5q0 -42 -29.5 -71t-70.5 -29q-42 0 -71 29t-29 71q0 41 29 70.5t71 29.5
q41 0 70.5 -29.5zM1072.5 770.5q29.5 -29.5 29.5 -70.5q0 -42 -29.5 -71t-70.5 -29q-42 0 -71 29t-29 71q0 41 29 70.5t71 29.5q41 0 70.5 -29.5zM1072 969.5q29 -29.5 29 -70.5t-29 -70.5t-71 -29.5q-41 0 -70.5 29.5t-29.5 70.5t29.5 70.5t70.5 29.5q42 0 71 -29.5z
M270.5 1369.5q29.5 -29.5 29.5 -70.5q0 -42 -29.5 -71t-70.5 -29t-70.5 29t-29.5 71q0 41 29.5 70.5t70.5 29.5t70.5 -29.5zM1071 1369q29 -29 29 -71q0 -41 -29 -70.5t-71 -29.5q-41 0 -70.5 29.5t-29.5 70.5q0 42 29.5 71t70.5 29q42 0 71 -29z" />
    <glyph glyph-name="V" unicode="V" 
d="M271.5 971.5q29.5 -29.5 29.5 -70.5t-29.5 -70.5t-70.5 -29.5q-42 0 -71 29.5t-29 70.5t29 70.5t71 29.5q41 0 70.5 -29.5zM271 772q29 -29 29 -71q0 -41 -29 -70.5t-71 -29.5q-41 0 -70.5 29.5t-29.5 70.5q0 42 29.5 71t70.5 29q42 0 71 -29zM271 572.5
q29 -29.5 29 -70.5q0 -42 -29 -71t-71 -29q-41 0 -70.5 29t-29.5 71q0 41 29.5 70.5t70.5 29.5q42 0 71 -29.5zM271 1171q29 -29 29 -71q0 -41 -29 -70.5t-71 -29.5q-41 0 -70.5 29.5t-29.5 70.5q0 42 29.5 71t70.5 29q42 0 71 -29zM1071 1170.5q29 -29.5 29 -70.5
t-29 -70.5t-71 -29.5q-41 0 -70.5 29.5t-29.5 70.5t29.5 70.5t70.5 29.5q42 0 71 -29.5zM1072 571.5q29 -29.5 29 -70.5t-29 -70.5t-71 -29.5q-41 0 -70.5 29.5t-29.5 70.5t29.5 70.5t70.5 29.5q42 0 71 -29.5zM671.5 171.5q29.5 -29.5 29.5 -70.5q0 -42 -29.5 -71
t-70.5 -29q-42 0 -71 29t-29 71q0 41 29 70.5t71 29.5q41 0 70.5 -29.5zM1072.5 770.5q29.5 -29.5 29.5 -70.5q0 -42 -29.5 -71t-70.5 -29q-42 0 -71 29t-29 71q0 41 29 70.5t71 29.5q41 0 70.5 -29.5zM1072 969.5q29 -29.5 29 -70.5t-29 -70.5t-71 -29.5q-41 0 -70.5 29.5
t-29.5 70.5t29.5 70.5t70.5 29.5q42 0 71 -29.5zM270.5 1369.5q29.5 -29.5 29.5 -70.5q0 -42 -29.5 -71t-70.5 -29t-70.5 29t-29.5 71q0 41 29.5 70.5t70.5 29.5t70.5 -29.5zM1071 1369q29 -29 29 -71q0 -41 -29 -70.5t-71 -29.5q-41 0 -70.5 29.5t-29.5 70.5q0 42 29.5 71
t70.5 29q42 0 71 -29zM469.5 370q29.5 -29 29.5 -71q0 -41 -29.5 -70.5t-70.5 -29.5q-42 0 -71 29.5t-29 70.5q0 42 29 71t71 29q41 0 70.5 -29zM869.5 370q29.5 -29 29.5 -71q0 -41 -29.5 -70.5t-70.5 -29.5t-70.5 29.5t-29.5 70.5q0 42 29.5 71t70.5 29t70.5 -29z" />
    <glyph glyph-name="W" unicode="W" horiz-adv-x="1123" 
d="M201 399q-42 0 -71 29.5t-29 70.5q0 42 29 71t71 29q41 0 70.5 -29t29.5 -71q0 -41 -29.5 -70.5t-70.5 -29.5zM200 599q-41 0 -70.5 29t-29.5 71q0 41 29.5 70.5t70.5 29.5q42 0 71 -29.5t29 -70.5q0 -42 -29 -71t-71 -29zM200 799q-41 0 -70.5 29t-29.5 71
q0 41 29.5 70.5t70.5 29.5q42 0 71 -29.5t29 -70.5q0 -42 -29 -71t-71 -29zM200 998q-41 0 -70.5 29.5t-29.5 70.5q0 42 29.5 71t70.5 29q42 0 71 -29t29 -71q0 -41 -29 -70.5t-71 -29.5zM200 1199q-41 0 -70.5 29t-29.5 71q0 41 29.5 70.5t70.5 29.5t70.5 -29.5t29.5 -70.5
q0 -42 -29.5 -71t-70.5 -29zM200 200q-41 0 -70.5 29t-29.5 71q0 41 29.5 70.5t70.5 29.5q42 0 71 -29.5t29 -70.5q0 -42 -29 -71t-71 -29zM399 1q-42 0 -71 29.5t-29 70.5q0 42 29 71t71 29q41 0 70.5 -29t29.5 -71q0 -41 -29.5 -70.5t-70.5 -29.5zM601 399q-42 0 -71 29
t-29 71q0 41 29 70.5t71 29.5q41 0 70.5 -29.5t29.5 -70.5q0 -42 -29.5 -71t-70.5 -29zM998 399q-41 0 -70.5 29.5t-29.5 70.5t29.5 70.5t70.5 29.5t70.5 -29.5t29.5 -70.5t-29.5 -70.5t-70.5 -29.5zM998 599q-42 0 -71 29t-29 71q0 41 29 70.5t71 29.5q41 0 70.5 -29.5
t29.5 -70.5q0 -42 -29.5 -71t-70.5 -29zM998 798q-42 0 -71 29.5t-29 70.5q0 42 29 71t71 29q41 0 70.5 -29t29.5 -71q0 -41 -29.5 -70.5t-70.5 -29.5zM998 998q-42 0 -71 29.5t-29 70.5q0 42 29 71t71 29q41 0 70.5 -29t29.5 -71q0 -41 -29.5 -70.5t-70.5 -29.5zM998 1199
q-42 0 -71 29t-29 71q0 41 29 70.5t71 29.5q41 0 70.5 -29.5t29.5 -70.5q0 -42 -29.5 -71t-70.5 -29zM998 200q-42 0 -71 29t-29 71q0 41 29 70.5t71 29.5q41 0 70.5 -29.5t29.5 -70.5q0 -42 -29.5 -71t-70.5 -29zM799 1q-41 0 -70.5 29.5t-29.5 70.5q0 42 29.5 71t70.5 29
q42 0 71 -29t29 -71q0 -41 -29 -70.5t-71 -29.5zM601 200q-42 0 -71 29.5t-29 70.5q0 42 29 71t71 29q41 0 70.5 -29t29.5 -71q0 -41 -29.5 -70.5t-70.5 -29.5zM601 601q-42 0 -71 29t-29 71q0 41 29 70.5t71 29.5q41 0 70.5 -29.5t29.5 -70.5q0 -42 -29.5 -71t-70.5 -29z
" />
    <glyph glyph-name="X" unicode="X" horiz-adv-x="1123" 
d="M200 998q-41 0 -70.5 29.5t-29.5 70.5q0 42 29.5 71t70.5 29q42 0 71 -29t29 -71q0 -41 -29 -70.5t-71 -29.5zM200 1199q-41 0 -70.5 29t-29.5 71q0 41 29.5 70.5t70.5 29.5t70.5 -29.5t29.5 -70.5q0 -42 -29.5 -71t-70.5 -29zM998 998q-42 0 -71 29.5t-29 70.5
q0 42 29 71t71 29q41 0 70.5 -29t29.5 -71q0 -41 -29.5 -70.5t-70.5 -29.5zM998 1199q-42 0 -71 29t-29 71q0 41 29 70.5t71 29.5q41 0 70.5 -29.5t29.5 -70.5q0 -42 -29.5 -71t-70.5 -29zM398 799q-41 0 -70.5 29.5t-29.5 70.5q0 42 29.5 71t70.5 29t70.5 -29t29.5 -71
q0 -41 -29.5 -70.5t-70.5 -29.5zM802 799q-41 0 -70.5 29.5t-29.5 70.5q0 42 29.5 71t70.5 29q42 0 71 -29t29 -71q0 -41 -29 -70.5t-71 -29.5zM600 600q-41 0 -70.5 29.5t-29.5 70.5q0 42 29.5 71t70.5 29t70.5 -29t29.5 -71q0 -41 -29.5 -70.5t-70.5 -29.5zM271 372.5
q29 -29.5 29 -70.5q0 -42 -29 -71t-71 -29q-41 0 -70.5 29t-29.5 71q0 41 29.5 70.5t70.5 29.5q42 0 71 -29.5zM270.5 172q29.5 -29 29.5 -71q0 -41 -29.5 -70.5t-70.5 -29.5t-70.5 29.5t-29.5 70.5q0 42 29.5 71t70.5 29t70.5 -29zM1068.5 372.5q29.5 -29.5 29.5 -70.5
q0 -42 -29.5 -71t-70.5 -29q-42 0 -71 29t-29 71q0 41 29 70.5t71 29.5q41 0 70.5 -29.5zM1068.5 172q29.5 -29 29.5 -71q0 -41 -29.5 -70.5t-70.5 -29.5q-42 0 -71 29.5t-29 70.5q0 42 29 71t71 29q41 0 70.5 -29zM468.5 571.5q29.5 -29.5 29.5 -70.5q0 -42 -29.5 -71
t-70.5 -29t-70.5 29t-29.5 71q0 41 29.5 70.5t70.5 29.5t70.5 -29.5zM873 571.5q29 -29.5 29 -70.5t-29 -70.5t-71 -29.5q-41 0 -70.5 29.5t-29.5 70.5t29.5 70.5t70.5 29.5q42 0 71 -29.5z" />
    <glyph glyph-name="Y" unicode="Y" horiz-adv-x="1123" 
d="M200 998q-41 0 -70.5 29.5t-29.5 70.5q0 42 29.5 71t70.5 29q42 0 71 -29t29 -71q0 -41 -29 -70.5t-71 -29.5zM200 1199q-41 0 -70.5 29t-29.5 71q0 41 29.5 70.5t70.5 29.5t70.5 -29.5t29.5 -70.5q0 -42 -29.5 -71t-70.5 -29zM998 998q-42 0 -71 29.5t-29 70.5
q0 42 29 71t71 29q41 0 70.5 -29t29.5 -71q0 -41 -29.5 -70.5t-70.5 -29.5zM998 1199q-42 0 -71 29t-29 71q0 41 29 70.5t71 29.5q41 0 70.5 -29.5t29.5 -70.5q0 -42 -29.5 -71t-70.5 -29zM398 799q-41 0 -70.5 29.5t-29.5 70.5q0 42 29.5 71t70.5 29t70.5 -29t29.5 -71
q0 -41 -29.5 -70.5t-70.5 -29.5zM802 799q-41 0 -70.5 29.5t-29.5 70.5q0 42 29.5 71t70.5 29q42 0 71 -29t29 -71q0 -41 -29 -70.5t-71 -29.5zM600 600q-41 0 -70.5 29.5t-29.5 70.5q0 42 29.5 71t70.5 29t70.5 -29t29.5 -71q0 -41 -29.5 -70.5t-70.5 -29.5zM600 402
q-41 0 -70.5 29t-29.5 71q0 41 29.5 70.5t70.5 29.5q42 0 71 -29.5t29 -70.5q0 -42 -29 -71t-71 -29zM600 200q-41 0 -70.5 29t-29.5 71q0 41 29.5 70.5t70.5 29.5q42 0 71 -29.5t29 -70.5q0 -42 -29 -71t-71 -29zM600 1q-41 0 -70.5 29t-29.5 71q0 41 29.5 70.5t70.5 29.5
q42 0 71 -29.5t29 -70.5q0 -42 -29 -71t-71 -29z" />
    <glyph glyph-name="Z" unicode="Z" horiz-adv-x="1126" 
d="M200 1199q-41 0 -70.5 29t-29.5 71q0 41 29.5 70.5t70.5 29.5t70.5 -29.5t29.5 -70.5q0 -42 -29.5 -71t-70.5 -29zM398 1199q-41 0 -70.5 29.5t-29.5 70.5q0 42 29.5 71t70.5 29q42 0 71 -29t29 -71q0 -41 -29 -70.5t-71 -29.5zM600 1200q-42 0 -71 29t-29 71
q0 41 29 70.5t71 29.5q41 0 70.5 -29.5t29.5 -70.5q0 -42 -29.5 -71t-70.5 -29zM799 1200q-42 0 -71 29.5t-29 70.5t29 70.5t71 29.5q41 0 70.5 -29.5t29.5 -70.5t-29.5 -70.5t-70.5 -29.5zM1001 1200q-42 0 -71 29.5t-29 70.5q0 42 29 71t71 29q41 0 70.5 -29t29.5 -71
q0 -41 -29.5 -70.5t-70.5 -29.5zM200 0q-41 0 -70.5 29.5t-29.5 70.5q0 42 29.5 71t70.5 29q42 0 71 -29t29 -71q0 -41 -29 -70.5t-71 -29.5zM399 1q-42 0 -71 29t-29 71q0 41 29 70.5t71 29.5q41 0 70.5 -29.5t29.5 -70.5q0 -42 -29.5 -71t-70.5 -29zM600 1
q-41 0 -70.5 29.5t-29.5 70.5q0 42 29.5 71t70.5 29t70.5 -29t29.5 -71q0 -41 -29.5 -70.5t-70.5 -29.5zM799 2q-41 0 -70.5 29t-29.5 71q0 41 29.5 70.5t70.5 29.5q42 0 71 -29.5t29 -70.5q0 -42 -29 -71t-71 -29zM1001 2q-41 0 -70.5 29.5t-29.5 70.5t29.5 70.5t70.5 29.5
q42 0 71 -29.5t29 -70.5t-29 -70.5t-71 -29.5zM201 199q-42 0 -71 29t-29 71q0 41 29 70.5t71 29.5q41 0 70.5 -29.5t29.5 -70.5q0 -42 -29.5 -71t-70.5 -29zM1001 1001q-41 0 -70.5 29.5t-29.5 70.5q0 42 29.5 71t70.5 29t70.5 -29t29.5 -71q0 -41 -29.5 -70.5t-70.5 -29.5
zM800 799q-41 0 -70.5 29.5t-29.5 70.5q0 42 29.5 71t70.5 29q42 0 71 -29t29 -71q0 -41 -29 -70.5t-71 -29.5zM600 601q-42 0 -71 29t-29 71q0 41 29 70.5t71 29.5q41 0 70.5 -29.5t29.5 -70.5q0 -42 -29.5 -71t-70.5 -29zM400 399q-41 0 -70.5 29.5t-29.5 70.5
q0 42 29.5 71t70.5 29q42 0 71 -29t29 -71q0 -41 -29 -70.5t-71 -29.5z" />
    <glyph glyph-name="bracketleft" unicode="[" horiz-adv-x="524" 
d="M200 1401q-41 0 -70.5 29t-29.5 71q0 41 29.5 70.5t70.5 29.5t70.5 -29.5t29.5 -70.5q0 -42 -29.5 -71t-70.5 -29zM398 1401q-41 0 -70.5 29.5t-29.5 70.5q0 42 29.5 71t70.5 29q42 0 71 -29t29 -71q0 -41 -29 -70.5t-71 -29.5zM200 -202q-41 0 -70.5 29.5t-29.5 70.5
q0 42 29.5 71t70.5 29q42 0 71 -29t29 -71q0 -41 -29 -70.5t-71 -29.5zM399 -201q-42 0 -71 29t-29 71q0 41 29 70.5t71 29.5q41 0 70.5 -29.5t29.5 -70.5q0 -42 -29.5 -71t-70.5 -29zM201 0q-42 0 -71 29.5t-29 70.5q0 42 29 71t71 29q41 0 70.5 -29t29.5 -71
q0 -41 -29.5 -70.5t-70.5 -29.5zM201 199q-41 0 -70.5 29.5t-29.5 70.5q0 42 29.5 71t70.5 29q42 0 71 -29t29 -71q0 -41 -29 -70.5t-71 -29.5zM201 401q-41 0 -70.5 29t-29.5 71q0 41 29.5 70.5t70.5 29.5q42 0 71 -29.5t29 -70.5q0 -42 -29 -71t-71 -29zM202 600
q-42 0 -71 29t-29 71q0 41 29 70.5t71 29.5q41 0 70.5 -29.5t29.5 -70.5q0 -42 -29.5 -71t-70.5 -29zM202 798q-41 0 -70.5 29t-29.5 71q0 41 29.5 70.5t70.5 29.5q42 0 71 -29.5t29 -70.5q0 -42 -29 -71t-71 -29zM203 1000q-42 0 -71 29t-29 71q0 41 29 70.5t71 29.5
q41 0 70.5 -29.5t29.5 -70.5q0 -42 -29.5 -71t-70.5 -29zM202 1198q-41 0 -70.5 29.5t-29.5 70.5q0 42 29.5 71t70.5 29q42 0 71 -29t29 -71q0 -41 -29 -70.5t-71 -29.5z" />
    <glyph glyph-name="backslash" unicode="\" horiz-adv-x="925" 
d="M729.5 -172.5q-29.5 29.5 -29.5 70.5q0 42 29.5 71t70.5 29q42 0 71 -29t29 -71q0 -41 -29 -70.5t-71 -29.5q-41 0 -70.5 29.5zM729 26.5q-29 29.5 -29 70.5q0 42 29 71t71 29q41 0 70.5 -29t29.5 -71q0 -41 -29.5 -70.5t-70.5 -29.5q-42 0 -71 29.5zM530.5 427
q-29.5 29 -29.5 71q0 41 29.5 70.5t70.5 29.5q42 0 71 -29.5t29 -70.5q0 -42 -29 -71t-71 -29q-41 0 -70.5 29zM531 228q-29 29 -29 71q0 41 29 70.5t71 29.5q41 0 70.5 -29.5t29.5 -70.5q0 -42 -29.5 -71t-70.5 -29q-42 0 -71 29zM332 629q-29 29 -29 71q0 41 29 70.5
t71 29.5q41 0 70.5 -29.5t29.5 -70.5q0 -42 -29.5 -71t-70.5 -29q-42 0 -71 29zM331.5 827.5q-29.5 29.5 -29.5 70.5q0 42 29.5 71t70.5 29q42 0 71 -29t29 -71q0 -41 -29 -70.5t-71 -29.5q-41 0 -70.5 29.5zM129.5 1228.5q-29.5 29.5 -29.5 70.5q0 42 29.5 71t70.5 29
t70.5 -29t29.5 -71q0 -41 -29.5 -70.5t-70.5 -29.5t-70.5 29.5zM129.5 1029.5q-29.5 29.5 -29.5 70.5q0 42 29.5 71t70.5 29q42 0 71 -29t29 -71q0 -41 -29 -70.5t-71 -29.5q-41 0 -70.5 29.5z" />
    <glyph glyph-name="bracketright" unicode="]" horiz-adv-x="524" 
d="M328 1430q-29 29 -29 71q0 41 29 70.5t71 29.5q41 0 70.5 -29.5t29.5 -70.5q0 -42 -29.5 -71t-70.5 -29q-42 0 -71 29zM129.5 1430.5q-29.5 29.5 -29.5 70.5q0 42 29.5 71t70.5 29q42 0 71 -29t29 -71q0 -41 -29 -70.5t-71 -29.5q-41 0 -70.5 29.5zM327.5 -172.5
q-29.5 29.5 -29.5 70.5q0 42 29.5 71t70.5 29q42 0 71 -29t29 -71q0 -41 -29 -70.5t-71 -29.5q-41 0 -70.5 29.5zM129.5 -172q-29.5 29 -29.5 71q0 41 29.5 70.5t70.5 29.5t70.5 -29.5t29.5 -70.5q0 -42 -29.5 -71t-70.5 -29t-70.5 29zM327.5 29.5q-29.5 29.5 -29.5 70.5
q0 42 29.5 71t70.5 29q42 0 71 -29t29 -71q0 -41 -29 -70.5t-71 -29.5q-41 0 -70.5 29.5zM327 228.5q-29 29.5 -29 70.5q0 42 29 71t71 29q41 0 70.5 -29t29.5 -71q0 -41 -29.5 -70.5t-70.5 -29.5q-42 0 -71 29.5zM326.5 430q-29.5 29 -29.5 71q0 41 29.5 70.5t70.5 29.5
q42 0 71 -29.5t29 -70.5q0 -42 -29 -71t-71 -29q-41 0 -70.5 29zM326 629q-29 29 -29 71q0 41 29 70.5t71 29.5q41 0 70.5 -29.5t29.5 -70.5q0 -42 -29.5 -71t-70.5 -29q-42 0 -71 29zM325.5 827q-29.5 29 -29.5 71q0 41 29.5 70.5t70.5 29.5q42 0 71 -29.5t29 -70.5
q0 -42 -29 -71t-71 -29q-41 0 -70.5 29zM325.5 1029q-29.5 29 -29.5 71q0 41 29.5 70.5t70.5 29.5t70.5 -29.5t29.5 -70.5q0 -42 -29.5 -71t-70.5 -29t-70.5 29zM325.5 1227.5q-29.5 29.5 -29.5 70.5q0 42 29.5 71t70.5 29q42 0 71 -29t29 -71q0 -41 -29 -70.5t-71 -29.5
q-41 0 -70.5 29.5z" />
    <glyph glyph-name="asciicircum" unicode="^" horiz-adv-x="725" 
d="M270.5 1071.5q29.5 -29.5 29.5 -70.5t-29.5 -70.5t-70.5 -29.5t-70.5 29.5t-29.5 70.5t29.5 70.5t70.5 29.5t70.5 -29.5zM670.5 1071.5q29.5 -29.5 29.5 -70.5t-29.5 -70.5t-70.5 -29.5q-42 0 -71 29.5t-29 70.5t29 70.5t71 29.5q41 0 70.5 -29.5zM371.5 1270.5
q29.5 -29.5 29.5 -70.5t-29.5 -70.5t-70.5 -29.5t-70.5 29.5t-29.5 70.5t29.5 70.5t70.5 29.5t70.5 -29.5zM571 1271q29 -29 29 -71q0 -41 -29 -70.5t-71 -29.5q-41 0 -70.5 29.5t-29.5 70.5q0 42 29.5 71t70.5 29q42 0 71 -29zM471.5 1469.5q29.5 -29.5 29.5 -70.5
t-29.5 -70.5t-70.5 -29.5q-42 0 -71 29.5t-29 70.5t29 70.5t71 29.5q41 0 70.5 -29.5z" />
    <glyph glyph-name="underscore" unicode="_" horiz-adv-x="1324" 
d="M270.5 -27q29.5 -29 29.5 -71q0 -41 -29.5 -70.5t-70.5 -29.5t-70.5 29.5t-29.5 70.5q0 42 29.5 71t70.5 29t70.5 -29zM870 -28q29 -29 29 -71q0 -41 -29 -70.5t-71 -29.5q-41 0 -70.5 29.5t-29.5 70.5q0 42 29.5 71t70.5 29q42 0 71 -29zM469.5 -27.5
q29.5 -29.5 29.5 -70.5q0 -42 -29.5 -71t-70.5 -29q-42 0 -71 29t-29 71q0 41 29 70.5t71 29.5q41 0 70.5 -29.5zM671.5 -27.5q29.5 -29.5 29.5 -70.5q0 -42 -29.5 -71t-70.5 -29q-42 0 -71 29t-29 71q0 41 29 70.5t71 29.5q41 0 70.5 -29.5zM1071.5 -28q29.5 -29 29.5 -71
q0 -41 -29.5 -70.5t-70.5 -29.5q-42 0 -71 29.5t-29 70.5q0 42 29 71t71 29q41 0 70.5 -29zM1269.5 -27.5q29.5 -29.5 29.5 -70.5q0 -42 -29.5 -71t-70.5 -29t-70.5 29t-29.5 71q0 41 29.5 70.5t70.5 29.5t70.5 -29.5z" />
    <glyph glyph-name="grave" unicode="`" horiz-adv-x="625" 
d="M570.5 1071.5q29.5 -29.5 29.5 -70.5t-29.5 -70.5t-70.5 -29.5q-42 0 -71 29.5t-29 70.5t29 70.5t71 29.5q41 0 70.5 -29.5zM421 1271q29 -29 29 -71q0 -41 -29 -70.5t-71 -29.5q-41 0 -70.5 29.5t-29.5 70.5q0 42 29.5 71t70.5 29q42 0 71 -29zM270.5 1469.5
q29.5 -29.5 29.5 -70.5t-29.5 -70.5t-70.5 -29.5t-70.5 29.5t-29.5 70.5t29.5 70.5t70.5 29.5t70.5 -29.5z" />
    <glyph glyph-name="a" unicode="a" horiz-adv-x="1126" 
d="M200 199q-41 0 -70.5 29.5t-29.5 70.5q0 42 29.5 71t70.5 29t70.5 -29t29.5 -71q0 -41 -29.5 -70.5t-70.5 -29.5zM398 1q-41 0 -70.5 29t-29.5 71q0 41 29.5 70.5t70.5 29.5q42 0 71 -29.5t29 -70.5q0 -42 -29 -71t-71 -29zM600 1q-42 0 -71 29.5t-29 70.5q0 42 29 71
t71 29q41 0 70.5 -29t29.5 -71q0 -41 -29.5 -70.5t-70.5 -29.5zM799 2q-42 0 -71 29t-29 71q0 41 29 70.5t71 29.5q41 0 70.5 -29.5t29.5 -70.5q0 -42 -29.5 -71t-70.5 -29zM1001 2q-42 0 -71 29.5t-29 70.5t29 70.5t71 29.5q41 0 70.5 -29.5t29.5 -70.5t-29.5 -70.5
t-70.5 -29.5zM398 402q-41 0 -70.5 29t-29.5 71q0 41 29.5 70.5t70.5 29.5q42 0 71 -29.5t29 -70.5q0 -42 -29 -71t-71 -29zM599 402q-41 0 -70.5 29.5t-29.5 70.5t29.5 70.5t70.5 29.5q42 0 71 -29.5t29 -70.5t-29 -70.5t-71 -29.5zM799 402q-42 0 -71 29.5t-29 70.5
q0 42 29 71t71 29q41 0 70.5 -29t29.5 -71q0 -41 -29.5 -70.5t-70.5 -29.5zM799 800q-42 0 -71 29.5t-29 70.5q0 42 29 71t71 29q41 0 70.5 -29t29.5 -71q0 -41 -29.5 -70.5t-70.5 -29.5zM599 800q-41 0 -70.5 29.5t-29.5 70.5t29.5 70.5t70.5 29.5q42 0 71 -29.5t29 -70.5
t-29 -70.5t-71 -29.5zM398 800q-41 0 -70.5 29t-29.5 71q0 41 29.5 70.5t70.5 29.5q42 0 71 -29.5t29 -70.5q0 -42 -29 -71t-71 -29zM1001 201q-42 0 -71 29t-29 71q0 41 29 70.5t71 29.5q41 0 70.5 -29.5t29.5 -70.5q0 -42 -29.5 -71t-70.5 -29zM1000 399q-41 0 -70.5 29.5
t-29.5 70.5q0 42 29.5 71t70.5 29q42 0 71 -29t29 -71q0 -41 -29 -70.5t-71 -29.5zM1000 601q-42 0 -71 29t-29 71q0 41 29 70.5t71 29.5q41 0 70.5 -29.5t29.5 -70.5q0 -42 -29.5 -71t-70.5 -29z" />
    <glyph glyph-name="b" unicode="b" horiz-adv-x="1126" 
d="M930 228.5q-29 29.5 -29 70.5q0 42 29 71t71 29q41 0 70.5 -29t29.5 -71q0 -41 -29.5 -70.5t-70.5 -29.5q-42 0 -71 29.5zM731.5 30q-29.5 29 -29.5 71q0 41 29.5 70.5t70.5 29.5q42 0 71 -29.5t29 -70.5q0 -42 -29 -71t-71 -29q-41 0 -70.5 29zM530.5 30.5
q-29.5 29.5 -29.5 70.5q0 42 29.5 71t70.5 29q42 0 71 -29t29 -71q0 -41 -29 -70.5t-71 -29.5q-41 0 -70.5 29.5zM331.5 31q-29.5 29 -29.5 71q0 41 29.5 70.5t70.5 29.5t70.5 -29.5t29.5 -70.5q0 -42 -29.5 -71t-70.5 -29t-70.5 29zM129.5 31.5q-29.5 29.5 -29.5 70.5
t29.5 70.5t70.5 29.5q42 0 71 -29.5t29 -70.5t-29 -70.5t-71 -29.5q-41 0 -70.5 29.5zM732 828q-29 29 -29 71q0 41 29 70.5t71 29.5q41 0 70.5 -29.5t29.5 -70.5q0 -42 -29.5 -71t-70.5 -29q-42 0 -71 29zM530.5 828.5q-29.5 29.5 -29.5 70.5t29.5 70.5t70.5 29.5
q42 0 71 -29.5t29 -70.5t-29 -70.5t-71 -29.5q-41 0 -70.5 29.5zM331.5 828.5q-29.5 29.5 -29.5 70.5q0 42 29.5 71t70.5 29q42 0 71 -29t29 -71q0 -41 -29 -70.5t-71 -29.5q-41 0 -70.5 29.5zM129.5 230q-29.5 29 -29.5 71q0 41 29.5 70.5t70.5 29.5t70.5 -29.5t29.5 -70.5
q0 -42 -29.5 -71t-70.5 -29t-70.5 29zM129.5 428.5q-29.5 29.5 -29.5 70.5q0 42 29.5 71t70.5 29q42 0 71 -29t29 -71q0 -41 -29 -70.5t-71 -29.5q-41 0 -70.5 29.5zM130 630q-29 29 -29 71q0 41 29 70.5t71 29.5q41 0 70.5 -29.5t29.5 -70.5q0 -42 -29.5 -71t-70.5 -29
q-42 0 -71 29zM130 828.5q-29 29.5 -29 70.5t29 70.5t71 29.5q41 0 70.5 -29.5t29.5 -70.5t-29.5 -70.5t-70.5 -29.5q-42 0 -71 29.5zM130.5 1030q-29.5 29 -29.5 71q0 41 29.5 70.5t70.5 29.5t70.5 -29.5t29.5 -70.5q0 -42 -29.5 -71t-70.5 -29t-70.5 29zM130 1228.5
q-29 29.5 -29 70.5q0 42 29 71t71 29q41 0 70.5 -29t29.5 -71q0 -41 -29.5 -70.5t-70.5 -29.5q-42 0 -71 29.5zM930.5 431q-29.5 29 -29.5 71q0 41 29.5 70.5t70.5 29.5q42 0 71 -29.5t29 -70.5q0 -42 -29 -71t-71 -29q-41 0 -70.5 29zM930.5 629.5q-29.5 29.5 -29.5 70.5
q0 42 29.5 71t70.5 29q42 0 71 -29t29 -71q0 -41 -29 -70.5t-71 -29.5q-41 0 -70.5 29.5z" />
    <glyph glyph-name="c" unicode="c" horiz-adv-x="1126" 
d="M201 199q-42 0 -71 29.5t-29 70.5q0 42 29 71t71 29q41 0 70.5 -29t29.5 -71q0 -41 -29.5 -70.5t-70.5 -29.5zM399 1q-41 0 -70.5 29t-29.5 71q0 41 29.5 70.5t70.5 29.5t70.5 -29.5t29.5 -70.5q0 -42 -29.5 -71t-70.5 -29zM600 1q-41 0 -70.5 29.5t-29.5 70.5
q0 42 29.5 71t70.5 29q42 0 71 -29t29 -71q0 -41 -29 -70.5t-71 -29.5zM799 2q-41 0 -70.5 29t-29.5 71q0 41 29.5 70.5t70.5 29.5q42 0 71 -29.5t29 -70.5q0 -42 -29 -71t-71 -29zM1001 2q-41 0 -70.5 29.5t-29.5 70.5t29.5 70.5t70.5 29.5q42 0 71 -29.5t29 -70.5
t-29 -70.5t-71 -29.5zM399 799q-42 0 -71 29t-29 71q0 41 29 70.5t71 29.5q41 0 70.5 -29.5t29.5 -70.5q0 -42 -29.5 -71t-70.5 -29zM600 799q-41 0 -70.5 29.5t-29.5 70.5t29.5 70.5t70.5 29.5t70.5 -29.5t29.5 -70.5t-29.5 -70.5t-70.5 -29.5zM799 799q-41 0 -70.5 29.5
t-29.5 70.5q0 42 29.5 71t70.5 29q42 0 71 -29t29 -71q0 -41 -29 -70.5t-71 -29.5zM1001 601q-42 0 -71 29t-29 71q0 41 29 70.5t71 29.5q41 0 70.5 -29.5t29.5 -70.5q0 -42 -29.5 -71t-70.5 -29zM200 402q-41 0 -70.5 29t-29.5 71q0 41 29.5 70.5t70.5 29.5q42 0 71 -29.5
t29 -70.5q0 -42 -29 -71t-71 -29zM200 600q-41 0 -70.5 29.5t-29.5 70.5q0 42 29.5 71t70.5 29t70.5 -29t29.5 -71q0 -41 -29.5 -70.5t-70.5 -29.5zM201 0q-42 0 -71 29.5t-29 70.5q0 42 29 71t71 29q41 0 70.5 -29t29.5 -71q0 -41 -29.5 -70.5t-70.5 -29.5z" />
    <glyph glyph-name="d" unicode="d" horiz-adv-x="1126" 
d="M201 199q-42 0 -71 29.5t-29 70.5q0 42 29 71t71 29q41 0 70.5 -29t29.5 -71q0 -41 -29.5 -70.5t-70.5 -29.5zM399 1q-41 0 -70.5 29t-29.5 71q0 41 29.5 70.5t70.5 29.5t70.5 -29.5t29.5 -70.5q0 -42 -29.5 -71t-70.5 -29zM600 1q-41 0 -70.5 29.5t-29.5 70.5
q0 42 29.5 71t70.5 29q42 0 71 -29t29 -71q0 -41 -29 -70.5t-71 -29.5zM799 2q-41 0 -70.5 29t-29.5 71q0 41 29.5 70.5t70.5 29.5q42 0 71 -29.5t29 -70.5q0 -42 -29 -71t-71 -29zM1001 2q-41 0 -70.5 29.5t-29.5 70.5t29.5 70.5t70.5 29.5q42 0 71 -29.5t29 -70.5
t-29 -70.5t-71 -29.5zM399 799q-42 0 -71 29t-29 71q0 41 29 70.5t71 29.5q41 0 70.5 -29.5t29.5 -70.5q0 -42 -29.5 -71t-70.5 -29zM600 799q-41 0 -70.5 29.5t-29.5 70.5t29.5 70.5t70.5 29.5t70.5 -29.5t29.5 -70.5t-29.5 -70.5t-70.5 -29.5zM799 799q-41 0 -70.5 29.5
t-29.5 70.5q0 42 29.5 71t70.5 29q42 0 71 -29t29 -71q0 -41 -29 -70.5t-71 -29.5zM1001 201q-41 0 -70.5 29t-29.5 71q0 41 29.5 70.5t70.5 29.5q42 0 71 -29.5t29 -70.5q0 -42 -29 -71t-71 -29zM1001 399q-41 0 -70.5 29.5t-29.5 70.5q0 42 29.5 71t70.5 29t70.5 -29
t29.5 -71q0 -41 -29.5 -70.5t-70.5 -29.5zM1001 601q-42 0 -71 29t-29 71q0 41 29 70.5t71 29.5q41 0 70.5 -29.5t29.5 -70.5q0 -42 -29.5 -71t-70.5 -29zM1001 799q-42 0 -71 29.5t-29 70.5t29 70.5t71 29.5q41 0 70.5 -29.5t29.5 -70.5t-29.5 -70.5t-70.5 -29.5z
M1000 1001q-41 0 -70.5 29t-29.5 71q0 41 29.5 70.5t70.5 29.5q42 0 71 -29.5t29 -70.5q0 -42 -29 -71t-71 -29zM1001 1199q-42 0 -71 29.5t-29 70.5q0 42 29 71t71 29q41 0 70.5 -29t29.5 -71q0 -41 -29.5 -70.5t-70.5 -29.5zM200 402q-41 0 -70.5 29t-29.5 71
q0 41 29.5 70.5t70.5 29.5q42 0 71 -29.5t29 -70.5q0 -42 -29 -71t-71 -29zM200 600q-41 0 -70.5 29.5t-29.5 70.5q0 42 29.5 71t70.5 29t70.5 -29t29.5 -71q0 -41 -29.5 -70.5t-70.5 -29.5z" />
    <glyph glyph-name="e" unicode="e" horiz-adv-x="1126" 
d="M201 199q-42 0 -71 29.5t-29 70.5q0 42 29 71t71 29q41 0 70.5 -29t29.5 -71q0 -41 -29.5 -70.5t-70.5 -29.5zM399 1q-41 0 -70.5 29t-29.5 71q0 41 29.5 70.5t70.5 29.5t70.5 -29.5t29.5 -70.5q0 -42 -29.5 -71t-70.5 -29zM600 1q-41 0 -70.5 29.5t-29.5 70.5
q0 42 29.5 71t70.5 29q42 0 71 -29t29 -71q0 -41 -29 -70.5t-71 -29.5zM799 2q-41 0 -70.5 29t-29.5 71q0 41 29.5 70.5t70.5 29.5q42 0 71 -29.5t29 -70.5q0 -42 -29 -71t-71 -29zM1001 2q-41 0 -70.5 29.5t-29.5 70.5t29.5 70.5t70.5 29.5q42 0 71 -29.5t29 -70.5
t-29 -70.5t-71 -29.5zM399 799q-42 0 -71 29t-29 71q0 41 29 70.5t71 29.5q41 0 70.5 -29.5t29.5 -70.5q0 -42 -29.5 -71t-70.5 -29zM600 799q-41 0 -70.5 29.5t-29.5 70.5t29.5 70.5t70.5 29.5t70.5 -29.5t29.5 -70.5t-29.5 -70.5t-70.5 -29.5zM799 799q-41 0 -70.5 29.5
t-29.5 70.5q0 42 29.5 71t70.5 29q42 0 71 -29t29 -71q0 -41 -29 -70.5t-71 -29.5zM1001 601q-42 0 -71 29t-29 71q0 41 29 70.5t71 29.5q41 0 70.5 -29.5t29.5 -70.5q0 -42 -29.5 -71t-70.5 -29zM200 402q-41 0 -70.5 29t-29.5 71q0 41 29.5 70.5t70.5 29.5q42 0 71 -29.5
t29 -70.5q0 -42 -29 -71t-71 -29zM200 600q-41 0 -70.5 29.5t-29.5 70.5q0 42 29.5 71t70.5 29t70.5 -29t29.5 -71q0 -41 -29.5 -70.5t-70.5 -29.5zM1001 399q-42 0 -71 29.5t-29 70.5q0 42 29 71t71 29q41 0 70.5 -29t29.5 -71q0 -41 -29.5 -70.5t-70.5 -29.5zM798 400
q-41 0 -70.5 29t-29.5 71q0 41 29.5 70.5t70.5 29.5q42 0 71 -29.5t29 -70.5q0 -42 -29 -71t-71 -29zM600 400q-42 0 -71 29.5t-29 70.5t29 70.5t71 29.5q41 0 70.5 -29.5t29.5 -70.5t-29.5 -70.5t-70.5 -29.5zM401 400q-41 0 -70.5 29t-29.5 71q0 41 29.5 70.5t70.5 29.5
q42 0 71 -29.5t29 -70.5q0 -42 -29 -71t-71 -29z" />
    <glyph glyph-name="f" unicode="f" horiz-adv-x="925" 
d="M399 599q-41 0 -70.5 29.5t-29.5 70.5q0 42 29.5 71t70.5 29q42 0 71 -29t29 -71q0 -41 -29 -70.5t-71 -29.5zM598 1199q-42 0 -71 29t-29 71q0 41 29 70.5t71 29.5q41 0 70.5 -29.5t29.5 -70.5q0 -42 -29.5 -71t-70.5 -29zM799 1199q-42 0 -71 29.5t-29 70.5t29 70.5
t71 29.5q41 0 70.5 -29.5t29.5 -70.5t-29.5 -70.5t-70.5 -29.5zM399 802q-41 0 -70.5 29t-29.5 71q0 41 29.5 70.5t70.5 29.5t70.5 -29.5t29.5 -70.5q0 -42 -29.5 -71t-70.5 -29zM399 1000q-42 0 -71 29.5t-29 70.5q0 42 29 71t71 29q41 0 70.5 -29t29.5 -71
q0 -41 -29.5 -70.5t-70.5 -29.5zM399 400q-41 0 -70.5 29.5t-29.5 70.5q0 42 29.5 71t70.5 29q42 0 71 -29t29 -71q0 -41 -29 -70.5t-71 -29.5zM399 202q-41 0 -70.5 29.5t-29.5 70.5q0 42 29.5 71t70.5 29q42 0 71 -29t29 -71q0 -41 -29 -70.5t-71 -29.5zM400 1
q-42 0 -71 29t-29 71q0 41 29 70.5t71 29.5q41 0 70.5 -29.5t29.5 -70.5q0 -42 -29.5 -71t-70.5 -29zM200 802q-41 0 -70.5 29t-29.5 71q0 41 29.5 70.5t70.5 29.5t70.5 -29.5t29.5 -70.5q0 -42 -29.5 -71t-70.5 -29zM598 801q-41 0 -70.5 29.5t-29.5 70.5q0 42 29.5 71
t70.5 29q42 0 71 -29t29 -71q0 -41 -29 -70.5t-71 -29.5zM800 801q-41 0 -70.5 29.5t-29.5 70.5q0 42 29.5 71t70.5 29q42 0 71 -29t29 -71q0 -41 -29 -70.5t-71 -29.5z" />
    <glyph glyph-name="g" unicode="g" horiz-adv-x="1126" 
d="M201 199q-42 0 -71 29.5t-29 70.5q0 42 29 71t71 29q41 0 70.5 -29t29.5 -71q0 -41 -29.5 -70.5t-70.5 -29.5zM399 1q-41 0 -70.5 29t-29.5 71q0 41 29.5 70.5t70.5 29.5t70.5 -29.5t29.5 -70.5q0 -42 -29.5 -71t-70.5 -29zM600 1q-41 0 -70.5 29.5t-29.5 70.5
q0 42 29.5 71t70.5 29q42 0 71 -29t29 -71q0 -41 -29 -70.5t-71 -29.5zM799 2q-41 0 -70.5 29t-29.5 71q0 41 29.5 70.5t70.5 29.5q42 0 71 -29.5t29 -70.5q0 -42 -29 -71t-71 -29zM1001 2q-41 0 -70.5 29.5t-29.5 70.5t29.5 70.5t70.5 29.5q42 0 71 -29.5t29 -70.5
t-29 -70.5t-71 -29.5zM399 799q-42 0 -71 29t-29 71q0 41 29 70.5t71 29.5q41 0 70.5 -29.5t29.5 -70.5q0 -42 -29.5 -71t-70.5 -29zM600 799q-41 0 -70.5 29.5t-29.5 70.5t29.5 70.5t70.5 29.5t70.5 -29.5t29.5 -70.5t-29.5 -70.5t-70.5 -29.5zM799 799q-41 0 -70.5 29.5
t-29.5 70.5q0 42 29.5 71t70.5 29q42 0 71 -29t29 -71q0 -41 -29 -70.5t-71 -29.5zM1001 800q-42 0 -71 29t-29 71q0 41 29 70.5t71 29.5q41 0 70.5 -29.5t29.5 -70.5q0 -42 -29.5 -71t-70.5 -29zM200 402q-41 0 -70.5 29t-29.5 71q0 41 29.5 70.5t70.5 29.5q42 0 71 -29.5
t29 -70.5q0 -42 -29 -71t-71 -29zM200 600q-41 0 -70.5 29.5t-29.5 70.5q0 42 29.5 71t70.5 29t70.5 -29t29.5 -71q0 -41 -29.5 -70.5t-70.5 -29.5zM1001 601q-41 0 -70.5 29.5t-29.5 70.5q0 42 29.5 71t70.5 29t70.5 -29t29.5 -71q0 -41 -29.5 -70.5t-70.5 -29.5zM1001 400
q-42 0 -71 29t-29 71q0 41 29 70.5t71 29.5q41 0 70.5 -29.5t29.5 -70.5q0 -42 -29.5 -71t-70.5 -29zM1001 201q-42 0 -71 29.5t-29 70.5t29 70.5t71 29.5q41 0 70.5 -29.5t29.5 -70.5t-29.5 -70.5t-70.5 -29.5zM1001 -200q-41 0 -70.5 29t-29.5 71q0 41 29.5 70.5
t70.5 29.5t70.5 -29.5t29.5 -70.5q0 -42 -29.5 -71t-70.5 -29zM399 -400q-42 0 -71 29.5t-29 70.5q0 42 29 71t71 29q41 0 70.5 -29t29.5 -71q0 -41 -29.5 -70.5t-70.5 -29.5zM600 -399q-42 0 -71 29t-29 71q0 41 29 70.5t71 29.5q41 0 70.5 -29.5t29.5 -70.5
q0 -42 -29.5 -71t-70.5 -29zM799 -399q-41 0 -70.5 29.5t-29.5 70.5q0 42 29.5 71t70.5 29t70.5 -29t29.5 -71q0 -41 -29.5 -70.5t-70.5 -29.5z" />
    <glyph glyph-name="h" unicode="h" horiz-adv-x="1126" 
d="M930 228.5q-29 29.5 -29 70.5q0 42 29 71t71 29q41 0 70.5 -29t29.5 -71q0 -41 -29.5 -70.5t-70.5 -29.5q-42 0 -71 29.5zM129.5 31.5q-29.5 29.5 -29.5 70.5t29.5 70.5t70.5 29.5q42 0 71 -29.5t29 -70.5t-29 -70.5t-71 -29.5q-41 0 -70.5 29.5zM732 828q-29 29 -29 71
q0 41 29 70.5t71 29.5q41 0 70.5 -29.5t29.5 -70.5q0 -42 -29.5 -71t-70.5 -29q-42 0 -71 29zM530.5 828.5q-29.5 29.5 -29.5 70.5t29.5 70.5t70.5 29.5q42 0 71 -29.5t29 -70.5t-29 -70.5t-71 -29.5q-41 0 -70.5 29.5zM331.5 828.5q-29.5 29.5 -29.5 70.5q0 42 29.5 71
t70.5 29q42 0 71 -29t29 -71q0 -41 -29 -70.5t-71 -29.5q-41 0 -70.5 29.5zM129.5 230q-29.5 29 -29.5 71q0 41 29.5 70.5t70.5 29.5t70.5 -29.5t29.5 -70.5q0 -42 -29.5 -71t-70.5 -29t-70.5 29zM129.5 428.5q-29.5 29.5 -29.5 70.5q0 42 29.5 71t70.5 29q42 0 71 -29
t29 -71q0 -41 -29 -70.5t-71 -29.5q-41 0 -70.5 29.5zM130 630q-29 29 -29 71q0 41 29 70.5t71 29.5q41 0 70.5 -29.5t29.5 -70.5q0 -42 -29.5 -71t-70.5 -29q-42 0 -71 29zM130 828.5q-29 29.5 -29 70.5t29 70.5t71 29.5q41 0 70.5 -29.5t29.5 -70.5t-29.5 -70.5
t-70.5 -29.5q-42 0 -71 29.5zM130.5 1030q-29.5 29 -29.5 71q0 41 29.5 70.5t70.5 29.5t70.5 -29.5t29.5 -70.5q0 -42 -29.5 -71t-70.5 -29t-70.5 29zM130 1228.5q-29 29.5 -29 70.5q0 42 29 71t71 29q41 0 70.5 -29t29.5 -71q0 -41 -29.5 -70.5t-70.5 -29.5q-42 0 -71 29.5
zM930.5 431q-29.5 29 -29.5 71q0 41 29.5 70.5t70.5 29.5q42 0 71 -29.5t29 -70.5q0 -42 -29 -71t-71 -29q-41 0 -70.5 29zM930.5 629.5q-29.5 29.5 -29.5 70.5q0 42 29.5 71t70.5 29q42 0 71 -29t29 -71q0 -41 -29 -70.5t-71 -29.5q-41 0 -70.5 29.5zM930.5 30
q-29.5 29 -29.5 71q0 41 29.5 70.5t70.5 29.5q42 0 71 -29.5t29 -70.5q0 -42 -29 -71t-71 -29q-41 0 -70.5 29z" />
    <glyph glyph-name="i" unicode="i" horiz-adv-x="727" 
d="M330 31.5q-29 29.5 -29 70.5t29 70.5t71 29.5q41 0 70.5 -29.5t29.5 -70.5t-29.5 -70.5t-70.5 -29.5q-42 0 -71 29.5zM129.5 828.5q-29.5 29.5 -29.5 70.5q0 42 29.5 71t70.5 29t70.5 -29t29.5 -71q0 -41 -29.5 -70.5t-70.5 -29.5t-70.5 29.5zM330 230q-29 29 -29 71
q0 41 29 70.5t71 29.5q41 0 70.5 -29.5t29.5 -70.5q0 -42 -29.5 -71t-70.5 -29q-42 0 -71 29zM330.5 428.5q-29.5 29.5 -29.5 70.5q0 42 29.5 71t70.5 29q42 0 71 -29t29 -71q0 -41 -29 -70.5t-71 -29.5q-41 0 -70.5 29.5zM331 630q-29 29 -29 71q0 41 29 70.5t71 29.5
q41 0 70.5 -29.5t29.5 -70.5q0 -42 -29.5 -71t-70.5 -29q-42 0 -71 29zM330.5 828.5q-29.5 29.5 -29.5 70.5t29.5 70.5t70.5 29.5q42 0 71 -29.5t29 -70.5t-29 -70.5t-71 -29.5q-41 0 -70.5 29.5zM131 31q-29 29 -29 71q0 41 29 70.5t71 29.5q41 0 70.5 -29.5t29.5 -70.5
q0 -42 -29.5 -71t-70.5 -29q-42 0 -71 29zM531 31q-29 29 -29 71q0 41 29 70.5t71 29.5q41 0 70.5 -29.5t29.5 -70.5q0 -42 -29.5 -71t-70.5 -29q-42 0 -71 29zM330.5 1128q-29.5 29 -29.5 71q0 41 29.5 70.5t70.5 29.5q42 0 71 -29.5t29 -70.5q0 -42 -29 -71t-71 -29
q-41 0 -70.5 29z" />
    <glyph glyph-name="j" unicode="j" horiz-adv-x="727" 
d="M530.5 31.5q-29.5 29.5 -29.5 70.5t29.5 70.5t70.5 29.5t70.5 -29.5t29.5 -70.5t-29.5 -70.5t-70.5 -29.5t-70.5 29.5zM329.5 828.5q-29.5 29.5 -29.5 70.5q0 42 29.5 71t70.5 29q42 0 71 -29t29 -71q0 -41 -29 -70.5t-71 -29.5q-41 0 -70.5 29.5zM530.5 230
q-29.5 29 -29.5 71q0 41 29.5 70.5t70.5 29.5t70.5 -29.5t29.5 -70.5q0 -42 -29.5 -71t-70.5 -29t-70.5 29zM530.5 428.5q-29.5 29.5 -29.5 70.5q0 42 29.5 71t70.5 29q42 0 71 -29t29 -71q0 -41 -29 -70.5t-71 -29.5q-41 0 -70.5 29.5zM531 630q-29 29 -29 71q0 41 29 70.5
t71 29.5q41 0 70.5 -29.5t29.5 -70.5q0 -42 -29.5 -71t-70.5 -29q-42 0 -71 29zM531 828.5q-29 29.5 -29 70.5t29 70.5t71 29.5q41 0 70.5 -29.5t29.5 -70.5t-29.5 -70.5t-70.5 -29.5q-42 0 -71 29.5zM530.5 1128q-29.5 29 -29.5 71q0 41 29.5 70.5t70.5 29.5q42 0 71 -29.5
t29 -70.5q0 -42 -29 -71t-71 -29q-41 0 -70.5 29zM530 -171q-29 29 -29 71q0 41 29 70.5t71 29.5q41 0 70.5 -29.5t29.5 -70.5q0 -42 -29.5 -71t-70.5 -29q-42 0 -71 29zM328.5 -369.5q-29.5 29.5 -29.5 70.5q0 42 29.5 71t70.5 29q42 0 71 -29t29 -71q0 -41 -29 -70.5
t-71 -29.5q-41 0 -70.5 29.5zM129.5 -369q-29.5 29 -29.5 71q0 41 29.5 70.5t70.5 29.5t70.5 -29.5t29.5 -70.5q0 -42 -29.5 -71t-70.5 -29t-70.5 29z" />
    <glyph glyph-name="k" unicode="k" horiz-adv-x="926" 
d="M129.5 31.5q-29.5 29.5 -29.5 70.5t29.5 70.5t70.5 29.5q42 0 71 -29.5t29 -70.5t-29 -70.5t-71 -29.5q-41 0 -70.5 29.5zM129.5 230q-29.5 29 -29.5 71q0 41 29.5 70.5t70.5 29.5t70.5 -29.5t29.5 -70.5q0 -42 -29.5 -71t-70.5 -29t-70.5 29zM129.5 428.5
q-29.5 29.5 -29.5 70.5q0 42 29.5 71t70.5 29q42 0 71 -29t29 -71q0 -41 -29 -70.5t-71 -29.5q-41 0 -70.5 29.5zM130 630q-29 29 -29 71q0 41 29 70.5t71 29.5q41 0 70.5 -29.5t29.5 -70.5q0 -42 -29.5 -71t-70.5 -29q-42 0 -71 29zM130 828.5q-29 29.5 -29 70.5t29 70.5
t71 29.5q41 0 70.5 -29.5t29.5 -70.5t-29.5 -70.5t-70.5 -29.5q-42 0 -71 29.5zM130 1030q-29 29 -29 71q0 41 29 70.5t71 29.5q41 0 70.5 -29.5t29.5 -70.5q0 -42 -29.5 -71t-70.5 -29q-42 0 -71 29zM129.5 1228.5q-29.5 29.5 -29.5 70.5q0 42 29.5 71t70.5 29q42 0 71 -29
t29 -71q0 -41 -29 -70.5t-71 -29.5q-41 0 -70.5 29.5zM328 428q-29 29 -29 71q0 41 29 70.5t71 29.5q41 0 70.5 -29.5t29.5 -70.5q0 -42 -29.5 -71t-70.5 -29q-42 0 -71 29zM527 229.5q-29 29.5 -29 70.5q0 42 29 71t71 29q41 0 70.5 -29t29.5 -71q0 -41 -29.5 -70.5
t-70.5 -29.5q-42 0 -71 29.5zM727.5 30.5q-29.5 29.5 -29.5 70.5q0 42 29.5 71t70.5 29q42 0 71 -29t29 -71q0 -41 -29 -70.5t-71 -29.5q-41 0 -70.5 29.5zM528.5 630q-29.5 29 -29.5 71q0 41 29.5 70.5t70.5 29.5q42 0 71 -29.5t29 -70.5q0 -42 -29 -71t-71 -29
q-41 0 -70.5 29zM730.5 829q-29.5 29 -29.5 71q0 41 29.5 70.5t70.5 29.5q42 0 71 -29.5t29 -70.5q0 -42 -29 -71t-71 -29q-41 0 -70.5 29z" />
    <glyph glyph-name="l" unicode="l" horiz-adv-x="723" 
d="M328 31.5q-29 29.5 -29 70.5t29 70.5t71 29.5q41 0 70.5 -29.5t29.5 -70.5t-29.5 -70.5t-70.5 -29.5q-42 0 -71 29.5zM328 230q-29 29 -29 71q0 41 29 70.5t71 29.5q41 0 70.5 -29.5t29.5 -70.5q0 -42 -29.5 -71t-70.5 -29q-42 0 -71 29zM328.5 428.5
q-29.5 29.5 -29.5 70.5q0 42 29.5 71t70.5 29q42 0 71 -29t29 -71q0 -41 -29 -70.5t-71 -29.5q-41 0 -70.5 29.5zM329 630q-29 29 -29 71q0 41 29 70.5t71 29.5q41 0 70.5 -29.5t29.5 -70.5q0 -42 -29.5 -71t-70.5 -29q-42 0 -71 29zM329 828.5q-29 29.5 -29 70.5t29 70.5
t71 29.5q41 0 70.5 -29.5t29.5 -70.5t-29.5 -70.5t-70.5 -29.5q-42 0 -71 29.5zM328.5 1030q-29.5 29 -29.5 71q0 41 29.5 70.5t70.5 29.5q42 0 71 -29.5t29 -70.5q0 -42 -29 -71t-71 -29q-41 0 -70.5 29zM328.5 1228.5q-29.5 29.5 -29.5 70.5q0 42 29.5 71t70.5 29
q42 0 71 -29t29 -71q0 -41 -29 -70.5t-71 -29.5q-41 0 -70.5 29.5zM129.5 1229q-29.5 29 -29.5 71q0 41 29.5 70.5t70.5 29.5q42 0 71 -29.5t29 -70.5q0 -42 -29 -71t-71 -29q-41 0 -70.5 29zM129.5 31.5q-29.5 29.5 -29.5 70.5q0 42 29.5 71t70.5 29t70.5 -29t29.5 -71
q0 -41 -29.5 -70.5t-70.5 -29.5t-70.5 29.5zM527 31.5q-29 29.5 -29 70.5q0 42 29 71t71 29q41 0 70.5 -29t29.5 -71q0 -41 -29.5 -70.5t-70.5 -29.5q-42 0 -71 29.5z" />
    <glyph glyph-name="m" unicode="m" 
d="M129.5 31.5q-29.5 29.5 -29.5 70.5t29.5 70.5t70.5 29.5q42 0 71 -29.5t29 -70.5t-29 -70.5t-71 -29.5q-41 0 -70.5 29.5zM129.5 230q-29.5 29 -29.5 71q0 41 29.5 70.5t70.5 29.5t70.5 -29.5t29.5 -70.5q0 -42 -29.5 -71t-70.5 -29t-70.5 29zM129.5 428.5
q-29.5 29.5 -29.5 70.5q0 42 29.5 71t70.5 29q42 0 71 -29t29 -71q0 -41 -29 -70.5t-71 -29.5q-41 0 -70.5 29.5zM130 630q-29 29 -29 71q0 41 29 70.5t71 29.5q41 0 70.5 -29.5t29.5 -70.5q0 -42 -29.5 -71t-70.5 -29q-42 0 -71 29zM130 828.5q-29 29.5 -29 70.5t29 70.5
t71 29.5q41 0 70.5 -29.5t29.5 -70.5t-29.5 -70.5t-70.5 -29.5q-42 0 -71 29.5zM530.5 828q-29.5 29 -29.5 71q0 41 29.5 70.5t70.5 29.5q42 0 71 -29.5t29 -70.5q0 -42 -29 -71t-71 -29q-41 0 -70.5 29zM530.5 629.5q-29.5 29.5 -29.5 70.5q0 42 29.5 71t70.5 29
q42 0 71 -29t29 -71q0 -41 -29 -70.5t-71 -29.5q-41 0 -70.5 29.5zM530.5 428q-29.5 29 -29.5 71q0 41 29.5 70.5t70.5 29.5t70.5 -29.5t29.5 -70.5q0 -42 -29.5 -71t-70.5 -29t-70.5 29zM530 229.5q-29 29.5 -29 70.5q0 42 29 71t71 29q41 0 70.5 -29t29.5 -71
q0 -41 -29.5 -70.5t-70.5 -29.5q-42 0 -71 29.5zM530 31q-29 29 -29 71q0 41 29 70.5t71 29.5q41 0 70.5 -29.5t29.5 -70.5q0 -42 -29.5 -71t-70.5 -29q-42 0 -71 29zM930 31q-29 29 -29 71q0 41 29 70.5t71 29.5q41 0 70.5 -29.5t29.5 -70.5q0 -42 -29.5 -71t-70.5 -29
q-42 0 -71 29zM930 230q-29 29 -29 71q0 41 29 70.5t71 29.5q41 0 70.5 -29.5t29.5 -70.5q0 -42 -29.5 -71t-70.5 -29q-42 0 -71 29zM930.5 428.5q-29.5 29.5 -29.5 70.5q0 42 29.5 71t70.5 29q42 0 71 -29t29 -71q0 -41 -29 -70.5t-71 -29.5q-41 0 -70.5 29.5zM931 629.5
q-29 29.5 -29 70.5q0 42 29 71t71 29q41 0 70.5 -29t29.5 -71q0 -41 -29.5 -70.5t-70.5 -29.5q-42 0 -71 29.5zM729.5 827.5q-29.5 29.5 -29.5 70.5q0 42 29.5 71t70.5 29q42 0 71 -29t29 -71q0 -41 -29 -70.5t-71 -29.5q-41 0 -70.5 29.5zM329 827.5q-29 29.5 -29 70.5
t29 70.5t71 29.5q41 0 70.5 -29.5t29.5 -70.5t-29.5 -70.5t-70.5 -29.5q-42 0 -71 29.5z" />
    <glyph glyph-name="n" unicode="n" 
d="M129.5 31.5q-29.5 29.5 -29.5 70.5t29.5 70.5t70.5 29.5q42 0 71 -29.5t29 -70.5t-29 -70.5t-71 -29.5q-41 0 -70.5 29.5zM129.5 230q-29.5 29 -29.5 71q0 41 29.5 70.5t70.5 29.5t70.5 -29.5t29.5 -70.5q0 -42 -29.5 -71t-70.5 -29t-70.5 29zM129.5 428.5
q-29.5 29.5 -29.5 70.5q0 42 29.5 71t70.5 29q42 0 71 -29t29 -71q0 -41 -29 -70.5t-71 -29.5q-41 0 -70.5 29.5zM130 630q-29 29 -29 71q0 41 29 70.5t71 29.5q41 0 70.5 -29.5t29.5 -70.5q0 -42 -29.5 -71t-70.5 -29q-42 0 -71 29zM130 828.5q-29 29.5 -29 70.5t29 70.5
t71 29.5q41 0 70.5 -29.5t29.5 -70.5t-29.5 -70.5t-70.5 -29.5q-42 0 -71 29.5zM530.5 828q-29.5 29 -29.5 71q0 41 29.5 70.5t70.5 29.5q42 0 71 -29.5t29 -70.5q0 -42 -29 -71t-71 -29q-41 0 -70.5 29zM930 31q-29 29 -29 71q0 41 29 70.5t71 29.5q41 0 70.5 -29.5
t29.5 -70.5q0 -42 -29.5 -71t-70.5 -29q-42 0 -71 29zM930 230q-29 29 -29 71q0 41 29 70.5t71 29.5q41 0 70.5 -29.5t29.5 -70.5q0 -42 -29.5 -71t-70.5 -29q-42 0 -71 29zM930.5 428.5q-29.5 29.5 -29.5 70.5q0 42 29.5 71t70.5 29q42 0 71 -29t29 -71q0 -41 -29 -70.5
t-71 -29.5q-41 0 -70.5 29.5zM931 629.5q-29 29.5 -29 70.5q0 42 29 71t71 29q41 0 70.5 -29t29.5 -71q0 -41 -29.5 -70.5t-70.5 -29.5q-42 0 -71 29.5zM729.5 827.5q-29.5 29.5 -29.5 70.5q0 42 29.5 71t70.5 29q42 0 71 -29t29 -71q0 -41 -29 -70.5t-71 -29.5
q-41 0 -70.5 29.5zM329 827.5q-29 29.5 -29 70.5t29 70.5t71 29.5q41 0 70.5 -29.5t29.5 -70.5t-29.5 -70.5t-70.5 -29.5q-42 0 -71 29.5z" />
    <glyph glyph-name="o" unicode="o" 
d="M129.5 230q-29.5 29 -29.5 71q0 41 29.5 70.5t70.5 29.5t70.5 -29.5t29.5 -70.5q0 -42 -29.5 -71t-70.5 -29t-70.5 29zM129.5 428.5q-29.5 29.5 -29.5 70.5q0 42 29.5 71t70.5 29q42 0 71 -29t29 -71q0 -41 -29 -70.5t-71 -29.5q-41 0 -70.5 29.5zM130 630q-29 29 -29 71
q0 41 29 70.5t71 29.5q41 0 70.5 -29.5t29.5 -70.5q0 -42 -29.5 -71t-70.5 -29q-42 0 -71 29zM530.5 828q-29.5 29 -29.5 71q0 41 29.5 70.5t70.5 29.5q42 0 71 -29.5t29 -70.5q0 -42 -29 -71t-71 -29q-41 0 -70.5 29zM930 230q-29 29 -29 71q0 41 29 70.5t71 29.5
q41 0 70.5 -29.5t29.5 -70.5q0 -42 -29.5 -71t-70.5 -29q-42 0 -71 29zM930.5 428.5q-29.5 29.5 -29.5 70.5q0 42 29.5 71t70.5 29q42 0 71 -29t29 -71q0 -41 -29 -70.5t-71 -29.5q-41 0 -70.5 29.5zM931 629.5q-29 29.5 -29 70.5q0 42 29 71t71 29q41 0 70.5 -29t29.5 -71
q0 -41 -29.5 -70.5t-70.5 -29.5q-42 0 -71 29.5zM729.5 827.5q-29.5 29.5 -29.5 70.5q0 42 29.5 71t70.5 29q42 0 71 -29t29 -71q0 -41 -29 -70.5t-71 -29.5q-41 0 -70.5 29.5zM329 827.5q-29 29.5 -29 70.5t29 70.5t71 29.5q41 0 70.5 -29.5t29.5 -70.5t-29.5 -70.5
t-70.5 -29.5q-42 0 -71 29.5zM530.5 30q-29.5 29 -29.5 71q0 41 29.5 70.5t70.5 29.5q42 0 71 -29.5t29 -70.5q0 -42 -29 -71t-71 -29q-41 0 -70.5 29zM729.5 29.5q-29.5 29.5 -29.5 70.5q0 42 29.5 71t70.5 29q42 0 71 -29t29 -71q0 -41 -29 -70.5t-71 -29.5
q-41 0 -70.5 29.5zM329 29.5q-29 29.5 -29 70.5t29 70.5t71 29.5q41 0 70.5 -29.5t29.5 -70.5t-29.5 -70.5t-70.5 -29.5q-42 0 -71 29.5z" />
    <glyph glyph-name="p" unicode="p" 
d="M129.5 230q-29.5 29 -29.5 71q0 41 29.5 70.5t70.5 29.5t70.5 -29.5t29.5 -70.5q0 -42 -29.5 -71t-70.5 -29t-70.5 29zM129.5 428.5q-29.5 29.5 -29.5 70.5q0 42 29.5 71t70.5 29q42 0 71 -29t29 -71q0 -41 -29 -70.5t-71 -29.5q-41 0 -70.5 29.5zM130 630q-29 29 -29 71
q0 41 29 70.5t71 29.5q41 0 70.5 -29.5t29.5 -70.5q0 -42 -29.5 -71t-70.5 -29q-42 0 -71 29zM530.5 828q-29.5 29 -29.5 71q0 41 29.5 70.5t70.5 29.5q42 0 71 -29.5t29 -70.5q0 -42 -29 -71t-71 -29q-41 0 -70.5 29zM930 230q-29 29 -29 71q0 41 29 70.5t71 29.5
q41 0 70.5 -29.5t29.5 -70.5q0 -42 -29.5 -71t-70.5 -29q-42 0 -71 29zM930.5 428.5q-29.5 29.5 -29.5 70.5q0 42 29.5 71t70.5 29q42 0 71 -29t29 -71q0 -41 -29 -70.5t-71 -29.5q-41 0 -70.5 29.5zM931 629.5q-29 29.5 -29 70.5q0 42 29 71t71 29q41 0 70.5 -29t29.5 -71
q0 -41 -29.5 -70.5t-70.5 -29.5q-42 0 -71 29.5zM729.5 827.5q-29.5 29.5 -29.5 70.5q0 42 29.5 71t70.5 29q42 0 71 -29t29 -71q0 -41 -29 -70.5t-71 -29.5q-41 0 -70.5 29.5zM329 827.5q-29 29.5 -29 70.5t29 70.5t71 29.5q41 0 70.5 -29.5t29.5 -70.5t-29.5 -70.5
t-70.5 -29.5q-42 0 -71 29.5zM530.5 30q-29.5 29 -29.5 71q0 41 29.5 70.5t70.5 29.5q42 0 71 -29.5t29 -70.5q0 -42 -29 -71t-71 -29q-41 0 -70.5 29zM729.5 29.5q-29.5 29.5 -29.5 70.5q0 42 29.5 71t70.5 29q42 0 71 -29t29 -71q0 -41 -29 -70.5t-71 -29.5
q-41 0 -70.5 29.5zM329 29.5q-29 29.5 -29 70.5t29 70.5t71 29.5q41 0 70.5 -29.5t29.5 -70.5t-29.5 -70.5t-70.5 -29.5q-42 0 -71 29.5zM131 827.5q-29 29.5 -29 70.5t29 70.5t71 29.5q41 0 70.5 -29.5t29.5 -70.5t-29.5 -70.5t-70.5 -29.5q-42 0 -71 29.5zM130.5 28
q-29.5 29 -29.5 71q0 41 29.5 70.5t70.5 29.5t70.5 -29.5t29.5 -70.5q0 -42 -29.5 -71t-70.5 -29t-70.5 29zM129.5 -170q-29.5 29 -29.5 71q0 41 29.5 70.5t70.5 29.5t70.5 -29.5t29.5 -70.5q0 -42 -29.5 -71t-70.5 -29t-70.5 29zM129.5 -372q-29.5 29 -29.5 71
q0 41 29.5 70.5t70.5 29.5t70.5 -29.5t29.5 -70.5q0 -42 -29.5 -71t-70.5 -29t-70.5 29z" />
    <glyph glyph-name="q" unicode="q" 
d="M1002 201q-41 0 -70.5 29t-29.5 71q0 41 29.5 70.5t70.5 29.5t70.5 -29.5t29.5 -70.5q0 -42 -29.5 -71t-70.5 -29zM1002 399q-42 0 -71 29.5t-29 70.5q0 42 29 71t71 29q41 0 70.5 -29t29.5 -71q0 -41 -29.5 -70.5t-70.5 -29.5zM1001 601q-41 0 -70.5 29t-29.5 71
q0 41 29.5 70.5t70.5 29.5q42 0 71 -29.5t29 -70.5q0 -42 -29 -71t-71 -29zM601 799q-42 0 -71 29t-29 71q0 41 29 70.5t71 29.5q41 0 70.5 -29.5t29.5 -70.5q0 -42 -29.5 -71t-70.5 -29zM201 201q-41 0 -70.5 29t-29.5 71q0 41 29.5 70.5t70.5 29.5q42 0 71 -29.5t29 -70.5
q0 -42 -29 -71t-71 -29zM201 399q-42 0 -71 29.5t-29 70.5q0 42 29 71t71 29q41 0 70.5 -29t29.5 -71q0 -41 -29.5 -70.5t-70.5 -29.5zM200 600q-41 0 -70.5 29.5t-29.5 70.5q0 42 29.5 71t70.5 29q42 0 71 -29t29 -71q0 -41 -29 -70.5t-71 -29.5zM402 798q-42 0 -71 29.5
t-29 70.5q0 42 29 71t71 29q41 0 70.5 -29t29.5 -71q0 -41 -29.5 -70.5t-70.5 -29.5zM802 798q-41 0 -70.5 29.5t-29.5 70.5t29.5 70.5t70.5 29.5q42 0 71 -29.5t29 -70.5t-29 -70.5t-71 -29.5zM601 1q-42 0 -71 29t-29 71q0 41 29 70.5t71 29.5q41 0 70.5 -29.5t29.5 -70.5
q0 -42 -29.5 -71t-70.5 -29zM402 0q-42 0 -71 29.5t-29 70.5q0 42 29 71t71 29q41 0 70.5 -29t29.5 -71q0 -41 -29.5 -70.5t-70.5 -29.5zM802 0q-41 0 -70.5 29.5t-29.5 70.5t29.5 70.5t70.5 29.5q42 0 71 -29.5t29 -70.5t-29 -70.5t-71 -29.5zM1000 798q-41 0 -70.5 29.5
t-29.5 70.5t29.5 70.5t70.5 29.5q42 0 71 -29.5t29 -70.5t-29 -70.5t-71 -29.5zM1002 -1q-41 0 -70.5 29t-29.5 71q0 41 29.5 70.5t70.5 29.5t70.5 -29.5t29.5 -70.5q0 -42 -29.5 -71t-70.5 -29zM1002 -199q-41 0 -70.5 29t-29.5 71q0 41 29.5 70.5t70.5 29.5t70.5 -29.5
t29.5 -70.5q0 -42 -29.5 -71t-70.5 -29zM1002 -401q-41 0 -70.5 29t-29.5 71q0 41 29.5 70.5t70.5 29.5t70.5 -29.5t29.5 -70.5q0 -42 -29.5 -71t-70.5 -29z" />
    <glyph glyph-name="r" unicode="r" horiz-adv-x="925" 
d="M202 201q-41 0 -70.5 29t-29.5 71q0 41 29.5 70.5t70.5 29.5t70.5 -29.5t29.5 -70.5q0 -42 -29.5 -71t-70.5 -29zM202 399q-42 0 -71 29.5t-29 70.5q0 42 29 71t71 29q41 0 70.5 -29t29.5 -71q0 -41 -29.5 -70.5t-70.5 -29.5zM201 601q-41 0 -70.5 29t-29.5 71
q0 41 29.5 70.5t70.5 29.5q42 0 71 -29.5t29 -70.5q0 -42 -29 -71t-71 -29zM200 798q-41 0 -70.5 29.5t-29.5 70.5t29.5 70.5t70.5 29.5q42 0 71 -29.5t29 -70.5t-29 -70.5t-71 -29.5zM201 -1q-41 0 -70.5 29t-29.5 71q0 41 29.5 70.5t70.5 29.5t70.5 -29.5t29.5 -70.5
q0 -42 -29.5 -71t-70.5 -29zM402 798q-41 0 -70.5 29.5t-29.5 70.5t29.5 70.5t70.5 29.5q42 0 71 -29.5t29 -70.5t-29 -70.5t-71 -29.5zM601 797q-41 0 -70.5 29.5t-29.5 70.5t29.5 70.5t70.5 29.5q42 0 71 -29.5t29 -70.5t-29 -70.5t-71 -29.5zM800 601q-41 0 -70.5 29.5
t-29.5 70.5t29.5 70.5t70.5 29.5q42 0 71 -29.5t29 -70.5t-29 -70.5t-71 -29.5z" />
    <glyph glyph-name="s" unicode="s" 
d="M402 798q-41 0 -70.5 29.5t-29.5 70.5t29.5 70.5t70.5 29.5q42 0 71 -29.5t29 -70.5t-29 -70.5t-71 -29.5zM601 797q-41 0 -70.5 29.5t-29.5 70.5t29.5 70.5t70.5 29.5q42 0 71 -29.5t29 -70.5t-29 -70.5t-71 -29.5zM800 798q-41 0 -70.5 29.5t-29.5 70.5t29.5 70.5
t70.5 29.5q42 0 71 -29.5t29 -70.5t-29 -70.5t-71 -29.5zM201 599q-41 0 -70.5 29.5t-29.5 70.5t29.5 70.5t70.5 29.5q42 0 71 -29.5t29 -70.5t-29 -70.5t-71 -29.5zM1002 798q-41 0 -70.5 29.5t-29.5 70.5t29.5 70.5t70.5 29.5q42 0 71 -29.5t29 -70.5t-29 -70.5t-71 -29.5
zM402 400q-41 0 -70.5 29.5t-29.5 70.5t29.5 70.5t70.5 29.5q42 0 71 -29.5t29 -70.5t-29 -70.5t-71 -29.5zM601 400q-41 0 -70.5 29.5t-29.5 70.5t29.5 70.5t70.5 29.5q42 0 71 -29.5t29 -70.5t-29 -70.5t-71 -29.5zM800 401q-41 0 -70.5 29.5t-29.5 70.5t29.5 70.5
t70.5 29.5q42 0 71 -29.5t29 -70.5t-29 -70.5t-71 -29.5zM1000 199q-41 0 -70.5 29.5t-29.5 70.5t29.5 70.5t70.5 29.5q42 0 71 -29.5t29 -70.5t-29 -70.5t-71 -29.5zM200 -1q-41 0 -70.5 29.5t-29.5 70.5t29.5 70.5t70.5 29.5q42 0 71 -29.5t29 -70.5t-29 -70.5t-71 -29.5z
M399 -1q-41 0 -70.5 29.5t-29.5 70.5t29.5 70.5t70.5 29.5q42 0 71 -29.5t29 -70.5t-29 -70.5t-71 -29.5zM597 0q-41 0 -70.5 29.5t-29.5 70.5t29.5 70.5t70.5 29.5q42 0 71 -29.5t29 -70.5t-29 -70.5t-71 -29.5zM799 0q-41 0 -70.5 29.5t-29.5 70.5t29.5 70.5t70.5 29.5
q42 0 71 -29.5t29 -70.5t-29 -70.5t-71 -29.5z" />
    <glyph glyph-name="t" unicode="t" horiz-adv-x="923" 
d="M399 199q-41 0 -70.5 29.5t-29.5 70.5t29.5 70.5t70.5 29.5q42 0 71 -29.5t29 -70.5t-29 -70.5t-71 -29.5zM399 401q-41 0 -70.5 29.5t-29.5 70.5t29.5 70.5t70.5 29.5q42 0 71 -29.5t29 -70.5t-29 -70.5t-71 -29.5zM399 600q-41 0 -70.5 29.5t-29.5 70.5t29.5 70.5
t70.5 29.5q42 0 71 -29.5t29 -70.5t-29 -70.5t-71 -29.5zM398 799q-41 0 -70.5 29.5t-29.5 70.5t29.5 70.5t70.5 29.5q42 0 71 -29.5t29 -70.5t-29 -70.5t-71 -29.5zM399 1001q-41 0 -70.5 29.5t-29.5 70.5t29.5 70.5t70.5 29.5q42 0 71 -29.5t29 -70.5t-29 -70.5t-71 -29.5
zM399 1200q-41 0 -70.5 29.5t-29.5 70.5t29.5 70.5t70.5 29.5q42 0 71 -29.5t29 -70.5t-29 -70.5t-71 -29.5zM200 799q-41 0 -70.5 29.5t-29.5 70.5t29.5 70.5t70.5 29.5q42 0 71 -29.5t29 -70.5t-29 -70.5t-71 -29.5zM600 799q-41 0 -70.5 29.5t-29.5 70.5t29.5 70.5
t70.5 29.5q42 0 71 -29.5t29 -70.5t-29 -70.5t-71 -29.5zM798 799q-41 0 -70.5 29.5t-29.5 70.5t29.5 70.5t70.5 29.5q42 0 71 -29.5t29 -70.5t-29 -70.5t-71 -29.5zM600 1q-41 0 -70.5 29.5t-29.5 70.5t29.5 70.5t70.5 29.5q42 0 71 -29.5t29 -70.5t-29 -70.5t-71 -29.5z
M798 1q-41 0 -70.5 29.5t-29.5 70.5t29.5 70.5t70.5 29.5q42 0 71 -29.5t29 -70.5t-29 -70.5t-71 -29.5z" />
    <glyph glyph-name="u" unicode="u" 
d="M129.5 230q-29.5 29 -29.5 71q0 41 29.5 70.5t70.5 29.5t70.5 -29.5t29.5 -70.5q0 -42 -29.5 -71t-70.5 -29t-70.5 29zM129.5 428.5q-29.5 29.5 -29.5 70.5q0 42 29.5 71t70.5 29q42 0 71 -29t29 -71q0 -41 -29 -70.5t-71 -29.5q-41 0 -70.5 29.5zM130 630q-29 29 -29 71
q0 41 29 70.5t71 29.5q41 0 70.5 -29.5t29.5 -70.5q0 -42 -29.5 -71t-70.5 -29q-42 0 -71 29zM930.5 29q-29.5 29 -29.5 71q0 41 29.5 70.5t70.5 29.5q42 0 71 -29.5t29 -70.5q0 -42 -29 -71t-71 -29q-41 0 -70.5 29zM930 230q-29 29 -29 71q0 41 29 70.5t71 29.5
q41 0 70.5 -29.5t29.5 -70.5q0 -42 -29.5 -71t-70.5 -29q-42 0 -71 29zM930.5 428.5q-29.5 29.5 -29.5 70.5q0 42 29.5 71t70.5 29q42 0 71 -29t29 -71q0 -41 -29 -70.5t-71 -29.5q-41 0 -70.5 29.5zM931 629.5q-29 29.5 -29 70.5q0 42 29 71t71 29q41 0 70.5 -29t29.5 -71
q0 -41 -29.5 -70.5t-70.5 -29.5q-42 0 -71 29.5zM928.5 827.5q-29.5 29.5 -29.5 70.5q0 42 29.5 71t70.5 29q42 0 71 -29t29 -71q0 -41 -29 -70.5t-71 -29.5q-41 0 -70.5 29.5zM130 827.5q-29 29.5 -29 70.5t29 70.5t71 29.5q41 0 70.5 -29.5t29.5 -70.5t-29.5 -70.5
t-70.5 -29.5q-42 0 -71 29.5zM530.5 30q-29.5 29 -29.5 71q0 41 29.5 70.5t70.5 29.5q42 0 71 -29.5t29 -70.5q0 -42 -29 -71t-71 -29q-41 0 -70.5 29zM729.5 29.5q-29.5 29.5 -29.5 70.5q0 42 29.5 71t70.5 29q42 0 71 -29t29 -71q0 -41 -29 -70.5t-71 -29.5
q-41 0 -70.5 29.5zM329 29.5q-29 29.5 -29 70.5t29 70.5t71 29.5q41 0 70.5 -29.5t29.5 -70.5t-29.5 -70.5t-70.5 -29.5q-42 0 -71 29.5z" />
    <glyph glyph-name="v" unicode="v" 
d="M328.5 230q-29.5 29 -29.5 71q0 41 29.5 70.5t70.5 29.5t70.5 -29.5t29.5 -70.5q0 -42 -29.5 -71t-70.5 -29t-70.5 29zM129.5 428.5q-29.5 29.5 -29.5 70.5q0 42 29.5 71t70.5 29q42 0 71 -29t29 -71q0 -41 -29 -70.5t-71 -29.5q-41 0 -70.5 29.5zM130 630q-29 29 -29 71
q0 41 29 70.5t71 29.5q41 0 70.5 -29.5t29.5 -70.5q0 -42 -29.5 -71t-70.5 -29q-42 0 -71 29zM728 230q-29 29 -29 71q0 41 29 70.5t71 29.5q41 0 70.5 -29.5t29.5 -70.5q0 -42 -29.5 -71t-70.5 -29q-42 0 -71 29zM930.5 428.5q-29.5 29.5 -29.5 70.5q0 42 29.5 71t70.5 29
q42 0 71 -29t29 -71q0 -41 -29 -70.5t-71 -29.5q-41 0 -70.5 29.5zM931 629.5q-29 29.5 -29 70.5q0 42 29 71t71 29q41 0 70.5 -29t29.5 -71q0 -41 -29.5 -70.5t-70.5 -29.5q-42 0 -71 29.5zM928.5 827.5q-29.5 29.5 -29.5 70.5q0 42 29.5 71t70.5 29q42 0 71 -29t29 -71
q0 -41 -29 -70.5t-71 -29.5q-41 0 -70.5 29.5zM130 827.5q-29 29.5 -29 70.5t29 70.5t71 29.5q41 0 70.5 -29.5t29.5 -70.5t-29.5 -70.5t-70.5 -29.5q-42 0 -71 29.5zM530.5 30q-29.5 29 -29.5 71q0 41 29.5 70.5t70.5 29.5q42 0 71 -29.5t29 -70.5q0 -42 -29 -71t-71 -29
q-41 0 -70.5 29z" />
    <glyph glyph-name="w" unicode="w" 
d="M129.5 428.5q-29.5 29.5 -29.5 70.5q0 42 29.5 71t70.5 29q42 0 71 -29t29 -71q0 -41 -29 -70.5t-71 -29.5q-41 0 -70.5 29.5zM130 630q-29 29 -29 71q0 41 29 70.5t71 29.5q41 0 70.5 -29.5t29.5 -70.5q0 -42 -29.5 -71t-70.5 -29q-42 0 -71 29zM130 827.5
q-29 29.5 -29 70.5t29 70.5t71 29.5q41 0 70.5 -29.5t29.5 -70.5t-29.5 -70.5t-70.5 -29.5q-42 0 -71 29.5zM328.5 30q-29.5 29 -29.5 71q0 41 29.5 70.5t70.5 29.5q42 0 71 -29.5t29 -70.5q0 -42 -29 -71t-71 -29q-41 0 -70.5 29zM129.5 229.5q-29.5 29.5 -29.5 70.5
q0 42 29.5 71t70.5 29q42 0 71 -29t29 -71q0 -41 -29 -70.5t-71 -29.5q-41 0 -70.5 29.5zM529.5 230.5q-29.5 29.5 -29.5 70.5q0 42 29.5 71t70.5 29q42 0 71 -29t29 -71q0 -41 -29 -70.5t-71 -29.5q-41 0 -70.5 29.5zM529.5 428.5q-29.5 29.5 -29.5 70.5q0 42 29.5 71
t70.5 29q42 0 71 -29t29 -71q0 -41 -29 -70.5t-71 -29.5q-41 0 -70.5 29.5zM529.5 630.5q-29.5 29.5 -29.5 70.5q0 42 29.5 71t70.5 29q42 0 71 -29t29 -71q0 -41 -29 -70.5t-71 -29.5q-41 0 -70.5 29.5zM529.5 829.5q-29.5 29.5 -29.5 70.5q0 42 29.5 71t70.5 29
q42 0 71 -29t29 -71q0 -41 -29 -70.5t-71 -29.5q-41 0 -70.5 29.5zM728.5 30q-29.5 29 -29.5 71q0 41 29.5 70.5t70.5 29.5q42 0 71 -29.5t29 -70.5q0 -42 -29 -71t-71 -29q-41 0 -70.5 29zM930.5 428.5q-29.5 29.5 -29.5 70.5q0 42 29.5 71t70.5 29q42 0 71 -29t29 -71
q0 -41 -29 -70.5t-71 -29.5q-41 0 -70.5 29.5zM931 630q-29 29 -29 71q0 41 29 70.5t71 29.5q41 0 70.5 -29.5t29.5 -70.5q0 -42 -29.5 -71t-70.5 -29q-42 0 -71 29zM931 827.5q-29 29.5 -29 70.5t29 70.5t71 29.5q41 0 70.5 -29.5t29.5 -70.5t-29.5 -70.5t-70.5 -29.5
q-42 0 -71 29.5zM930.5 229.5q-29.5 29.5 -29.5 70.5q0 42 29.5 71t70.5 29q42 0 71 -29t29 -71q0 -41 -29 -70.5t-71 -29.5q-41 0 -70.5 29.5z" />
    <glyph glyph-name="x" unicode="x" 
d="M129 827.5q-29 29.5 -29 70.5t29 70.5t71 29.5q41 0 70.5 -29.5t29.5 -70.5t-29.5 -70.5t-70.5 -29.5q-42 0 -71 29.5zM328 628.5q-29 29.5 -29 70.5t29 70.5t71 29.5q41 0 70.5 -29.5t29.5 -70.5t-29.5 -70.5t-70.5 -29.5q-42 0 -71 29.5zM527 429.5q-29 29.5 -29 70.5
t29 70.5t71 29.5q41 0 70.5 -29.5t29.5 -70.5t-29.5 -70.5t-70.5 -29.5q-42 0 -71 29.5zM729 229.5q-29 29.5 -29 70.5t29 70.5t71 29.5q41 0 70.5 -29.5t29.5 -70.5t-29.5 -70.5t-70.5 -29.5q-42 0 -71 29.5zM931 30.5q-29 29.5 -29 70.5t29 70.5t71 29.5q41 0 70.5 -29.5
t29.5 -70.5t-29.5 -70.5t-70.5 -29.5q-42 0 -71 29.5zM1002 798q-41 0 -70.5 29.5t-29.5 70.5t29.5 70.5t70.5 29.5q42 0 71 -29.5t29 -70.5t-29 -70.5t-71 -29.5zM802 599q-41 0 -70.5 29.5t-29.5 70.5t29.5 70.5t70.5 29.5q42 0 71 -29.5t29 -70.5t-29 -70.5t-71 -29.5z
M402 200q-41 0 -70.5 29.5t-29.5 70.5t29.5 70.5t70.5 29.5q42 0 71 -29.5t29 -70.5t-29 -70.5t-71 -29.5zM200 1q-41 0 -70.5 29.5t-29.5 70.5t29.5 70.5t70.5 29.5q42 0 71 -29.5t29 -70.5t-29 -70.5t-71 -29.5z" />
    <glyph glyph-name="y" unicode="y" 
d="M129.5 230q-29.5 29 -29.5 71q0 41 29.5 70.5t70.5 29.5t70.5 -29.5t29.5 -70.5q0 -42 -29.5 -71t-70.5 -29t-70.5 29zM129.5 428.5q-29.5 29.5 -29.5 70.5q0 42 29.5 71t70.5 29q42 0 71 -29t29 -71q0 -41 -29 -70.5t-71 -29.5q-41 0 -70.5 29.5zM130 630q-29 29 -29 71
q0 41 29 70.5t71 29.5q41 0 70.5 -29.5t29.5 -70.5q0 -42 -29.5 -71t-70.5 -29q-42 0 -71 29zM930.5 29q-29.5 29 -29.5 71q0 41 29.5 70.5t70.5 29.5q42 0 71 -29.5t29 -70.5q0 -42 -29 -71t-71 -29q-41 0 -70.5 29zM930 230q-29 29 -29 71q0 41 29 70.5t71 29.5
q41 0 70.5 -29.5t29.5 -70.5q0 -42 -29.5 -71t-70.5 -29q-42 0 -71 29zM930.5 428.5q-29.5 29.5 -29.5 70.5q0 42 29.5 71t70.5 29q42 0 71 -29t29 -71q0 -41 -29 -70.5t-71 -29.5q-41 0 -70.5 29.5zM931 629.5q-29 29.5 -29 70.5q0 42 29 71t71 29q41 0 70.5 -29t29.5 -71
q0 -41 -29.5 -70.5t-70.5 -29.5q-42 0 -71 29.5zM928.5 827.5q-29.5 29.5 -29.5 70.5q0 42 29.5 71t70.5 29q42 0 71 -29t29 -71q0 -41 -29 -70.5t-71 -29.5q-41 0 -70.5 29.5zM130 827.5q-29 29.5 -29 70.5t29 70.5t71 29.5q41 0 70.5 -29.5t29.5 -70.5t-29.5 -70.5
t-70.5 -29.5q-42 0 -71 29.5zM530.5 30q-29.5 29 -29.5 71q0 41 29.5 70.5t70.5 29.5q42 0 71 -29.5t29 -70.5q0 -42 -29 -71t-71 -29q-41 0 -70.5 29zM729.5 29.5q-29.5 29.5 -29.5 70.5q0 42 29.5 71t70.5 29q42 0 71 -29t29 -71q0 -41 -29 -70.5t-71 -29.5
q-41 0 -70.5 29.5zM329 29.5q-29 29.5 -29 70.5t29 70.5t71 29.5q41 0 70.5 -29.5t29.5 -70.5t-29.5 -70.5t-70.5 -29.5q-42 0 -71 29.5zM930.5 -173q-29.5 29 -29.5 71q0 41 29.5 70.5t70.5 29.5q42 0 71 -29.5t29 -70.5q0 -42 -29 -71t-71 -29q-41 0 -70.5 29zM529.5 -370
q-29.5 29 -29.5 71q0 41 29.5 70.5t70.5 29.5q42 0 71 -29.5t29 -70.5q0 -42 -29 -71t-71 -29q-41 0 -70.5 29zM728.5 -370.5q-29.5 29.5 -29.5 70.5q0 42 29.5 71t70.5 29q42 0 71 -29t29 -71q0 -41 -29 -70.5t-71 -29.5q-41 0 -70.5 29.5zM330.5 -370q-29.5 29 -29.5 71
q0 41 29.5 70.5t70.5 29.5q42 0 71 -29.5t29 -70.5q0 -42 -29 -71t-71 -29q-41 0 -70.5 29z" />
    <glyph glyph-name="z" unicode="z" horiz-adv-x="1126" 
d="M929.5 29q-29.5 29 -29.5 71q0 41 29.5 70.5t70.5 29.5q42 0 71 -29.5t29 -70.5q0 -42 -29 -71t-71 -29q-41 0 -70.5 29zM529.5 30q-29.5 29 -29.5 71q0 41 29.5 70.5t70.5 29.5q42 0 71 -29.5t29 -70.5q0 -42 -29 -71t-71 -29q-41 0 -70.5 29zM728.5 29.5
q-29.5 29.5 -29.5 70.5q0 42 29.5 71t70.5 29q42 0 71 -29t29 -71q0 -41 -29 -70.5t-71 -29.5q-41 0 -70.5 29.5zM328 29.5q-29 29.5 -29 70.5t29 70.5t71 29.5q41 0 70.5 -29.5t29.5 -70.5t-29.5 -70.5t-70.5 -29.5q-42 0 -71 29.5zM129 29.5q-29 29.5 -29 70.5t29 70.5
t71 29.5q41 0 70.5 -29.5t29.5 -70.5t-29.5 -70.5t-70.5 -29.5q-42 0 -71 29.5zM930.5 830q-29.5 29 -29.5 71q0 41 29.5 70.5t70.5 29.5q42 0 71 -29.5t29 -70.5q0 -42 -29 -71t-71 -29q-41 0 -70.5 29zM529.5 831q-29.5 29 -29.5 71q0 41 29.5 70.5t70.5 29.5
q42 0 71 -29.5t29 -70.5q0 -42 -29 -71t-71 -29q-41 0 -70.5 29zM728.5 830.5q-29.5 29.5 -29.5 70.5q0 42 29.5 71t70.5 29q42 0 71 -29t29 -71q0 -41 -29 -70.5t-71 -29.5q-41 0 -70.5 29.5zM328 830.5q-29 29.5 -29 70.5t29 70.5t71 29.5q41 0 70.5 -29.5t29.5 -70.5
t-29.5 -70.5t-70.5 -29.5q-42 0 -71 29.5zM129 830.5q-29 29.5 -29 70.5t29 70.5t71 29.5q41 0 70.5 -29.5t29.5 -70.5t-29.5 -70.5t-70.5 -29.5q-42 0 -71 29.5zM728.5 628q-29.5 29 -29.5 71q0 41 29.5 70.5t70.5 29.5q42 0 71 -29.5t29 -70.5q0 -42 -29 -71t-71 -29
q-41 0 -70.5 29zM530.5 430q-29.5 29 -29.5 71q0 41 29.5 70.5t70.5 29.5q42 0 71 -29.5t29 -70.5q0 -42 -29 -71t-71 -29q-41 0 -70.5 29zM328.5 228q-29.5 29 -29.5 71q0 41 29.5 70.5t70.5 29.5q42 0 71 -29.5t29 -70.5q0 -42 -29 -71t-71 -29q-41 0 -70.5 29z" />
    <glyph glyph-name="braceleft" unicode="{" horiz-adv-x="724" 
d="M599 1401q-42 0 -71 29.5t-29 70.5q0 42 29 71t71 29q41 0 70.5 -29t29.5 -71q0 -41 -29.5 -70.5t-70.5 -29.5zM599 -201q-42 0 -71 29t-29 71q0 41 29 70.5t71 29.5q41 0 70.5 -29.5t29.5 -70.5q0 -42 -29.5 -71t-70.5 -29zM401 0q-42 0 -71 29.5t-29 70.5q0 42 29 71
t71 29q41 0 70.5 -29t29.5 -71q0 -41 -29.5 -70.5t-70.5 -29.5zM401 199q-41 0 -70.5 29.5t-29.5 70.5q0 42 29.5 71t70.5 29q42 0 71 -29t29 -71q0 -41 -29 -70.5t-71 -29.5zM402 401q-42 0 -71 29t-29 71q0 41 29 70.5t71 29.5q41 0 70.5 -29.5t29.5 -70.5
q0 -42 -29.5 -71t-70.5 -29zM200 600q-41 0 -70.5 29t-29.5 71q0 41 29.5 70.5t70.5 29.5t70.5 -29.5t29.5 -70.5q0 -42 -29.5 -71t-70.5 -29zM402 798q-41 0 -70.5 29t-29.5 71q0 41 29.5 70.5t70.5 29.5q42 0 71 -29.5t29 -70.5q0 -42 -29 -71t-71 -29zM403 1000
q-42 0 -71 29t-29 71q0 41 29 70.5t71 29.5q41 0 70.5 -29.5t29.5 -70.5q0 -42 -29.5 -71t-70.5 -29zM402 1198q-41 0 -70.5 29.5t-29.5 70.5q0 42 29.5 71t70.5 29q42 0 71 -29t29 -71q0 -41 -29 -70.5t-71 -29.5z" />
    <glyph glyph-name="bar" unicode="|" horiz-adv-x="326" 
d="M271.5 971.5q29.5 -29.5 29.5 -70.5t-29.5 -70.5t-70.5 -29.5t-70.5 29.5t-29.5 70.5t29.5 70.5t70.5 29.5t70.5 -29.5zM271.5 772q29.5 -29 29.5 -71q0 -41 -29.5 -70.5t-70.5 -29.5q-42 0 -71 29.5t-29 70.5q0 42 29 71t71 29q41 0 70.5 -29zM271.5 572.5
q29.5 -29.5 29.5 -70.5q0 -42 -29.5 -71t-70.5 -29q-42 0 -71 29t-29 71q0 41 29 70.5t71 29.5q41 0 70.5 -29.5zM271.5 372.5q29.5 -29.5 29.5 -70.5q0 -42 -29.5 -71t-70.5 -29q-42 0 -71 29t-29 71q0 41 29 70.5t71 29.5q41 0 70.5 -29.5zM271 172q29 -29 29 -71
q0 -41 -29 -70.5t-71 -29.5q-41 0 -70.5 29.5t-29.5 70.5q0 42 29.5 71t70.5 29q42 0 71 -29zM271.5 1171q29.5 -29 29.5 -71q0 -41 -29.5 -70.5t-70.5 -29.5q-42 0 -71 29.5t-29 70.5q0 42 29 71t71 29q41 0 70.5 -29zM271.5 1369.5q29.5 -29.5 29.5 -70.5q0 -42 -29.5 -71
t-70.5 -29t-70.5 29t-29.5 71q0 41 29.5 70.5t70.5 29.5t70.5 -29.5zM270.5 -30q29.5 -29 29.5 -71q0 -41 -29.5 -70.5t-70.5 -29.5t-70.5 29.5t-29.5 70.5q0 42 29.5 71t70.5 29t70.5 -29zM272 1571.5q29 -29.5 29 -70.5t-29 -70.5t-71 -29.5q-41 0 -70.5 29.5t-29.5 70.5
t29.5 70.5t70.5 29.5q42 0 71 -29.5z" />
    <glyph glyph-name="braceright" unicode="}" horiz-adv-x="724" 
d="M129.5 1430.5q-29.5 29.5 -29.5 70.5q0 42 29.5 71t70.5 29q42 0 71 -29t29 -71q0 -41 -29 -70.5t-71 -29.5q-41 0 -70.5 29.5zM129.5 -172q-29.5 29 -29.5 71q0 41 29.5 70.5t70.5 29.5t70.5 -29.5t29.5 -70.5q0 -42 -29.5 -71t-70.5 -29t-70.5 29zM327.5 29.5
q-29.5 29.5 -29.5 70.5q0 42 29.5 71t70.5 29q42 0 71 -29t29 -71q0 -41 -29 -70.5t-71 -29.5q-41 0 -70.5 29.5zM327 228.5q-29 29.5 -29 70.5q0 42 29 71t71 29q41 0 70.5 -29t29.5 -71q0 -41 -29.5 -70.5t-70.5 -29.5q-42 0 -71 29.5zM326.5 430q-29.5 29 -29.5 71
q0 41 29.5 70.5t70.5 29.5q42 0 71 -29.5t29 -70.5q0 -42 -29 -71t-71 -29q-41 0 -70.5 29zM528 629q-29 29 -29 71q0 41 29 70.5t71 29.5q41 0 70.5 -29.5t29.5 -70.5q0 -42 -29.5 -71t-70.5 -29q-42 0 -71 29zM325.5 827q-29.5 29 -29.5 71q0 41 29.5 70.5t70.5 29.5
q42 0 71 -29.5t29 -70.5q0 -42 -29 -71t-71 -29q-41 0 -70.5 29zM325.5 1029q-29.5 29 -29.5 71q0 41 29.5 70.5t70.5 29.5t70.5 -29.5t29.5 -70.5q0 -42 -29.5 -71t-70.5 -29t-70.5 29zM325.5 1227.5q-29.5 29.5 -29.5 70.5q0 42 29.5 71t70.5 29q42 0 71 -29t29 -71
q0 -41 -29 -70.5t-71 -29.5q-41 0 -70.5 29.5z" />
    <glyph glyph-name="asciitilde" unicode="~" horiz-adv-x="923" 
d="M270.5 472q29.5 -29 29.5 -71q0 -41 -29.5 -70.5t-70.5 -29.5t-70.5 29.5t-29.5 70.5q0 42 29.5 71t70.5 29t70.5 -29zM869 871q29 -29 29 -71q0 -41 -29 -70.5t-71 -29.5q-41 0 -70.5 29.5t-29.5 70.5q0 42 29.5 71t70.5 29q42 0 71 -29zM368.5 672.5
q29.5 -29.5 29.5 -70.5q0 -42 -29.5 -71t-70.5 -29q-42 0 -71 29t-29 71q0 41 29 70.5t71 29.5q41 0 70.5 -29.5zM570.5 672.5q29.5 -29.5 29.5 -70.5q0 -42 -29.5 -71t-70.5 -29q-42 0 -71 29t-29 71q0 41 29 70.5t71 29.5q41 0 70.5 -29.5zM769 673q29 -29 29 -71
q0 -41 -29 -70.5t-71 -29.5q-41 0 -70.5 29.5t-29.5 70.5q0 42 29.5 71t70.5 29q42 0 71 -29z" />
  </font>
</defs>
</svg>
